<svg width="320" height="138" viewBox="0 0 320 138" fill="none" xmlns="http://www.w3.org/2000/svg">
<g style="mix-blend-mode:luminosity">
<g clip-path="url(#clip0_4748_6984)">
<rect width="320" height="138" rx="10" fill="#C3C3FF"/>
<path d="M10 0C4.47715 0 0 4.47716 0 10V128C0 133.523 4.47715 138 10 138H183.059C178.266 91.6966 182.715 44.7779 196.281 0H10Z" fill="#5959FF"/>
<path d="M44.888 42.672V45.24H48.344V53.088H51.512V36.96H48.344V42.672H44.888ZM46.352 47.76C42.872 46.584 41.36 43.872 41.36 41.256V40.968H45.656V38.448H33.776V40.968H38.12V41.28C38.12 44.064 36.536 46.968 32.912 48.144L34.52 50.664C37.088 49.8 38.816 48.048 39.8 45.864C40.76 47.856 42.392 49.44 44.816 50.232L46.352 47.76ZM40.112 56.16V51.744H36.944V58.68H52.016V56.16H40.112ZM72.0781 45.672C72.7021 43.392 72.7021 41.52 72.7021 39.768V37.944H57.3901V40.44H69.5341C69.5341 41.904 69.4621 43.392 68.9581 45.36L72.0781 45.672ZM64.9741 56.688C61.9981 56.688 60.2941 56.088 60.2941 54.912C60.2941 53.712 61.9981 53.112 64.9741 53.112C67.9741 53.112 69.6781 53.712 69.6781 54.912C69.6781 56.088 67.9741 56.688 64.9741 56.688ZM64.9741 50.736C60.2221 50.736 57.1501 52.32 57.1501 54.912C57.1501 57.48 60.2221 59.064 64.9741 59.064C69.7501 59.064 72.8221 57.48 72.8221 54.912C72.8221 52.32 69.7501 50.736 64.9741 50.736ZM65.6941 46.848V42.984H62.5261V46.848H55.1581V49.344H75.0541V46.848H65.6941Z" fill="white"/>
<path d="M40.055 73.045V74.65H42.215V79.555H44.195V69.475H42.215V73.045H40.055ZM40.97 76.225C38.795 75.49 37.85 73.795 37.85 72.16V71.98H40.535V70.405H33.11V71.98H35.825V72.175C35.825 73.915 34.835 75.73 32.57 76.465L33.575 78.04C35.18 77.5 36.26 76.405 36.875 75.04C37.475 76.285 38.495 77.275 40.01 77.77L40.97 76.225ZM37.07 81.475V78.715H35.09V83.05H44.51V81.475H37.07ZM57.0488 74.92C57.4388 73.495 57.4388 72.325 57.4388 71.23V70.09H47.8688V71.65H55.4588C55.4588 72.565 55.4138 73.495 55.0988 74.725L57.0488 74.92ZM52.6088 81.805C50.7488 81.805 49.6838 81.43 49.6838 80.695C49.6838 79.945 50.7488 79.57 52.6088 79.57C54.4838 79.57 55.5488 79.945 55.5488 80.695C55.5488 81.43 54.4838 81.805 52.6088 81.805ZM52.6088 78.085C49.6388 78.085 47.7188 79.075 47.7188 80.695C47.7188 82.3 49.6388 83.29 52.6088 83.29C55.5938 83.29 57.5138 82.3 57.5138 80.695C57.5138 79.075 55.5938 78.085 52.6088 78.085ZM53.0588 75.655V73.24H51.0788V75.655H46.4738V77.215H58.9088V75.655H53.0588ZM68.7027 75.25C66.4677 74.605 65.4927 72.985 65.4927 71.32V69.985H63.4827V71.32C63.4827 73.015 62.4927 74.77 60.1827 75.49L61.1427 77.05C62.7627 76.54 63.8877 75.49 64.5177 74.17C65.1327 75.385 66.1977 76.33 67.7577 76.795L68.7027 75.25ZM64.4727 79.465H69.7827V81.58H64.4727V79.465ZM62.5227 83.125H71.7177V77.92H62.5227V83.125ZM69.7227 69.475V77.275H71.7177V69.475H69.7227ZM82.2765 70.99H79.2165V69.535H77.2365V70.99H74.1465V72.55H82.2765V70.99ZM76.7265 75.685C76.7265 74.98 77.3265 74.59 78.2265 74.59C79.1265 74.59 79.7265 74.98 79.7265 75.685C79.7265 76.42 79.1265 76.81 78.2265 76.81C77.3265 76.81 76.7265 76.42 76.7265 75.685ZM79.2165 78.19C80.6565 77.89 81.6015 76.96 81.6015 75.685C81.6015 74.14 80.2065 73.09 78.2265 73.09C76.2465 73.09 74.8515 74.14 74.8515 75.685C74.8515 76.96 75.7965 77.89 77.2365 78.19V79.36C76.0215 79.39 74.8815 79.39 73.8915 79.39L74.1315 80.995C76.4715 80.995 79.5765 80.995 82.4865 80.425L82.3365 79C81.3465 79.15 80.2815 79.225 79.2165 79.285V78.19ZM86.7465 75.1H85.0215V69.475H83.0415V83.29H85.0215V76.735H86.7465V75.1ZM96.8703 71.725H89.4003V75.025H99.0603V73.69H91.3503V72.97H98.8203V69.715H89.3703V71.05H96.8703V71.725ZM91.2303 81.085H98.8653V77.8H89.2503V79.135H96.9003V79.84H89.2653V83.17H99.2403V81.835H91.2303V81.085ZM87.8403 75.685V77.11H100.35V75.685H87.8403ZM110.021 71.635C111.041 71.635 111.746 72.115 111.746 72.985C111.746 73.825 111.041 74.305 110.021 74.305C109.016 74.305 108.296 73.825 108.296 72.985C108.296 72.115 109.016 71.635 110.021 71.635ZM110.021 75.925C112.106 75.925 113.636 74.695 113.636 72.985C113.636 71.245 112.106 70.03 110.021 70.03C107.936 70.03 106.391 71.245 106.391 72.985C106.391 74.695 107.936 75.925 110.021 75.925ZM114.341 76.27C111.416 76.705 107.996 76.735 105.581 76.735L105.806 78.355C106.781 78.355 107.906 78.34 109.091 78.295V82.87H111.071V78.175C112.196 78.07 113.351 77.935 114.461 77.71L114.341 76.27ZM115.121 69.475V83.275H117.101V69.475H115.121ZM127.479 70.93H124.389V69.46H122.394V70.93H119.334V72.475H127.464L127.479 70.93ZM121.899 75.625C121.899 74.875 122.514 74.47 123.399 74.47C124.269 74.47 124.899 74.875 124.899 75.625C124.899 76.39 124.269 76.795 123.399 76.795C122.514 76.795 121.899 76.39 121.899 75.625ZM126.789 75.625C126.789 74.065 125.379 72.97 123.399 72.97C121.419 72.97 120.009 74.065 120.009 75.625C120.009 77.215 121.419 78.295 123.399 78.295C125.379 78.295 126.789 77.215 126.789 75.625ZM123.279 79.045H121.299V83.05H130.704V81.475H123.279V79.045ZM130.209 73.69V69.475H128.229V79.81H130.209V75.325H132.039V73.69H130.209ZM40.67 90.345H37.745V89.37H35.765V90.345H32.825V91.65H40.67V90.345ZM35.255 93.72C35.255 93.33 35.81 93.135 36.755 93.135C37.7 93.135 38.24 93.33 38.24 93.72C38.24 94.125 37.7 94.335 36.755 94.335C35.81 94.335 35.255 94.125 35.255 93.72ZM41.015 95.76C39.965 95.88 38.855 95.97 37.745 96.03V95.475C39.215 95.295 40.115 94.665 40.115 93.72C40.115 92.595 38.81 91.92 36.755 91.92C34.7 91.92 33.38 92.595 33.38 93.72C33.38 94.665 34.28 95.295 35.765 95.475V96.105C34.58 96.135 33.47 96.135 32.48 96.135L32.675 97.485C35.06 97.485 38.255 97.455 41.15 96.945L41.015 95.76ZM36.29 101.22H43.595V98.1H34.31V99.405H41.645V100.005H34.325V103.185H44.075V101.88H36.29V101.22ZM43.595 92.73V89.46H41.615V97.605H43.595V94.35H45.335V92.73H43.595ZM52.6538 101.805C50.8088 101.805 49.8638 101.49 49.8638 100.77C49.8638 100.05 50.8088 99.72 52.6538 99.72C54.4988 99.72 55.4438 100.05 55.4438 100.77C55.4438 101.49 54.4988 101.805 52.6538 101.805ZM52.6538 98.22C49.6688 98.22 47.8688 99.135 47.8688 100.77C47.8688 102.39 49.6688 103.305 52.6538 103.305C55.6388 103.305 57.4538 102.39 57.4538 100.77C57.4538 99.135 55.6388 98.22 52.6538 98.22ZM53.6888 95.97V94.83H57.5288V93.255H49.9388V91.635H57.4538V90.06H47.9738V94.83H51.7088V95.97H46.4588V97.545H58.9538V95.97H53.6888ZM66.4827 91.125C68.4927 91.125 69.4377 91.41 69.4377 92.025C69.4377 92.67 68.4927 92.94 66.4827 92.94C64.4877 92.94 63.5427 92.67 63.5427 92.025C63.5427 91.41 64.4877 91.125 66.4827 91.125ZM66.4827 94.38C69.6477 94.38 71.4927 93.555 71.4927 92.025C71.4927 90.51 69.6477 89.67 66.4827 89.67C63.3327 89.67 61.4877 90.51 61.4877 92.025C61.4877 93.555 63.3327 94.38 66.4827 94.38ZM63.6477 100.92H71.2077V97.365H61.6677V98.82H69.2577V99.555H61.6827V103.185H71.5677V101.7H63.6477V100.92ZM60.2427 95.04V96.585H72.7227V95.04H60.2427ZM81.928 98.85C80.998 98.85 80.308 98.22 80.308 97.17C80.308 96.12 80.998 95.475 81.928 95.475C82.858 95.475 83.533 96.12 83.533 97.155C83.533 98.22 82.858 98.85 81.928 98.85ZM81.928 93.87C79.918 93.87 78.418 95.235 78.418 97.155C78.418 99.105 79.918 100.47 81.928 100.47C83.923 100.47 85.408 99.105 85.408 97.155C85.408 95.235 83.923 93.87 81.928 93.87ZM82.903 89.715H80.923V91.515H77.863V93.09H85.903V91.515H82.903V89.715ZM90.763 94.875H88.783V89.475H86.803V103.29H88.783V96.51H90.763V94.875ZM102.867 93.21H95.2618V89.97H93.2818V94.785H102.867V93.21ZM95.1418 98.88H93.1468V102.99H102.942V101.415H95.1418V98.88ZM91.7368 96.195V97.785H104.247V96.195H91.7368ZM115.642 101.805C113.797 101.805 112.852 101.49 112.852 100.77C112.852 100.05 113.797 99.72 115.642 99.72C117.487 99.72 118.432 100.05 118.432 100.77C118.432 101.49 117.487 101.805 115.642 101.805ZM115.642 98.22C112.657 98.22 110.857 99.135 110.857 100.77C110.857 102.39 112.657 103.305 115.642 103.305C118.627 103.305 120.442 102.39 120.442 100.77C120.442 99.135 118.627 98.22 115.642 98.22ZM116.677 95.97V94.83H120.517V93.255H112.927V91.635H120.442V90.06H110.962V94.83H114.697V95.97H109.447V97.545H121.942V95.97H116.677ZM126.936 98.505C125.901 98.505 125.211 97.41 125.211 95.355C125.211 93.315 125.901 92.22 126.936 92.22C127.956 92.22 128.661 93.315 128.661 95.355C128.661 97.41 127.956 98.505 126.936 98.505ZM126.936 90.435C124.836 90.435 123.306 92.325 123.306 95.355C123.306 98.4 124.836 100.305 126.936 100.305C129.021 100.305 130.566 98.4 130.566 95.355C130.566 92.325 129.021 90.435 126.936 90.435ZM136.056 94.68H134.046V89.475H132.066V103.29H134.046V96.315H136.056V94.68ZM139.79 95.985H144.275V90.645H137.75V92.22H142.25V94.425H137.765V100.11H139.01C141.515 100.11 143.54 100.02 145.79 99.63L145.58 98.025C143.63 98.355 141.89 98.46 139.79 98.475V95.985ZM146.54 89.46V103.32H148.52V89.46H146.54Z" fill="white"/>
<path d="M245.975 38.3587L230.602 60.0196L235.857 61.8305L250.434 51.3188L249.801 43.976L245.975 38.3587Z" fill="#A5A5FE"/>
<path d="M249.88 28.8338C242.655 33.3071 245.042 76.1107 245.042 76.1107L272.949 72.6863C272.949 72.6863 273.811 29.485 249.88 28.8338Z" fill="white"/>
<path d="M253.474 29.2204L251.065 25.1014L246.139 27.243L247.386 32.6364C247.429 32.6643 247.477 32.6875 247.524 32.7093C249.189 31.1203 251.259 29.9051 253.474 29.2204Z" fill="#A5A5FE"/>
<path d="M251.189 15.5666L252.003 22.9629C251.268 23.0515 250.967 23.9049 251.217 24.5679C251.168 24.7472 251.156 24.9397 251.183 25.1278C250.062 26.2402 247.951 27.796 244.892 27.7086C240.106 27.5722 241.455 18.144 241.455 18.144L251.189 15.5666Z" fill="#A5A5FE"/>
<path d="M254.412 20.6987C254.36 20.1548 254.909 18.895 255.259 18.4767C257.52 15.7769 254.9 14.4996 253.979 14.099C252.961 13.6552 252.872 11.9535 251.526 11.211C249.471 10.0799 247.953 11.8434 246.75 11.8162C245.547 11.7889 244.571 10.3529 243.005 11.4505C241.441 12.549 241.844 13.8511 241.391 14.5012C240.937 15.1519 239.686 13.7592 238.317 15.8033C236.235 18.9129 241.363 19.2687 241.363 19.2687C241.363 19.2687 244.248 19.9503 247.601 17.966C248.06 17.6939 248.661 17.706 249.041 18.0824C250.084 19.1115 251.086 25.2299 251.086 25.2299L252.119 24.0439C252.119 24.0439 254.652 23.1888 254.412 20.6987Z" fill="#5959FF"/>
<path d="M251.722 21.75C251.579 22.3642 250.966 22.7465 250.352 22.6033C249.738 22.4609 249.356 21.8476 249.498 21.2334C249.641 20.6199 250.255 20.2384 250.868 20.3801C251.482 20.5226 251.864 21.1365 251.722 21.75Z" fill="#A5A5FE"/>
<path d="M293.947 124.062C293.947 124.062 295.971 126.574 296.965 132.05C297.136 132.992 296.873 133.961 297.681 134.405C298.165 134.67 298.676 134.195 298.715 133.644L299.096 128.198C299.1 128.141 299.099 128.083 299.093 128.027L298.594 123.125C298.567 122.859 298.786 122.634 299.052 122.652C299.289 122.669 299.495 122.49 299.512 122.253L299.628 120.591C299.662 120.105 299.341 119.666 298.861 119.582C297.469 119.338 294.754 119.037 294.212 120.268L293.947 124.062Z" fill="#5959FF"/>
<path d="M290.543 123.244L293.949 124.062C294.765 123.044 294.91 121.641 294.321 120.477L294.214 120.268L290.827 119.175L290.543 123.244Z" fill="#A5A5FE"/>
<path d="M246.59 78.8054C246.59 78.8054 232.903 100.656 232.411 107.695C231.919 114.736 246.285 143.332 246.285 143.332L250.944 143.657C250.944 143.657 251.334 126.201 249.192 111.556C248.772 108.683 249.856 105.783 252.106 103.948C262.656 95.352 272.511 80.6179 272.511 80.6179L246.59 78.8054Z" fill="#A5A5FE"/>
<path d="M271.692 82.1446C271.692 82.1446 270.614 92.9781 265.79 102.157C264.301 104.988 265.758 108.451 268.835 109.323C281.563 112.932 289.351 117.612 291.274 118.846C291.571 119.037 291.728 119.371 291.703 119.722L291.462 123.175C291.419 123.78 290.853 124.208 290.26 124.084L256.706 117.079C251.139 115.917 247.088 111.098 246.901 105.415L246.539 94.5065L271.692 82.1446Z" fill="#A5A5FE"/>
<g filter="url(#filter0_f_4748_6984)">
<path d="M171.347 52.5975C171.675 52.2173 171.94 51.771 172.114 51.2671C172.131 51.2182 172.139 51.1685 172.154 51.1196C172.242 50.8283 172.297 50.5334 172.32 50.2413C172.321 50.2228 172.32 50.2044 172.321 50.1866C172.329 50.059 172.333 49.9307 172.329 49.8051C172.324 49.6555 172.311 49.5065 172.288 49.3604L187.336 46.0293L187.336 46.8916C187.336 53.0744 185.173 59.0624 181.222 63.8184L171.347 52.5975Z" fill="black" fill-opacity="0.2"/>
</g>
<path d="M178.892 55.1107C178.003 57.6961 179.369 57.3171 181.965 61.401L314.449 106.932C317.035 107.821 319.851 106.446 320.74 103.86L323.636 95.4342C324.525 92.848 323.149 90.0322 320.563 89.1431L188.079 43.6119C185.493 42.7235 185.52 46.7822 184.632 49.3676L178.892 55.1107Z" fill="#6C6CFF"/>
<path d="M322.029 100.115L320.743 103.86C319.853 106.446 317.038 107.821 314.451 106.932L181.967 61.4004C179.381 60.5121 180.182 51.3651 180.182 51.3651L322.029 100.115Z" fill="#4343FE"/>
<path d="M301.5 102.5L307 84.5L311.203 85.9255L320.565 89.1424C323.151 90.0315 324.526 92.8473 323.638 95.4335L322.029 100.115L320.742 103.86C319.853 106.446 317.037 107.821 314.451 106.932L305.089 103.715L301.5 102.5Z" fill="#A5A5FE"/>
<path d="M303.683 103.232L297.128 100.98L303.241 83.1898L309.796 85.4421L303.683 103.232Z" fill="#EFEEEE"/>
<g filter="url(#filter1_f_4748_6984)">
<path d="M172.288 49.3597L168.005 49.6809L171.346 52.5975L173.05 51.5893L172.288 49.3597Z" fill="black" fill-opacity="0.2"/>
</g>
<path d="M172.392 46.7213L168.11 47.0425L171.45 49.9591L173.154 48.9509L172.392 46.7213Z" fill="#2E2EFF"/>
<path d="M171.451 49.9591C171.78 49.5788 172.045 49.1325 172.218 48.6286C172.235 48.5797 172.244 48.5301 172.259 48.4812C172.347 48.1899 172.402 47.895 172.424 47.6028C172.426 47.5844 172.424 47.5659 172.425 47.5482C172.433 47.4206 172.438 47.2922 172.434 47.1667C172.428 47.017 172.415 46.8681 172.393 46.722L187.44 43.3908L187.44 44.2532C187.44 50.436 185.277 56.424 181.327 61.18L171.451 49.9591Z" fill="white"/>
<path fill-rule="evenodd" clip-rule="evenodd" d="M259.167 51.9316L268.779 45.9873C268.779 45.9873 274.333 52.2791 275.5 58.283C276.546 63.6725 271.942 78.2674 270.987 81.2014C270.881 81.5291 270.95 81.8809 271.169 82.1471L273.4 84.8616C274.41 86.0903 274.62 87.8201 273.704 89.1207C272.937 90.2098 271.954 91.3236 271.047 91.5C269.816 91.7383 268.481 90.0788 267.728 88.9469C267.33 88.347 267.12 87.6456 267.115 86.9251L267.081 82.4446L266.138 60.9201C266.108 60.2408 265.849 59.5918 265.402 59.0794L259.167 51.9316Z" fill="#A5A5FE"/>
</g>
</g>
<defs>
<filter id="filter0_f_4748_6984" x="167.347" y="42.0293" width="23.9893" height="25.7892" filterUnits="userSpaceOnUse" color-interpolation-filters="sRGB">
<feFlood flood-opacity="0" result="BackgroundImageFix"/>
<feBlend mode="normal" in="SourceGraphic" in2="BackgroundImageFix" result="shape"/>
<feGaussianBlur stdDeviation="2" result="effect1_foregroundBlur_4748_6984"/>
</filter>
<filter id="filter1_f_4748_6984" x="164.005" y="45.3597" width="13.0449" height="11.2378" filterUnits="userSpaceOnUse" color-interpolation-filters="sRGB">
<feFlood flood-opacity="0" result="BackgroundImageFix"/>
<feBlend mode="normal" in="SourceGraphic" in2="BackgroundImageFix" result="shape"/>
<feGaussianBlur stdDeviation="2" result="effect1_foregroundBlur_4748_6984"/>
</filter>
<clipPath id="clip0_4748_6984">
<rect width="320" height="138" rx="10" fill="white"/>
</clipPath>
</defs>
</svg>
