<svg width="340" height="158" viewBox="0 0 340 158" fill="none" xmlns="http://www.w3.org/2000/svg">
<g filter="url(#filter0_d_4955_6410)">
<g clip-path="url(#clip0_4955_6410)">
<rect x="10" y="8" width="320" height="138" rx="10" fill="#CACACA"/>
<g filter="url(#filter1_d_4955_6410)">
<path d="M209.922 94.7638C202.175 68.3348 197.36 41.1338 195.563 13.6516L195.194 8H20C14.4771 8 10 12.4772 10 18V136C10 141.523 14.4772 146 20 146H220.652C218.432 128.721 214.853 111.589 209.922 94.7638Z" fill="#6B6B6B"/>
</g>
<path d="M280.646 43.9353C278.191 44.965 277.869 46.5193 277.559 49.3371C277.277 51.9031 276.099 56.087 269.822 57.7976C263.545 59.5083 261.847 61.0026 259.152 65.2881C256.458 69.5739 254.919 70.1084 250.479 71.5664C245.12 73.3256 244.376 78.8963 247.805 78.5134C251.737 78.0742 253.778 78.0273 255.396 79.6516C257.013 81.2759 258.335 82.7744 261.964 81.411C265.593 80.0476 266.964 81.6608 268.777 82.9142C270.589 84.1676 273.57 85.4652 278.668 81.0575C283.36 77.0005 282.387 74.4664 283.773 69.9662C285.16 65.4662 287.676 62.3401 288.082 55.5343C288.488 48.7285 287.244 46.4122 285.962 45.131C284.679 43.8501 282.825 43.0214 280.646 43.9353Z" fill="#6B6B6B"/>
<path d="M283.631 46.9361C284.091 47.3454 283.749 47.747 283.494 48.2705C283.49 48.3132 285.001 53.0108 285.037 53.0261C284.269 53.0064 281.539 54.4555 281.554 54.42C281.247 53.227 282.547 50.4907 282.547 50.4907C282.547 50.4907 282.71 50.765 281.168 50.741C280.19 50.7259 279.479 46.1138 279.483 46.7931C279.467 46.8348 282.741 47.4847 282.727 47.2143C282.713 46.944 283.29 46.6322 283.631 46.9361Z" fill="#AFAFAF"/>
<path d="M194.431 111.325C194.767 111.618 195.257 111.653 195.631 111.411L200.762 108.091L202.015 107.279L204.371 105.755L199.439 98.5615L197.247 100.047L193.391 102.659C193.173 102.807 192.905 102.863 192.646 102.814L186.065 101.579C185.063 101.391 184.455 102.647 185.224 103.316L194.431 111.325Z" fill="white"/>
<path d="M200.778 108.114L202.032 107.302C202.032 107.301 197.264 100.07 197.264 100.07L200.778 108.114Z" fill="#6B6B6B"/>
<path d="M267.47 83.4967C267.47 83.4967 244.398 77.0873 232.708 74.5291C228.414 73.5889 196.781 99.3648 196.781 99.3648L202.429 108.349C202.429 108.349 225.341 90.1614 227.031 90.4274C237.198 92.0095 256.638 99.1666 256.638 99.1666L267.47 83.4967Z" fill="#848486"/>
<path d="M199.201 97.2844L204.983 106.237L199.201 97.2844Z" fill="#7575FF"/>
<path d="M199.201 97.2844L204.983 106.237" stroke="white" stroke-miterlimit="10"/>
<path d="M199.664 103.636C199.664 103.636 228.239 82.4904 230.179 82.1182C232.2 81.5773 249 84.0001 249 84.0001" fill="#848486"/>
<path d="M199.664 103.636C199.664 103.636 228.239 82.4904 230.179 82.1182C232.2 81.5773 249 84.0001 249 84.0001" stroke="white" stroke-miterlimit="10"/>
<path d="M206.336 127.039C205.386 127.408 205.531 128.796 206.538 128.959L218.584 130.91C219.024 130.982 219.458 130.753 219.648 130.35L222.449 124.419L222.997 123.259L224.093 120.937L216.111 117.424L215.156 119.561L213.132 124.095C213.024 124.335 212.826 124.524 212.58 124.619L206.336 127.039Z" fill="white"/>
<path d="M215.133 119.594L222.426 124.451L222.974 123.291L215.133 119.594Z" fill="#6B6B6B"/>
<path d="M233.727 80.1548C237.765 78.5046 238.436 78.6445 244.348 79.4787C252.025 80.5614 274.546 84.2716 274.546 84.2716C275.589 83.3819 276.539 82.5901 277.395 81.8704L292.031 97.7107C285.275 104.277 274.951 104.828 269.712 103.49C264.284 102.104 240.319 95.6927 240.319 95.6927L224.587 124.18L213.037 118.56C213.037 118.56 229.69 81.8052 233.727 80.1548Z" fill="#AFAFAF"/>
<path d="M287.112 88.2576C283.266 91.9307 281.545 95.6651 268.608 92.9702C255.672 90.2755 243.589 87.9873 241.53 87.6671C238.696 87.2259 237.836 88.1137 234.745 89.5324C231.653 90.9511 218.742 121.114 218.742 121.114" stroke="white" stroke-miterlimit="10"/>
<path d="M214.953 114.328L226.552 120.403" stroke="white" stroke-miterlimit="10"/>
<path d="M282.432 73.4447C280.376 67.7553 278.652 61.5387 279.38 58.4912C280.109 55.4438 281.727 51.5024 291.223 52.3696C296.7 52.8697 298.837 72.26 298.5 80.4472C298.444 88.5392 295.79 94.0561 292.03 97.7103L277.394 81.8702C281.666 78.2751 283.536 76.4953 282.432 73.4447Z" fill="white"/>
<path d="M251.646 101.059L291.484 111.539L291.984 109.638C292.153 108.997 291.77 108.342 291.13 108.173L253.611 98.303C252.97 98.1344 252.315 98.517 252.146 99.1573L251.646 101.059Z" fill="#6B6B6B"/>
<path d="M317.38 -8L275.408 77.3915L263.299 101.839" stroke="#585858" stroke-width="2" stroke-linejoin="round"/>
<path d="M285.425 107.796L275.457 77.309" stroke="#585858" stroke-width="2" stroke-linejoin="round"/>
<path d="M284.551 70.1832C280.247 71.0431 277.793 71.5456 276.32 71.8955C275.541 72.0803 275.462 72.3977 276.241 72.5022C277.02 72.6065 278.032 72.6102 278.032 72.6102C277.672 72.6941 276.694 72.8621 276.471 73.1163C276.282 73.3311 276.179 73.5972 276.211 73.8825C276.24 74.1366 276.399 74.2215 276.633 74.2468C276.663 74.25 276.692 74.2532 276.721 74.2568C276.618 74.2438 276.466 74.2954 276.365 74.3219C276.275 74.3456 276.188 74.3784 276.106 74.4219C275.904 74.5296 275.763 74.7785 275.72 74.9996C275.689 75.163 275.678 75.3615 275.776 75.507C275.886 75.6695 276.133 75.743 276.318 75.7642C276.117 75.7412 275.906 75.768 275.718 75.8408C275.553 75.9046 275.429 76.0465 275.363 76.2075C275.299 76.362 275.262 76.5926 275.364 76.7387C275.446 76.8563 275.619 76.9024 275.75 76.9324C275.936 76.9751 276.125 77.0023 276.312 77.0431C276.834 77.1569 277.357 77.2685 277.88 77.3778C278.933 77.5973 279.988 77.8068 281.044 78.0068C282.684 78.3174 284.328 78.6044 285.976 78.8669L285.877 69.9459C285.426 70.0277 284.983 70.1069 284.551 70.1832Z" fill="#AFAFAF"/>
<path d="M309.902 66.6426C309.902 66.6426 326.755 69.3582 320.92 76.291C314.838 83.517 285.83 78.9202 285.83 78.9202L285.806 70.0808L309.902 66.6426Z" fill="white"/>
<path d="M285.96 70.0476C287.988 69.6702 306.716 66.2119 309.903 66.6425" stroke="#585858" stroke-linecap="round" stroke-linejoin="round"/>
<path d="M290.99 52.4368C298.435 51.4033 320.133 60.5814 322.811 69.9813C324.209 74.8902 318.454 78.7799 314.621 78.5608C310.706 78.3369 308.688 73.9482 307.971 73.6841C304.697 72.478 289.23 67.2313 288.581 65.6281C287.931 64.0249 287.97 52.8559 290.99 52.4368Z" fill="white"/>
<path d="M296.794 69.4789C293.038 68.0763 289.622 66.6932 288.766 65.8727" stroke="#585858" stroke-linecap="round"/>
<path d="M51.144 49.688H55.536V47.072H43.392V49.688H47.976V50.912C47.976 54.56 46.176 58.712 42.552 60.392L44.328 62.912C46.848 61.712 48.624 59.288 49.608 56.408C50.592 59.024 52.32 61.232 54.768 62.36L56.52 59.864C52.896 58.184 51.144 54.272 51.144 50.912V49.688ZM63.552 53.384H60.336V44.96H57.168V67.064H60.336V56H63.552V53.384ZM75.0941 47.48C78.3101 47.48 79.8221 47.936 79.8221 48.92C79.8221 49.952 78.3101 50.384 75.0941 50.384C71.9021 50.384 70.3901 49.952 70.3901 48.92C70.3901 47.936 71.9021 47.48 75.0941 47.48ZM75.0941 52.688C80.1581 52.688 83.1101 51.368 83.1101 48.92C83.1101 46.496 80.1581 45.152 75.0941 45.152C70.0541 45.152 67.1021 46.496 67.1021 48.92C67.1021 51.368 70.0541 52.688 75.0941 52.688ZM76.9901 57.584H73.2461V56.048H76.9901V57.584ZM85.1021 56.048V53.552H65.0861V56.048H70.0781V57.584H67.3661V59.912H79.5341V61.088H67.4141V66.896H83.2301V64.52H70.5581V63.272H82.6541V57.584H80.1581V56.048H85.1021Z" fill="white"/>
<path d="M43.26 78.39V79.965H47.595C47.4 81.48 45.945 82.83 42.6 83.385L43.365 84.96C47.58 84.165 49.8 82.08 49.8 78.39H43.26ZM46.44 88.875H53.43V87.495H46.44V86.685H53.58V85.245H44.475V91.125H53.865V89.7H46.44V88.875ZM53.52 80.295V77.46H51.54V84.69H53.52V81.93H55.35V80.295H53.52ZM62.6838 79.44C64.5438 79.44 65.6538 79.89 65.6538 80.73C65.6538 81.585 64.5438 82.005 62.6838 82.005C60.8388 82.005 59.7288 81.585 59.7288 80.73C59.7288 79.89 60.8388 79.44 62.6838 79.44ZM62.6838 83.58C65.6988 83.58 67.6938 82.485 67.6938 80.73C67.6938 78.975 65.6988 77.88 62.6838 77.88C59.6838 77.88 57.6888 78.975 57.6888 80.73C57.6888 82.485 59.6838 83.58 62.6838 83.58ZM59.9388 87.03H57.9588V91.05H67.5288V89.475H59.9388V87.03ZM56.4438 84.525V86.1H68.9238V84.525H56.4438ZM81.5191 83.4C81.8341 81.66 81.8341 80.295 81.8341 79.335V78.48H74.7391V80.055H79.8841C79.8691 80.88 79.8091 81.885 79.5841 83.175L81.5191 83.4ZM82.4341 83.955C81.1441 84.135 79.7641 84.24 78.3991 84.3V81.69H76.4641V84.375C75.5641 84.39 74.7091 84.39 73.9441 84.39L74.1241 85.965C76.4941 85.95 79.7041 85.89 82.5541 85.365L82.4341 83.955ZM77.9341 86.895H75.9541V91.05H85.5991V89.475H77.9341V86.895ZM85.1641 81.675V77.46H83.1841V87.81H85.1641V83.31H86.8141V81.675H85.1641ZM96.398 83.25C94.163 82.605 93.188 80.985 93.188 79.32V77.985H91.178V79.32C91.178 81.015 90.188 82.77 87.878 83.49L88.838 85.05C90.458 84.54 91.583 83.49 92.213 82.17C92.828 83.385 93.893 84.33 95.453 84.795L96.398 83.25ZM92.168 87.465H97.478V89.58H92.168V87.465ZM90.218 91.125H99.413V85.92H90.218V91.125ZM97.418 77.475V85.275H99.413V77.475H97.418ZM106.822 78.54H104.827V80.55C104.827 83.115 103.777 85.755 101.452 86.85L102.637 88.455C104.197 87.69 105.232 86.235 105.832 84.48C106.402 86.13 107.377 87.465 108.817 88.2L110.017 86.64C107.797 85.545 106.822 83.04 106.822 80.55V78.54ZM114.562 82.785H112.552V77.475H110.572V91.29H112.552V84.435H114.562V82.785ZM124.566 79.725H117.096V83.025H126.756V81.69H119.046V80.97H126.516V77.715H117.066V79.05H124.566V79.725ZM118.926 89.085H126.561V85.8H116.946V87.135H124.596V87.84H116.961V91.17H126.936V89.835H118.926V89.085ZM115.536 83.685V85.11H128.046V83.685H115.536ZM133.861 78.885V80.49H138.376C138.016 83.55 136.306 85.74 133.096 87.39L134.206 88.905C138.796 86.58 140.371 83.025 140.371 78.885H133.861ZM145.981 82.74H144.046V77.46H142.066V91.26H144.046V84.375H145.981V82.74ZM158.505 77.475H156.51V87.465H158.505V77.475ZM155.64 84.24C153.405 83.505 152.4 81.81 152.4 80.19V80.025H155.13V78.465H147.615V80.025H150.39V80.19C150.39 81.915 149.385 83.73 147.09 84.45L148.095 85.995C149.7 85.47 150.81 84.405 151.425 83.055C152.055 84.285 153.105 85.275 154.635 85.755L155.64 84.24ZM151.29 89.475V86.565H149.31V91.05H158.85V89.475H151.29ZM50.775 98.69H47.7V97.4H45.705V98.69H42.645V100.25H50.775V98.69ZM45.21 103.22C45.21 102.53 45.81 102.185 46.71 102.185C47.595 102.185 48.21 102.53 48.21 103.22C48.21 103.925 47.595 104.27 46.71 104.27C45.81 104.27 45.21 103.925 45.21 103.22ZM50.1 103.22C50.1 101.72 48.705 100.685 46.71 100.685C44.73 100.685 43.32 101.72 43.32 103.22C43.32 104.735 44.73 105.77 46.71 105.77C48.705 105.77 50.1 104.735 50.1 103.22ZM44.31 108.29H51.54V111.305H53.52V106.7H44.31V108.29ZM55.35 101.03H53.52V97.49H51.54V106.13H53.52V102.665H55.35V101.03ZM65.2638 102.425H66.3438V105.92H68.2188V97.475H66.3438V100.835H65.2638V97.73H63.4188V105.485H65.2638V102.425ZM63.4038 103.61C61.5888 102.875 60.8388 101.39 60.8388 99.905V98.3H58.9338V99.905C58.9338 101.465 58.1838 103.175 56.2488 104.015L57.2988 105.545C58.5738 105.005 59.4288 104.015 59.9238 102.845C60.4188 103.835 61.2138 104.66 62.3538 105.11L63.4038 103.61ZM63.5388 109.805C61.7388 109.805 60.7488 109.445 60.7488 108.71C60.7488 107.975 61.7388 107.615 63.5388 107.615C65.3088 107.615 66.2988 107.975 66.2988 108.71C66.2988 109.445 65.3088 109.805 63.5388 109.805ZM63.5388 106.13C60.6288 106.13 58.7688 107.105 58.7688 108.71C58.7688 110.33 60.6288 111.29 63.5388 111.29C66.4338 111.29 68.2788 110.33 68.2788 108.71C68.2788 107.105 66.4338 106.13 63.5388 106.13ZM81.2677 100.535H73.7677V99.32H81.1627V97.745H71.8027V102.095H81.2677V100.535ZM73.6477 108.83H81.2077V105.17H71.6677V106.655H79.2577V107.435H71.6827V111.17H81.5677V109.655H73.6477V108.83ZM70.2577 102.83V104.39H82.7527V102.83H70.2577ZM93.5065 97.46V111.32H95.4865V97.46H93.5065ZM88.0615 98.435C85.9765 98.435 84.4315 100.325 84.4315 103.355C84.4315 106.4 85.9765 108.305 88.0615 108.305C90.1465 108.305 91.6915 106.4 91.6915 103.355C91.6915 100.325 90.1465 98.435 88.0615 98.435ZM88.0615 100.22C89.0815 100.22 89.7865 101.315 89.7865 103.355C89.7865 105.41 89.0815 106.505 88.0615 106.505C87.0415 106.505 86.3365 105.41 86.3365 103.355C86.3365 101.315 87.0415 100.22 88.0615 100.22ZM104.992 100.055H110.947V103.715H104.992V100.055ZM108.967 108.08V105.275H112.882V98.495H103.057V105.275H106.987V108.08H101.737V109.685H114.247V108.08H108.967ZM127.011 97.49H125.016V107.405H127.011V97.49ZM117.666 101.87C117.666 100.73 118.476 100.07 119.496 100.07C120.531 100.07 121.311 100.73 121.311 101.87C121.311 102.98 120.531 103.655 119.496 103.655C118.476 103.655 117.666 102.98 117.666 101.87ZM123.246 101.87C123.246 99.83 121.611 98.36 119.496 98.36C117.381 98.36 115.731 99.83 115.731 101.87C115.731 103.88 117.381 105.365 119.496 105.365C121.611 105.365 123.246 103.88 123.246 101.87ZM119.796 109.475V106.43H117.816V111.05H127.356V109.475H119.796ZM139.441 109.805C137.596 109.805 136.651 109.49 136.651 108.77C136.651 108.05 137.596 107.72 139.441 107.72C141.286 107.72 142.231 108.05 142.231 108.77C142.231 109.49 141.286 109.805 139.441 109.805ZM139.441 106.22C136.456 106.22 134.656 107.135 134.656 108.77C134.656 110.39 136.456 111.305 139.441 111.305C142.426 111.305 144.241 110.39 144.241 108.77C144.241 107.135 142.426 106.22 139.441 106.22ZM140.476 103.97V102.83H144.316V101.255H136.726V99.635H144.241V98.06H134.761V102.83H138.496V103.97H133.246V105.545H145.741V103.97H140.476ZM150.735 106.505C149.7 106.505 149.01 105.41 149.01 103.355C149.01 101.315 149.7 100.22 150.735 100.22C151.755 100.22 152.46 101.315 152.46 103.355C152.46 105.41 151.755 106.505 150.735 106.505ZM150.735 98.435C148.635 98.435 147.105 100.325 147.105 103.355C147.105 106.4 148.635 108.305 150.735 108.305C152.82 108.305 154.365 106.4 154.365 103.355C154.365 100.325 152.82 98.435 150.735 98.435ZM159.855 102.68H157.845V97.475H155.865V111.29H157.845V104.315H159.855V102.68ZM163.589 103.985H168.074V98.645H161.549V100.22H166.049V102.425H161.564V108.11H162.809C165.314 108.11 167.339 108.02 169.589 107.63L169.379 106.025C167.429 106.355 165.689 106.46 163.589 106.475V103.985ZM170.339 97.46V111.32H172.319V97.46H170.339Z" fill="white"/>
</g>
</g>
<defs>
<filter id="filter0_d_4955_6410" x="0" y="0" width="340" height="158" filterUnits="userSpaceOnUse" color-interpolation-filters="sRGB">
<feFlood flood-opacity="0" result="BackgroundImageFix"/>
<feColorMatrix in="SourceAlpha" type="matrix" values="0 0 0 0 0 0 0 0 0 0 0 0 0 0 0 0 0 0 127 0" result="hardAlpha"/>
<feOffset dy="2"/>
<feGaussianBlur stdDeviation="5"/>
<feComposite in2="hardAlpha" operator="out"/>
<feColorMatrix type="matrix" values="0 0 0 0 0 0 0 0 0 0 0 0 0 0 0 0 0 0 1 0"/>
<feBlend mode="normal" in2="BackgroundImageFix" result="effect1_dropShadow_4955_6410"/>
<feBlend mode="normal" in="SourceGraphic" in2="effect1_dropShadow_4955_6410" result="shape"/>
</filter>
<filter id="filter1_d_4955_6410" x="-12" y="-16" width="258.652" height="186" filterUnits="userSpaceOnUse" color-interpolation-filters="sRGB">
<feFlood flood-opacity="0" result="BackgroundImageFix"/>
<feColorMatrix in="SourceAlpha" type="matrix" values="0 0 0 0 0 0 0 0 0 0 0 0 0 0 0 0 0 0 127 0" result="hardAlpha"/>
<feOffset dx="2"/>
<feGaussianBlur stdDeviation="12"/>
<feComposite in2="hardAlpha" operator="out"/>
<feColorMatrix type="matrix" values="0 0 0 0 0 0 0 0 0 0 0 0 0 0 0 0 0 0 0.3 0"/>
<feBlend mode="normal" in2="BackgroundImageFix" result="effect1_dropShadow_4955_6410"/>
<feBlend mode="normal" in="SourceGraphic" in2="effect1_dropShadow_4955_6410" result="shape"/>
</filter>
<clipPath id="clip0_4955_6410">
<rect x="10" y="8" width="320" height="138" rx="10" fill="white"/>
</clipPath>
</defs>
</svg>
