<svg width="320" height="138" viewBox="0 0 320 138" fill="none" xmlns="http://www.w3.org/2000/svg">
<g style="mix-blend-mode:luminosity">
<g clip-path="url(#clip0_4748_6657)">
<rect width="320" height="138" rx="10" fill="#BEBEFF"/>
<path d="M199.922 86.7638C192.175 60.3348 187.36 33.1338 185.563 5.65155L185.194 0H9.99999C4.47714 0 0 4.47715 0 10V128C0 133.523 4.47716 138 10 138H210.652C208.432 120.721 204.853 103.589 199.922 86.7638Z" fill="#5959FF"/>
<path d="M270.646 35.9352C268.191 36.9649 267.869 38.5192 267.559 41.337C267.277 43.903 266.099 48.0869 259.822 49.7974C253.545 51.5082 251.847 53.0025 249.152 57.2879C246.458 61.5738 244.919 62.1083 240.479 63.5663C235.12 65.3255 234.376 70.8962 237.805 70.5132C241.737 70.0741 243.778 70.0272 245.396 71.6515C247.013 73.2758 248.335 74.7743 251.964 73.4109C255.593 72.0475 256.964 73.6607 258.777 74.9141C260.589 76.1674 263.57 77.4651 268.668 73.0574C273.36 69.0003 272.387 66.4663 273.773 61.9661C275.16 57.466 277.676 54.34 278.082 47.5342C278.488 40.7284 277.244 38.412 275.962 37.1309C274.679 35.85 272.825 35.0213 270.646 35.9352Z" fill="#5959FF"/>
<path d="M273.631 38.9359C274.091 39.3452 273.749 39.7468 273.494 40.2702C273.49 40.313 275.001 45.0105 275.037 45.0259C274.269 45.0061 271.539 46.4552 271.554 46.4197C271.247 45.2267 272.547 42.4904 272.547 42.4904C272.547 42.4904 272.71 42.7648 271.168 42.7408C270.19 42.7256 269.479 38.1136 269.483 38.7928C269.467 38.8345 272.741 39.4845 272.727 39.2141C272.713 38.9437 273.29 38.632 273.631 38.9359Z" fill="#A5A5FE"/>
<path d="M184.431 103.326C184.767 103.618 185.257 103.653 185.631 103.411L190.762 100.091L192.015 99.2789L194.371 97.755L189.439 90.5616L187.247 92.047L183.391 94.6595C183.173 94.8075 182.905 94.8632 182.646 94.8145L176.065 93.5788C175.063 93.3907 174.455 94.647 175.224 95.3161L184.431 103.326Z" fill="white"/>
<path d="M190.778 100.114L192.032 99.3021C192.032 99.3015 187.264 92.0702 187.264 92.0702L190.778 100.114Z" fill="#5959FF"/>
<path d="M257.47 75.4967C257.47 75.4967 234.398 69.0873 222.708 66.5291C218.414 65.5889 186.781 91.3648 186.781 91.3648L192.429 100.349C192.429 100.349 215.341 82.1614 217.031 82.4274C227.198 84.0095 246.638 91.1666 246.638 91.1666L257.47 75.4967Z" fill="#7575FF"/>
<path d="M189.201 89.2843L194.983 98.237L189.201 89.2843Z" fill="#7575FF"/>
<path d="M189.201 89.2843L194.983 98.237" stroke="white" stroke-miterlimit="10"/>
<path d="M189.664 95.6357C189.664 95.6357 218.239 74.4903 220.179 74.1181C222.2 73.5772 239 76 239 76" fill="#7575FF"/>
<path d="M189.664 95.6357C189.664 95.6357 218.239 74.4903 220.179 74.1181C222.2 73.5772 239 76 239 76" stroke="white" stroke-miterlimit="10"/>
<path d="M196.336 119.04C195.386 119.408 195.531 120.796 196.538 120.959L208.584 122.911C209.024 122.982 209.458 122.753 209.648 122.35L212.449 116.419L212.997 115.259L214.093 112.937L206.111 109.424L205.156 111.562L203.132 116.095C203.024 116.336 202.826 116.524 202.58 116.619L196.336 119.04Z" fill="white"/>
<path d="M205.133 111.594L212.426 116.452L212.974 115.291L205.133 111.594Z" fill="#5959FF"/>
<path d="M223.727 72.1547C227.765 70.5045 228.436 70.6444 234.348 71.4786C242.025 72.5613 264.546 76.2714 264.546 76.2714C265.589 75.3818 266.539 74.59 267.395 73.8703L282.031 89.7106C275.275 96.2765 264.951 96.8276 259.712 95.4899C254.284 94.1035 230.319 87.6926 230.319 87.6926L214.587 116.18L203.037 110.56C203.037 110.56 219.69 73.805 223.727 72.1547Z" fill="#A5A5FE"/>
<path d="M277.112 80.2575C273.266 83.9306 271.545 87.665 258.608 84.9701C245.672 82.2754 233.589 79.9872 231.53 79.667C228.696 79.2258 227.836 80.1136 224.745 81.5323C221.653 82.951 208.742 113.114 208.742 113.114" stroke="white" stroke-miterlimit="10"/>
<path d="M204.953 106.327L216.552 112.403" stroke="white" stroke-miterlimit="10"/>
<path d="M272.432 65.4447C270.376 59.7553 268.652 53.5387 269.38 50.4912C270.109 47.4438 271.727 43.5024 281.223 44.3696C286.7 44.8697 288.837 64.26 288.5 72.4472C288.444 80.5392 285.79 86.0561 282.03 89.7103L267.394 73.8702C271.666 70.2751 273.536 68.4953 272.432 65.4447Z" fill="white"/>
<path d="M241.646 93.0587L281.484 103.539L281.984 101.638C282.153 100.997 281.77 100.342 281.13 100.173L243.611 90.303C242.97 90.1344 242.315 90.517 242.146 91.1573L241.646 93.0587Z" fill="#5959FF"/>
<path d="M307.38 -16L265.408 69.3915L253.299 93.8395" stroke="#4343FE" stroke-width="2" stroke-linejoin="round"/>
<path d="M275.425 99.7965L265.457 69.309" stroke="#4343FE" stroke-width="2" stroke-linejoin="round"/>
<path d="M274.551 62.1833C270.247 63.0432 267.793 63.5457 266.32 63.8956C265.541 64.0804 265.462 64.3978 266.241 64.5023C267.02 64.6066 268.032 64.6104 268.032 64.6104C267.672 64.6942 266.694 64.8622 266.471 65.1164C266.282 65.3312 266.179 65.5973 266.211 65.8826C266.24 66.1367 266.399 66.2216 266.633 66.2469C266.663 66.2501 266.692 66.2533 266.721 66.257C266.618 66.2439 266.466 66.2955 266.365 66.322C266.275 66.3457 266.188 66.3785 266.106 66.4221C265.904 66.5297 265.763 66.7787 265.72 66.9997C265.689 67.1631 265.678 67.3616 265.776 67.5072C265.886 67.6696 266.133 67.7431 266.318 67.7644C266.117 67.7413 265.906 67.7681 265.718 67.8409C265.553 67.9047 265.429 68.0466 265.363 68.2076C265.299 68.3621 265.262 68.5927 265.364 68.7388C265.446 68.8564 265.619 68.9026 265.75 68.9325C265.936 68.9752 266.125 69.0024 266.312 69.0432C266.834 69.157 267.357 69.2686 267.88 69.3779C268.933 69.5974 269.988 69.8069 271.044 70.0069C272.684 70.3175 274.328 70.6045 275.976 70.8671L275.877 61.9461C275.426 62.0278 274.983 62.107 274.551 62.1833Z" fill="#A5A5FE"/>
<path d="M299.902 58.6425C299.902 58.6425 316.755 61.3581 310.92 68.2909C304.838 75.5168 275.83 70.9201 275.83 70.9201L275.806 62.0807L299.902 58.6425Z" fill="white"/>
<path d="M275.96 62.0476C277.988 61.6702 296.716 58.2119 299.903 58.6425" stroke="#4343FE" stroke-linecap="round" stroke-linejoin="round"/>
<path d="M280.99 44.4368C288.435 43.4033 310.133 52.5814 312.811 61.9813C314.209 66.8902 308.454 70.7799 304.621 70.5608C300.706 70.3369 298.688 65.9482 297.971 65.6841C294.697 64.478 279.23 59.2313 278.581 57.6281C277.931 56.0249 277.97 44.8559 280.99 44.4368Z" fill="white"/>
<path d="M286.794 61.4789C283.038 60.0763 279.622 58.6932 278.766 57.8727" stroke="#4343FE" stroke-linecap="round"/>
<path d="M41.144 41.688H45.536V39.072H33.392V41.688H37.976V42.912C37.976 46.56 36.176 50.712 32.552 52.392L34.328 54.912C36.848 53.712 38.624 51.288 39.608 48.408C40.592 51.024 42.32 53.232 44.768 54.36L46.52 51.864C42.896 50.184 41.144 46.272 41.144 42.912V41.688ZM53.552 45.384H50.336V36.96H47.168V59.064H50.336V48H53.552V45.384ZM65.0941 39.48C68.3101 39.48 69.8221 39.936 69.8221 40.92C69.8221 41.952 68.3101 42.384 65.0941 42.384C61.9021 42.384 60.3901 41.952 60.3901 40.92C60.3901 39.936 61.9021 39.48 65.0941 39.48ZM65.0941 44.688C70.1581 44.688 73.1101 43.368 73.1101 40.92C73.1101 38.496 70.1581 37.152 65.0941 37.152C60.0541 37.152 57.1021 38.496 57.1021 40.92C57.1021 43.368 60.0541 44.688 65.0941 44.688ZM66.9901 49.584H63.2461V48.048H66.9901V49.584ZM75.1021 48.048V45.552H55.0861V48.048H60.0781V49.584H57.3661V51.912H69.5341V53.088H57.4141V58.896H73.2301V56.52H60.5581V55.272H72.6541V49.584H70.1581V48.048H75.1021Z" fill="white"/>
<path d="M33.26 70.39V71.965H37.595C37.4 73.48 35.945 74.83 32.6 75.385L33.365 76.96C37.58 76.165 39.8 74.08 39.8 70.39H33.26ZM36.44 80.875H43.43V79.495H36.44V78.685H43.58V77.245H34.475V83.125H43.865V81.7H36.44V80.875ZM43.52 72.295V69.46H41.54V76.69H43.52V73.93H45.35V72.295H43.52ZM52.6838 71.44C54.5438 71.44 55.6538 71.89 55.6538 72.73C55.6538 73.585 54.5438 74.005 52.6838 74.005C50.8388 74.005 49.7288 73.585 49.7288 72.73C49.7288 71.89 50.8388 71.44 52.6838 71.44ZM52.6838 75.58C55.6988 75.58 57.6938 74.485 57.6938 72.73C57.6938 70.975 55.6988 69.88 52.6838 69.88C49.6838 69.88 47.6888 70.975 47.6888 72.73C47.6888 74.485 49.6838 75.58 52.6838 75.58ZM49.9388 79.03H47.9588V83.05H57.5288V81.475H49.9388V79.03ZM46.4438 76.525V78.1H58.9238V76.525H46.4438ZM71.5191 75.4C71.8341 73.66 71.8341 72.295 71.8341 71.335V70.48H64.7391V72.055H69.8841C69.8691 72.88 69.8091 73.885 69.5841 75.175L71.5191 75.4ZM72.4341 75.955C71.1441 76.135 69.7641 76.24 68.3991 76.3V73.69H66.4641V76.375C65.5641 76.39 64.7091 76.39 63.9441 76.39L64.1241 77.965C66.4941 77.95 69.7041 77.89 72.5541 77.365L72.4341 75.955ZM67.9341 78.895H65.9541V83.05H75.5991V81.475H67.9341V78.895ZM75.1641 73.675V69.46H73.1841V79.81H75.1641V75.31H76.8141V73.675H75.1641ZM86.398 75.25C84.163 74.605 83.188 72.985 83.188 71.32V69.985H81.178V71.32C81.178 73.015 80.188 74.77 77.878 75.49L78.838 77.05C80.458 76.54 81.583 75.49 82.213 74.17C82.828 75.385 83.893 76.33 85.453 76.795L86.398 75.25ZM82.168 79.465H87.478V81.58H82.168V79.465ZM80.218 83.125H89.413V77.92H80.218V83.125ZM87.418 69.475V77.275H89.413V69.475H87.418ZM96.8218 70.54H94.8268V72.55C94.8268 75.115 93.7768 77.755 91.4518 78.85L92.6368 80.455C94.1968 79.69 95.2318 78.235 95.8318 76.48C96.4018 78.13 97.3768 79.465 98.8168 80.2L100.017 78.64C97.7968 77.545 96.8218 75.04 96.8218 72.55V70.54ZM104.562 74.785H102.552V69.475H100.572V83.29H102.552V76.435H104.562V74.785ZM114.566 71.725H107.096V75.025H116.756V73.69H109.046V72.97H116.516V69.715H107.066V71.05H114.566V71.725ZM108.926 81.085H116.561V77.8H106.946V79.135H114.596V79.84H106.961V83.17H116.936V81.835H108.926V81.085ZM105.536 75.685V77.11H118.046V75.685H105.536ZM123.861 70.885V72.49H128.376C128.016 75.55 126.306 77.74 123.096 79.39L124.206 80.905C128.796 78.58 130.371 75.025 130.371 70.885H123.861ZM135.981 74.74H134.046V69.46H132.066V83.26H134.046V76.375H135.981V74.74ZM148.505 69.475H146.51V79.465H148.505V69.475ZM145.64 76.24C143.405 75.505 142.4 73.81 142.4 72.19V72.025H145.13V70.465H137.615V72.025H140.39V72.19C140.39 73.915 139.385 75.73 137.09 76.45L138.095 77.995C139.7 77.47 140.81 76.405 141.425 75.055C142.055 76.285 143.105 77.275 144.635 77.755L145.64 76.24ZM141.29 81.475V78.565H139.31V83.05H148.85V81.475H141.29ZM40.775 90.69H37.7V89.4H35.705V90.69H32.645V92.25H40.775V90.69ZM35.21 95.22C35.21 94.53 35.81 94.185 36.71 94.185C37.595 94.185 38.21 94.53 38.21 95.22C38.21 95.925 37.595 96.27 36.71 96.27C35.81 96.27 35.21 95.925 35.21 95.22ZM40.1 95.22C40.1 93.72 38.705 92.685 36.71 92.685C34.73 92.685 33.32 93.72 33.32 95.22C33.32 96.735 34.73 97.77 36.71 97.77C38.705 97.77 40.1 96.735 40.1 95.22ZM34.31 100.29H41.54V103.305H43.52V98.7H34.31V100.29ZM45.35 93.03H43.52V89.49H41.54V98.13H43.52V94.665H45.35V93.03ZM55.2638 94.425H56.3438V97.92H58.2188V89.475H56.3438V92.835H55.2638V89.73H53.4188V97.485H55.2638V94.425ZM53.4038 95.61C51.5888 94.875 50.8388 93.39 50.8388 91.905V90.3H48.9338V91.905C48.9338 93.465 48.1838 95.175 46.2488 96.015L47.2988 97.545C48.5738 97.005 49.4288 96.015 49.9238 94.845C50.4188 95.835 51.2138 96.66 52.3538 97.11L53.4038 95.61ZM53.5388 101.805C51.7388 101.805 50.7488 101.445 50.7488 100.71C50.7488 99.975 51.7388 99.615 53.5388 99.615C55.3088 99.615 56.2988 99.975 56.2988 100.71C56.2988 101.445 55.3088 101.805 53.5388 101.805ZM53.5388 98.13C50.6288 98.13 48.7688 99.105 48.7688 100.71C48.7688 102.33 50.6288 103.29 53.5388 103.29C56.4338 103.29 58.2788 102.33 58.2788 100.71C58.2788 99.105 56.4338 98.13 53.5388 98.13ZM71.2677 92.535H63.7677V91.32H71.1627V89.745H61.8027V94.095H71.2677V92.535ZM63.6477 100.83H71.2077V97.17H61.6677V98.655H69.2577V99.435H61.6827V103.17H71.5677V101.655H63.6477V100.83ZM60.2577 94.83V96.39H72.7527V94.83H60.2577ZM83.5065 89.46V103.32H85.4865V89.46H83.5065ZM78.0615 90.435C75.9765 90.435 74.4315 92.325 74.4315 95.355C74.4315 98.4 75.9765 100.305 78.0615 100.305C80.1465 100.305 81.6915 98.4 81.6915 95.355C81.6915 92.325 80.1465 90.435 78.0615 90.435ZM78.0615 92.22C79.0815 92.22 79.7865 93.315 79.7865 95.355C79.7865 97.41 79.0815 98.505 78.0615 98.505C77.0415 98.505 76.3365 97.41 76.3365 95.355C76.3365 93.315 77.0415 92.22 78.0615 92.22ZM94.9918 92.055H100.947V95.715H94.9918V92.055ZM98.9668 100.08V97.275H102.882V90.495H93.0568V97.275H96.9868V100.08H91.7368V101.685H104.247V100.08H98.9668ZM117.011 89.49H115.016V99.405H117.011V89.49ZM107.666 93.87C107.666 92.73 108.476 92.07 109.496 92.07C110.531 92.07 111.311 92.73 111.311 93.87C111.311 94.98 110.531 95.655 109.496 95.655C108.476 95.655 107.666 94.98 107.666 93.87ZM113.246 93.87C113.246 91.83 111.611 90.36 109.496 90.36C107.381 90.36 105.731 91.83 105.731 93.87C105.731 95.88 107.381 97.365 109.496 97.365C111.611 97.365 113.246 95.88 113.246 93.87ZM109.796 101.475V98.43H107.816V103.05H117.356V101.475H109.796ZM129.441 101.805C127.596 101.805 126.651 101.49 126.651 100.77C126.651 100.05 127.596 99.72 129.441 99.72C131.286 99.72 132.231 100.05 132.231 100.77C132.231 101.49 131.286 101.805 129.441 101.805ZM129.441 98.22C126.456 98.22 124.656 99.135 124.656 100.77C124.656 102.39 126.456 103.305 129.441 103.305C132.426 103.305 134.241 102.39 134.241 100.77C134.241 99.135 132.426 98.22 129.441 98.22ZM130.476 95.97V94.83H134.316V93.255H126.726V91.635H134.241V90.06H124.761V94.83H128.496V95.97H123.246V97.545H135.741V95.97H130.476ZM140.735 98.505C139.7 98.505 139.01 97.41 139.01 95.355C139.01 93.315 139.7 92.22 140.735 92.22C141.755 92.22 142.46 93.315 142.46 95.355C142.46 97.41 141.755 98.505 140.735 98.505ZM140.735 90.435C138.635 90.435 137.105 92.325 137.105 95.355C137.105 98.4 138.635 100.305 140.735 100.305C142.82 100.305 144.365 98.4 144.365 95.355C144.365 92.325 142.82 90.435 140.735 90.435ZM149.855 94.68H147.845V89.475H145.865V103.29H147.845V96.315H149.855V94.68ZM153.589 95.985H158.074V90.645H151.549V92.22H156.049V94.425H151.564V100.11H152.809C155.314 100.11 157.339 100.02 159.589 99.63L159.379 98.025C157.429 98.355 155.689 98.46 153.589 98.475V95.985ZM160.339 89.46V103.32H162.319V89.46H160.339Z" fill="white"/>
</g>
</g>
<defs>
<clipPath id="clip0_4748_6657">
<rect width="320" height="138" rx="10" fill="white"/>
</clipPath>
</defs>
</svg>
