<svg width="340" height="158" viewBox="0 0 340 158" fill="none" xmlns="http://www.w3.org/2000/svg">
<g filter="url(#filter0_d_3558_42409)">
<g clip-path="url(#clip0_3558_42409)">
<rect x="10" y="8" width="320" height="138" rx="10" fill="#BEBEFF"/>
<g filter="url(#filter1_d_3558_42409)">
<path d="M209.922 94.7638C202.175 68.3348 197.36 41.1338 195.563 13.6516L195.194 8H20C14.4771 8 10 12.4772 10 18V136C10 141.523 14.4772 146 20 146H220.652C218.432 128.721 214.853 111.589 209.922 94.7638Z" fill="#5959FF"/>
</g>
<path d="M280.647 43.9352C278.192 44.9649 277.87 46.5192 277.56 49.337C277.278 51.903 276.1 56.0869 269.823 57.7974C263.546 59.5082 261.848 61.0025 259.153 65.2879C256.459 69.5738 254.92 70.1083 250.48 71.5663C245.121 73.3255 244.377 78.8962 247.806 78.5132C251.738 78.0741 253.779 78.0272 255.397 79.6515C257.014 81.2758 258.336 82.7743 261.965 81.4109C265.594 80.0475 266.965 81.6607 268.778 82.9141C270.59 84.1674 273.571 85.4651 278.669 81.0574C283.361 77.0003 282.388 74.4663 283.774 69.9661C285.161 65.466 287.677 62.34 288.083 55.5342C288.489 48.7284 287.245 46.412 285.963 45.1309C284.68 43.85 282.826 43.0213 280.647 43.9352Z" fill="#5959FF"/>
<path d="M283.632 46.9359C284.092 47.3452 283.75 47.7468 283.495 48.2702C283.491 48.313 285.002 53.0105 285.038 53.0259C284.27 53.0061 281.54 54.4552 281.555 54.4197C281.248 53.2267 282.548 50.4904 282.548 50.4904C282.548 50.4904 282.711 50.7648 281.169 50.7408C280.191 50.7256 279.48 46.1136 279.484 46.7928C279.468 46.8345 282.742 47.4845 282.728 47.2141C282.714 46.9437 283.291 46.632 283.632 46.9359Z" fill="#A5A5FE"/>
<path d="M194.431 111.326C194.767 111.618 195.256 111.653 195.63 111.411L200.761 108.091L202.015 107.279L204.37 105.755L199.439 98.5616L197.247 100.047L193.391 102.66C193.172 102.807 192.905 102.863 192.645 102.814L186.064 101.579C185.062 101.391 184.454 102.647 185.223 103.316L194.431 111.326Z" fill="white"/>
<path d="M200.777 108.114L202.031 107.302C202.032 107.302 197.263 100.07 197.263 100.07L200.777 108.114Z" fill="#5959FF"/>
<path d="M267.471 83.4966C267.471 83.4966 244.399 77.0873 232.708 74.5291C228.415 73.5889 196.782 99.3648 196.782 99.3648L202.429 108.349C202.429 108.349 225.341 90.1614 227.031 90.4274C237.199 92.0095 256.638 99.1666 256.638 99.1666L267.471 83.4966Z" fill="#7575FF"/>
<path d="M199.201 97.2843L204.983 106.237Z" fill="#7575FF"/>
<path d="M199.201 97.2843L204.983 106.237" stroke="white" stroke-miterlimit="10"/>
<path d="M199.664 103.636C199.664 103.636 228.239 82.4903 230.179 82.1181C232.2 81.5772 249 84 249 84" fill="#7575FF"/>
<path d="M199.664 103.636C199.664 103.636 228.239 82.4903 230.179 82.1181C232.2 81.5772 249 84 249 84" stroke="white" stroke-miterlimit="10"/>
<path d="M206.336 127.04C205.386 127.408 205.531 128.796 206.538 128.959L218.584 130.911C219.024 130.982 219.458 130.753 219.648 130.35L222.449 124.419L222.997 123.259L224.093 120.937L216.111 117.424L215.156 119.562L213.132 124.095C213.024 124.336 212.826 124.524 212.58 124.619L206.336 127.04Z" fill="white"/>
<path d="M215.133 119.594L222.426 124.452L222.974 123.291L215.133 119.594Z" fill="#5959FF"/>
<path d="M233.727 80.1547C237.765 78.5045 238.436 78.6444 244.348 79.4786C252.025 80.5613 274.546 84.2714 274.546 84.2714C275.589 83.3818 276.539 82.59 277.395 81.8703L292.031 97.7106C285.275 104.276 274.951 104.828 269.712 103.49C264.284 102.104 240.319 95.6926 240.319 95.6926L224.587 124.18L213.037 118.56C213.037 118.56 229.69 81.805 233.727 80.1547Z" fill="#A5A5FE"/>
<path d="M287.111 88.2575C283.265 91.9306 281.544 95.665 268.608 92.9701C255.671 90.2754 243.588 87.9872 241.53 87.667C238.696 87.2258 237.836 88.1136 234.744 89.5323C231.653 90.951 218.741 121.114 218.741 121.114" stroke="white" stroke-miterlimit="10"/>
<path d="M214.953 114.327L226.551 120.403" stroke="white" stroke-miterlimit="10"/>
<path d="M282.432 73.4447C280.376 67.7553 278.652 61.5387 279.38 58.4912C280.109 55.4438 281.727 51.5024 291.223 52.3696C296.7 52.8697 298.837 72.26 298.5 80.4472C298.444 88.5392 295.79 94.0561 292.03 97.7103L277.394 81.8702C281.666 78.2751 283.536 76.4953 282.432 73.4447Z" fill="white"/>
<path d="M251.646 101.059L291.484 111.539L291.985 109.638C292.153 108.997 291.77 108.342 291.13 108.173L253.611 98.303C252.971 98.1344 252.315 98.517 252.147 99.1573L251.646 101.059Z" fill="#5959FF"/>
<path d="M317.38 -8L275.408 77.3915L263.3 101.839" stroke="#4343FE" stroke-width="2" stroke-linejoin="round"/>
<path d="M285.426 107.796L275.458 77.309" stroke="#4343FE" stroke-width="2" stroke-linejoin="round"/>
<path d="M284.551 70.1833C280.247 71.0432 277.793 71.5457 276.32 71.8956C275.541 72.0804 275.462 72.3978 276.241 72.5023C277.02 72.6066 278.032 72.6104 278.032 72.6104C277.672 72.6942 276.694 72.8622 276.471 73.1164C276.282 73.3312 276.179 73.5973 276.211 73.8826C276.24 74.1367 276.399 74.2216 276.633 74.2469C276.663 74.2501 276.692 74.2533 276.721 74.257C276.618 74.2439 276.466 74.2955 276.365 74.322C276.275 74.3457 276.188 74.3785 276.106 74.4221C275.904 74.5297 275.763 74.7787 275.72 74.9997C275.689 75.1631 275.678 75.3616 275.776 75.5072C275.886 75.6696 276.133 75.7431 276.318 75.7644C276.117 75.7413 275.906 75.7681 275.718 75.8409C275.553 75.9047 275.429 76.0466 275.363 76.2076C275.299 76.3621 275.262 76.5927 275.364 76.7388C275.446 76.8564 275.619 76.9026 275.75 76.9325C275.936 76.9752 276.125 77.0024 276.312 77.0432C276.834 77.157 277.357 77.2686 277.88 77.3779C278.933 77.5974 279.988 77.8069 281.044 78.0069C282.684 78.3175 284.328 78.6045 285.976 78.8671L285.877 69.9461C285.426 70.0278 284.983 70.107 284.551 70.1833Z" fill="#A5A5FE"/>
<path d="M309.903 66.6425C309.903 66.6425 326.755 69.3581 320.92 76.2909C314.839 83.5168 285.83 78.9201 285.83 78.9201L285.807 70.0807L309.903 66.6425Z" fill="white"/>
<path d="M285.961 70.0476C287.989 69.6702 306.717 66.2119 309.903 66.6425" stroke="#4343FE" stroke-linecap="round" stroke-linejoin="round"/>
<path d="M290.99 52.4368C298.435 51.4033 320.133 60.5814 322.811 69.9813C324.209 74.8902 318.454 78.7799 314.621 78.5608C310.706 78.3369 308.688 73.9482 307.971 73.6841C304.697 72.478 289.23 67.2313 288.581 65.6281C287.931 64.0249 287.97 52.8559 290.99 52.4368Z" fill="white"/>
<path d="M296.794 69.4789C293.038 68.0763 289.622 66.6932 288.766 65.8727" stroke="#4343FE" stroke-linecap="round"/>
<path d="M50.382 49.964H54.408V47.566H43.276V49.964H47.478V51.086C47.478 54.43 45.828 58.236 42.506 59.776L44.134 62.086C46.444 60.986 48.072 58.764 48.974 56.124C49.876 58.522 51.46 60.546 53.704 61.58L55.31 59.292C51.988 57.752 50.382 54.166 50.382 51.086V49.964ZM61.756 53.352H58.808V45.63H55.904V65.892H58.808V55.75H61.756V53.352ZM72.3363 47.94C75.2843 47.94 76.6703 48.358 76.6703 49.26C76.6703 50.206 75.2843 50.602 72.3363 50.602C69.4103 50.602 68.0243 50.206 68.0243 49.26C68.0243 48.358 69.4103 47.94 72.3363 47.94ZM72.3363 52.714C76.9783 52.714 79.6843 51.504 79.6843 49.26C79.6843 47.038 76.9783 45.806 72.3363 45.806C67.7163 45.806 65.0103 47.038 65.0103 49.26C65.0103 51.504 67.7163 52.714 72.3363 52.714ZM74.0743 57.202H70.6423V55.794H74.0743V57.202ZM81.5103 55.794V53.506H63.1623V55.794H67.7383V57.202H65.2523V59.336H76.4063V60.414H65.2963V65.738H79.7943V63.56H68.1783V62.416H79.2663V57.202H76.9783V55.794H81.5103Z" fill="white"/>
<path d="M51.436 78.296V91.232H53.284V78.296H51.436ZM43.232 79.332V88.222H49.588V79.332H47.754V82.454H45.066V79.332H43.232ZM45.066 83.896H47.754V86.752H45.066V83.896ZM66.5549 82.202C63.6849 81.852 62.2569 80.312 62.2569 78.94V78.548H60.3529V78.94C60.3529 80.326 58.9389 81.852 56.0549 82.202L56.7409 83.658C58.9249 83.336 60.4929 82.384 61.3049 81.11C62.1309 82.384 63.7129 83.336 65.8829 83.658L66.5549 82.202ZM62.2429 86.5H60.3529V86.738C60.3529 88.082 59.1069 89.384 56.2369 89.734L56.9229 91.162C59.0229 90.882 60.5209 90.056 61.3049 88.894C62.0749 90.056 63.5729 90.882 65.6729 91.162L66.3589 89.734C63.5029 89.384 62.2429 88.082 62.2429 86.738V86.5ZM55.4809 84.358V85.814H67.1289V84.358H55.4809ZM75.9618 79.668H73.0778V78.296H71.2158V79.668H68.3598V81.11H75.9478L75.9618 79.668ZM70.7538 84.05C70.7538 83.35 71.3278 82.972 72.1538 82.972C72.9658 82.972 73.5538 83.35 73.5538 84.05C73.5538 84.764 72.9658 85.142 72.1538 85.142C71.3278 85.142 70.7538 84.764 70.7538 84.05ZM75.3178 84.05C75.3178 82.594 74.0018 81.572 72.1538 81.572C70.3058 81.572 68.9898 82.594 68.9898 84.05C68.9898 85.534 70.3058 86.542 72.1538 86.542C74.0018 86.542 75.3178 85.534 75.3178 84.05ZM72.0418 87.242H70.1938V90.98H78.9718V89.51H72.0418V87.242ZM78.5098 82.244V78.31H76.6618V87.956H78.5098V83.77H80.2178V82.244H78.5098ZM91.7634 83.84C92.0574 82.216 92.0574 80.942 92.0574 80.046V79.248H85.4354V80.718H90.2374C90.2234 81.488 90.1674 82.426 89.9574 83.63L91.7634 83.84ZM92.6174 84.358C91.4134 84.526 90.1254 84.624 88.8514 84.68V82.244H87.0454V84.75C86.2054 84.764 85.4074 84.764 84.6934 84.764L84.8614 86.234C87.0734 86.22 90.0694 86.164 92.7294 85.674L92.6174 84.358ZM88.4174 87.102H86.5694V90.98H95.5714V89.51H88.4174V87.102ZM95.1654 82.23V78.296H93.3174V87.956H95.1654V83.756H96.7054V82.23H95.1654ZM105.65 83.7C103.564 83.098 102.654 81.586 102.654 80.032V78.786H100.778V80.032C100.778 81.614 99.8543 83.252 97.6983 83.924L98.5943 85.38C100.106 84.904 101.156 83.924 101.744 82.692C102.318 83.826 103.312 84.708 104.768 85.142L105.65 83.7ZM101.702 87.634H106.658V89.608H101.702V87.634ZM99.8823 91.05H108.464V86.192H99.8823V91.05ZM106.602 78.31V85.59H108.464V78.31H106.602ZM115.379 79.304H113.517V81.18C113.517 83.574 112.537 86.038 110.367 87.06L111.473 88.558C112.929 87.844 113.895 86.486 114.455 84.848C114.987 86.388 115.897 87.634 117.241 88.32L118.361 86.864C116.289 85.842 115.379 83.504 115.379 81.18V79.304ZM122.603 83.266H120.727V78.31H118.879V91.204H120.727V84.806H122.603V83.266ZM131.94 80.41H124.968V83.49H133.984V82.244H126.788V81.572H133.76V78.534H124.94V79.78H131.94V80.41ZM126.676 89.146H133.802V86.08H124.828V87.326H131.968V87.984H124.842V91.092H134.152V89.846H126.676V89.146ZM123.512 84.106V85.436H135.188V84.106H123.512ZM140.616 79.626V81.124H144.83C144.494 83.98 142.898 86.024 139.902 87.564L140.938 88.978C145.222 86.808 146.692 83.49 146.692 79.626H140.616ZM151.928 83.224H150.122V78.296H148.274V91.176H150.122V84.75H151.928V83.224ZM163.617 78.31H161.755V87.634H163.617V78.31ZM160.943 84.624C158.857 83.938 157.919 82.356 157.919 80.844V80.69H160.467V79.234H153.453V80.69H156.043V80.844C156.043 82.454 155.105 84.148 152.963 84.82L153.901 86.262C155.399 85.772 156.435 84.778 157.009 83.518C157.597 84.666 158.577 85.59 160.005 86.038L160.943 84.624ZM156.883 89.51V86.794H155.035V90.98H163.939V89.51H156.883ZM50.19 98.444H47.32V97.24H45.458V98.444H42.602V99.9H50.19V98.444ZM44.996 102.672C44.996 102.028 45.556 101.706 46.396 101.706C47.222 101.706 47.796 102.028 47.796 102.672C47.796 103.33 47.222 103.652 46.396 103.652C45.556 103.652 44.996 103.33 44.996 102.672ZM49.56 102.672C49.56 101.272 48.258 100.306 46.396 100.306C44.548 100.306 43.232 101.272 43.232 102.672C43.232 104.086 44.548 105.052 46.396 105.052C48.258 105.052 49.56 104.086 49.56 102.672ZM44.156 107.404H50.904V110.218H52.752V105.92H44.156V107.404ZM54.46 100.628H52.752V97.324H50.904V105.388H52.752V102.154H54.46V100.628ZM63.7129 101.93H64.7209V105.192H66.4709V97.31H64.7209V100.446H63.7129V97.548H61.9909V104.786H63.7129V101.93ZM61.9769 103.036C60.2829 102.35 59.5829 100.964 59.5829 99.578V98.08H57.8049V99.578C57.8049 101.034 57.1049 102.63 55.2989 103.414L56.2789 104.842C57.4689 104.338 58.2669 103.414 58.7289 102.322C59.1909 103.246 59.9329 104.016 60.9969 104.436L61.9769 103.036ZM62.1029 108.818C60.4229 108.818 59.4989 108.482 59.4989 107.796C59.4989 107.11 60.4229 106.774 62.1029 106.774C63.7549 106.774 64.6789 107.11 64.6789 107.796C64.6789 108.482 63.7549 108.818 62.1029 108.818ZM62.1029 105.388C59.3869 105.388 57.6509 106.298 57.6509 107.796C57.6509 109.308 59.3869 110.204 62.1029 110.204C64.8049 110.204 66.5269 109.308 66.5269 107.796C66.5269 106.298 64.8049 105.388 62.1029 105.388ZM77.1938 97.296V110.232H79.0418V97.296H77.1938ZM72.1118 98.206C70.1658 98.206 68.7238 99.97 68.7238 102.798C68.7238 105.64 70.1658 107.418 72.1118 107.418C74.0578 107.418 75.4998 105.64 75.4998 102.798C75.4998 99.97 74.0578 98.206 72.1118 98.206ZM72.1118 99.872C73.0638 99.872 73.7218 100.894 73.7218 102.798C73.7218 104.716 73.0638 105.738 72.1118 105.738C71.1598 105.738 70.5018 104.716 70.5018 102.798C70.5018 100.894 71.1598 99.872 72.1118 99.872ZM87.9134 99.718H93.4714V103.134H87.9134V99.718ZM91.6234 107.208V104.59H95.2774V98.262H86.1074V104.59H89.7754V107.208H84.8754V108.706H96.5514V107.208H91.6234ZM108.464 97.324H106.602V106.578H108.464V97.324ZM99.7423 101.412C99.7423 100.348 100.498 99.732 101.45 99.732C102.416 99.732 103.144 100.348 103.144 101.412C103.144 102.448 102.416 103.078 101.45 103.078C100.498 103.078 99.7423 102.448 99.7423 101.412ZM104.95 101.412C104.95 99.508 103.424 98.136 101.45 98.136C99.4763 98.136 97.9363 99.508 97.9363 101.412C97.9363 103.288 99.4763 104.674 101.45 104.674C103.424 104.674 104.95 103.288 104.95 101.412ZM101.73 108.51V105.668H99.8823V109.98H108.786V108.51H101.73ZM120.066 108.818C118.344 108.818 117.462 108.524 117.462 107.852C117.462 107.18 118.344 106.872 120.066 106.872C121.788 106.872 122.67 107.18 122.67 107.852C122.67 108.524 121.788 108.818 120.066 108.818ZM120.066 105.472C117.28 105.472 115.6 106.326 115.6 107.852C115.6 109.364 117.28 110.218 120.066 110.218C122.852 110.218 124.546 109.364 124.546 107.852C124.546 106.326 122.852 105.472 120.066 105.472ZM121.032 103.372V102.308H124.616V100.838H117.532V99.326H124.546V97.856H115.698V102.308H119.184V103.372H114.284V104.842H125.946V103.372H121.032ZM130.607 105.738C129.641 105.738 128.997 104.716 128.997 102.798C128.997 100.894 129.641 99.872 130.607 99.872C131.559 99.872 132.217 100.894 132.217 102.798C132.217 104.716 131.559 105.738 130.607 105.738ZM130.607 98.206C128.647 98.206 127.219 99.97 127.219 102.798C127.219 105.64 128.647 107.418 130.607 107.418C132.553 107.418 133.995 105.64 133.995 102.798C133.995 99.97 132.553 98.206 130.607 98.206ZM139.119 102.168H137.243V97.31H135.395V110.204H137.243V103.694H139.119V102.168ZM142.604 103.386H146.79V98.402H140.7V99.872H144.9V101.93H140.714V107.236H141.876C144.214 107.236 146.104 107.152 148.204 106.788L148.008 105.29C146.188 105.598 144.564 105.696 142.604 105.71V103.386ZM148.904 97.296V110.232H150.752V97.296H148.904Z" fill="white"/>
</g>
</g>
<defs>
<filter id="filter0_d_3558_42409" x="0" y="0" width="340" height="158" filterUnits="userSpaceOnUse" color-interpolation-filters="sRGB">
<feFlood flood-opacity="0" result="BackgroundImageFix"/>
<feColorMatrix in="SourceAlpha" type="matrix" values="0 0 0 0 0 0 0 0 0 0 0 0 0 0 0 0 0 0 127 0" result="hardAlpha"/>
<feOffset dy="2"/>
<feGaussianBlur stdDeviation="5"/>
<feComposite in2="hardAlpha" operator="out"/>
<feColorMatrix type="matrix" values="0 0 0 0 0 0 0 0 0 0 0 0 0 0 0 0 0 0 1 0"/>
<feBlend mode="normal" in2="BackgroundImageFix" result="effect1_dropShadow_3558_42409"/>
<feBlend mode="normal" in="SourceGraphic" in2="effect1_dropShadow_3558_42409" result="shape"/>
</filter>
<filter id="filter1_d_3558_42409" x="-12" y="-16" width="258.652" height="186" filterUnits="userSpaceOnUse" color-interpolation-filters="sRGB">
<feFlood flood-opacity="0" result="BackgroundImageFix"/>
<feColorMatrix in="SourceAlpha" type="matrix" values="0 0 0 0 0 0 0 0 0 0 0 0 0 0 0 0 0 0 127 0" result="hardAlpha"/>
<feOffset dx="2"/>
<feGaussianBlur stdDeviation="12"/>
<feComposite in2="hardAlpha" operator="out"/>
<feColorMatrix type="matrix" values="0 0 0 0 0.34902 0 0 0 0 0.34902 0 0 0 0 1 0 0 0 0.3 0"/>
<feBlend mode="normal" in2="BackgroundImageFix" result="effect1_dropShadow_3558_42409"/>
<feBlend mode="normal" in="SourceGraphic" in2="effect1_dropShadow_3558_42409" result="shape"/>
</filter>
<clipPath id="clip0_3558_42409">
<rect x="10" y="8" width="320" height="138" rx="10" fill="white"/>
</clipPath>
</defs>
</svg>
