<svg width="340" height="158" viewBox="0 0 340 158" fill="none" xmlns="http://www.w3.org/2000/svg">
<g filter="url(#filter0_d_3189_5502)">
<g clip-path="url(#clip0_3189_5502)">
<rect x="10" y="8" width="320" height="138" rx="10" fill="#BEBEFF"/>
<g filter="url(#filter1_d_3189_5502)">
<path d="M10 -136C10 -141.523 14.4772 -146 20 -146H187.475L190.716 -60.5L195.563 13.6515C197.36 41.1337 202.175 68.3348 209.922 94.7638V94.7638C225.081 146.481 227.461 201.105 216.859 253.945L207.618 300H20C14.4771 300 10 295.523 10 290V-136Z" fill="#5959FF"/>
</g>
<path d="M47.952 41.3006V43.7966C47.952 47.4446 46.152 51.5966 42.48 53.3246L44.28 55.8446C48.36 53.9246 50.472 48.8126 50.472 43.7966V41.3006H47.952ZM48.624 41.3006V43.7966C48.624 48.5246 50.688 53.3966 54.768 55.2926L56.52 52.7726C52.872 51.0926 51.144 47.1566 51.144 43.7966V41.3006H48.624ZM43.344 39.9326V42.5486H55.536V39.9326H43.344ZM57.168 37.7966V60.0206H60.384V37.7966H57.168ZM59.664 46.2686V48.9086H63.6V46.2686H59.664ZM70.0541 47.6366V51.9086H73.2221V47.6366H70.0541ZM76.9901 47.6366V51.9086H80.1581V47.6366H76.9901ZM75.0941 38.0126C70.0061 38.0126 67.0541 39.3326 67.0541 41.7806C67.0541 44.2286 70.0061 45.5726 75.0941 45.5726C80.1581 45.5726 83.1341 44.2286 83.1341 41.7806C83.1341 39.3326 80.1581 38.0126 75.0941 38.0126ZM75.0941 40.3406C78.3101 40.3406 79.8221 40.7966 79.8221 41.7806C79.8221 42.8126 78.3101 43.2446 75.0941 43.2446C71.8781 43.2446 70.3661 42.8126 70.3661 41.7806C70.3661 40.7966 71.8781 40.3406 75.0941 40.3406ZM65.0381 46.4606V48.9566H85.1261V46.4606H65.0381ZM67.3421 50.4926V52.8686H79.5581V53.9966H67.3661V58.1726H70.5101V56.2046H82.7021V50.4926H67.3421ZM67.3661 57.4766V59.8766H83.2781V57.4766H67.3661Z" fill="white"/>
<path d="M45.968 75.6459V77.3099C45.968 79.7419 44.768 82.5099 42.32 83.6619L43.52 85.3419C46.24 84.0619 47.648 80.6539 47.648 77.3099V75.6459H45.968ZM46.416 75.6459V77.3099C46.416 80.4619 47.792 83.7099 50.512 84.9739L51.68 83.2939C49.248 82.1739 48.096 79.5499 48.096 77.3099V75.6459H46.416ZM42.896 74.7339V76.4779H51.024V74.7339H42.896ZM52.112 73.3099V88.1259H54.256V73.3099H52.112ZM53.776 78.9579V80.7179H56.4V78.9579H53.776ZM60.7028 79.8699V82.7179H62.8148V79.8699H60.7028ZM65.3268 79.8699V82.7179H67.4388V79.8699H65.3268ZM64.0628 73.4539C60.6708 73.4539 58.7028 74.3339 58.7028 75.9659C58.7028 77.5979 60.6708 78.4939 64.0628 78.4939C67.4388 78.4939 69.4228 77.5979 69.4228 75.9659C69.4228 74.3339 67.4388 73.4539 64.0628 73.4539ZM64.0628 75.0059C66.2068 75.0059 67.2148 75.3099 67.2148 75.9659C67.2148 76.6539 66.2068 76.9419 64.0628 76.9419C61.9188 76.9419 60.9108 76.6539 60.9108 75.9659C60.9108 75.3099 61.9188 75.0059 64.0628 75.0059ZM57.3588 79.0859V80.7499H70.7508V79.0859H57.3588ZM58.8948 81.7739V83.3579H67.0388V84.1099H58.9108V86.8939H61.0068V85.5819H69.1348V81.7739H58.8948ZM58.9108 86.4299V88.0299H69.5188V86.4299H58.9108ZM76.2498 80.2699V81.9659H89.6578V80.2699H76.2498ZM81.8978 78.0459V80.9259H84.0098V78.0459H81.8978ZM77.8658 77.3739V79.0539H88.1378V77.3739H77.8658ZM77.8658 73.9499V78.4459H79.9778V75.6139H88.0578V73.9499H77.8658ZM82.9058 82.7019C79.7057 82.7019 77.7538 83.6779 77.7538 85.4219C77.7538 87.1659 79.7057 88.1419 82.9058 88.1419C86.1058 88.1419 88.0418 87.1659 88.0418 85.4219C88.0418 83.6779 86.1058 82.7019 82.9058 82.7019ZM82.9058 84.3019C84.8898 84.3019 85.8978 84.6699 85.8978 85.4219C85.8978 86.1899 84.8898 86.5259 82.9058 86.5259C80.9218 86.5259 79.9138 86.1899 79.9138 85.4219C79.9138 84.6699 80.9218 84.3019 82.9058 84.3019ZM94.9205 74.3339C92.6645 74.3339 91.0325 76.3819 91.0325 79.6139C91.0325 82.8779 92.6645 84.9259 94.9205 84.9259C97.1765 84.9259 98.8085 82.8779 98.8085 79.6139C98.8085 76.3819 97.1765 74.3339 94.9205 74.3339ZM94.9205 76.2699C96.0245 76.2699 96.7765 77.4379 96.7765 79.6139C96.7765 81.8219 96.0245 83.0059 94.9205 83.0059C93.8165 83.0059 93.0805 81.8219 93.0805 79.6139C93.0805 77.4379 93.8165 76.2699 94.9205 76.2699ZM100.425 73.3099V88.1259H102.569V73.3099H100.425ZM102.089 78.8939V80.6539H104.713V78.8939H102.089ZM115.879 73.2939V88.1579H118.007V73.2939H115.879ZM106.471 82.9739V84.7019H107.783C110.487 84.7019 112.663 84.6219 115.063 84.1899L114.855 82.4779C112.503 82.8779 110.407 82.9739 107.783 82.9739H106.471ZM106.455 74.5579V76.2539H111.271V78.6059H106.471V83.6139H108.631V80.2859H113.447V74.5579H106.455ZM130.466 78.7659V80.4779H132.898V78.7659H130.466ZM135.25 73.3099V88.1259H137.282V73.3099H135.25ZM132.226 73.5339V87.4539H134.226V73.5339H132.226ZM127.874 74.3499C125.922 74.3499 124.674 76.3819 124.674 79.7259C124.674 83.0859 125.922 85.1179 127.874 85.1179C129.842 85.1179 131.106 83.0859 131.106 79.7259C131.106 76.3819 129.842 74.3499 127.874 74.3499ZM127.874 76.3499C128.706 76.3499 129.17 77.4699 129.17 79.7259C129.17 81.9979 128.706 83.1019 127.874 83.1019C127.074 83.1019 126.61 81.9979 126.61 79.7259C126.61 77.4699 127.074 76.3499 127.874 76.3499ZM144.077 74.3819V76.0939H150.413V74.3819H144.077ZM145.901 77.8379V81.5499H148.013V77.8379H145.901ZM149.581 74.3819V75.3099C149.581 76.3339 149.581 77.6139 149.261 79.4379L151.325 79.6619C151.677 77.8219 151.677 76.3499 151.677 75.3099V74.3819H149.581ZM153.117 73.3099V84.3979H155.261V73.3099H153.117ZM154.413 77.8219V79.5659H157.021V77.8219H154.413ZM145.373 86.1739V87.8699H155.725V86.1739H145.373ZM145.373 83.4059V86.7019H147.501V83.4059H145.373ZM143.405 82.4139C145.949 82.4139 149.389 82.3499 152.445 81.7739L152.317 80.2699C149.341 80.6859 145.773 80.7339 143.213 80.7339L143.405 82.4139ZM167.676 73.3259V84.3979H169.804V73.3259H167.676ZM169.196 77.8379V79.5819H171.772V77.8379H169.196ZM158.14 74.8619V76.5259H166.86V74.8619H158.14ZM162.508 77.0539C160.364 77.0539 158.86 78.2219 158.86 79.9179C158.86 81.6139 160.364 82.7659 162.508 82.7659C164.636 82.7659 166.14 81.6139 166.14 79.9179C166.14 78.2219 164.636 77.0539 162.508 77.0539ZM162.508 78.6699C163.452 78.6699 164.108 79.1179 164.108 79.9179C164.108 80.7179 163.452 81.1499 162.508 81.1499C161.564 81.1499 160.908 80.7179 160.908 79.9179C160.908 79.1179 161.564 78.6699 162.508 78.6699ZM161.436 73.2939V75.6779H163.564V73.2939H161.436ZM160.252 86.1739V87.8699H170.332V86.1739H160.252ZM160.252 83.5659V86.9099H162.38V83.5659H160.252ZM52.16 95.3099V105.918H54.304V95.3099H52.16ZM53.696 99.4379V101.182H56.272V99.4379H53.696ZM48.032 96.4139V97.4699C48.032 99.8219 46.16 101.806 42.528 102.798L43.424 104.494C47.84 103.214 50.304 100.446 50.304 96.4139H48.032ZM43.168 96.4139V98.1259H49.184V96.4139H43.168ZM44.72 108.174V109.87H54.8V108.174H44.72ZM44.72 104.846V108.926H46.864V104.846H44.72ZM66.8948 95.3099V106.014H69.0228V95.3099H66.8948ZM68.4148 99.3419V101.086H70.9908V99.3419H68.4148ZM57.9188 101.886V103.598H59.1508C62.4468 103.598 64.1428 103.518 65.9508 103.118L65.7428 101.438C63.9668 101.822 62.3668 101.886 59.1508 101.886H57.9188ZM57.9188 96.4779V102.798H60.0308V98.1899H64.5428V96.4779H57.9188ZM59.4708 108.174V109.87H69.5508V108.174H59.4708ZM59.4708 104.894V109.038H61.5988V104.894H59.4708ZM81.6135 95.3259V106.398H83.7415V95.3259H81.6135ZM83.1335 99.8379V101.582H85.7095V99.8379H83.1335ZM72.0775 96.8619V98.5259H80.7975V96.8619H72.0775ZM76.4455 99.0539C74.3015 99.0539 72.7975 100.222 72.7975 101.918C72.7975 103.614 74.3015 104.766 76.4455 104.766C78.5735 104.766 80.0775 103.614 80.0775 101.918C80.0775 100.222 78.5735 99.0539 76.4455 99.0539ZM76.4455 100.67C77.3895 100.67 78.0455 101.118 78.0455 101.918C78.0455 102.718 77.3895 103.15 76.4455 103.15C75.5015 103.15 74.8455 102.718 74.8455 101.918C74.8455 101.118 75.5015 100.67 76.4455 100.67ZM75.3735 95.2939V97.6779H77.5015V95.2939H75.3735ZM74.1895 108.174V109.87H84.2695V108.174H74.1895ZM74.1895 105.566V108.91H76.3175V105.566H74.1895ZM98.5205 97.4699V99.1659H102.169V97.4699H98.5205ZM101.225 95.3099V102.83H103.353V95.3099H101.225ZM93.5605 103.454V105.086H101.241V105.902H93.5925V109.294H95.6885V107.438H103.353V103.454H93.5605ZM93.5925 108.318V109.966H103.769V108.318H93.5925ZM94.3445 95.7899V96.8459C94.3445 98.7339 93.3045 100.542 90.8405 101.278L91.9285 102.958C94.7605 102.062 96.0725 99.6459 96.0725 96.8459V95.7899H94.3445ZM94.7605 95.7899V96.8459C94.7605 99.5019 96.0245 101.79 98.7285 102.67L99.8165 101.022C97.4805 100.318 96.4885 98.6059 96.4885 96.8459V95.7899H94.7605ZM112.839 97.4539V99.1339H116.615V97.4539H112.839ZM112.839 100.414V102.11H116.679V100.414H112.839ZM115.943 95.3099V103.982H118.071V95.3099H115.943ZM106.279 96.3819V103.182H113.287V96.3819H106.279ZM111.191 98.0619V101.518H108.375V98.0619H111.191ZM113.047 104.366C109.911 104.366 107.975 105.438 107.975 107.246C107.975 109.07 109.911 110.126 113.047 110.126C116.183 110.126 118.119 109.07 118.119 107.246C118.119 105.438 116.183 104.366 113.047 104.366ZM113.047 105.998C114.983 105.998 116.007 106.398 116.007 107.246C116.007 108.094 114.983 108.51 113.047 108.51C111.127 108.51 110.103 108.094 110.103 107.246C110.103 106.398 111.127 105.998 113.047 105.998Z" fill="white"/>
<path d="M280.647 43.9352C278.192 44.9649 277.87 46.5192 277.56 49.3371C277.278 51.903 276.1 56.0869 269.823 57.7975C263.546 59.5082 261.848 61.0025 259.153 65.288C256.459 69.5738 254.92 70.1084 250.48 71.5663C245.121 73.3256 244.377 78.8963 247.806 78.5133C251.738 78.0742 253.779 78.0272 255.397 79.6515C257.014 81.2758 258.336 82.7743 261.965 81.4109C265.594 80.0475 266.965 81.6608 268.778 82.9142C270.59 84.1675 273.571 85.4651 278.669 81.0574C283.361 77.0004 282.388 74.4664 283.774 69.9661C285.161 65.4661 287.677 62.3401 288.083 55.5343C288.489 48.7284 287.245 46.4121 285.963 45.1309C284.68 43.85 282.826 43.0213 280.647 43.9352Z" fill="#5959FF"/>
<path d="M283.632 46.936C284.092 47.3452 283.75 47.7468 283.495 48.2703C283.491 48.313 285.002 53.0106 285.038 53.0259C284.27 53.0062 281.54 54.4553 281.555 54.4198C281.248 53.2268 282.548 50.4905 282.548 50.4905C282.548 50.4905 282.711 50.7648 281.169 50.7408C280.191 50.7257 279.48 46.1136 279.484 46.7929C279.468 46.8346 282.742 47.4845 282.728 47.2142C282.714 46.9438 283.291 46.632 283.632 46.936Z" fill="#A5A5FE"/>
<path d="M194.431 111.326C194.767 111.618 195.256 111.653 195.63 111.411L200.761 108.091L202.015 107.279L204.37 105.755L199.439 98.5616L197.247 100.047L193.391 102.66C193.172 102.807 192.905 102.863 192.645 102.814L186.064 101.579C185.062 101.391 184.454 102.647 185.223 103.316L194.431 111.326Z" fill="white"/>
<path d="M200.777 108.114L202.031 107.302C202.032 107.302 197.263 100.07 197.263 100.07L200.777 108.114Z" fill="#5959FF"/>
<path d="M267.471 83.4966C267.471 83.4966 244.399 77.0873 232.708 74.5291C228.415 73.5889 196.782 99.3648 196.782 99.3648L202.429 108.349C202.429 108.349 225.341 90.1614 227.031 90.4274C237.199 92.0095 256.638 99.1666 256.638 99.1666L267.471 83.4966Z" fill="#7575FF"/>
<path d="M199.201 97.2844L204.983 106.237Z" fill="#7575FF"/>
<path d="M199.201 97.2844L204.983 106.237" stroke="white" stroke-miterlimit="10"/>
<path d="M199.664 103.636C199.664 103.636 228.239 82.4903 230.179 82.1182C232.2 81.5772 249 84 249 84" fill="#7575FF"/>
<path d="M199.664 103.636C199.664 103.636 228.239 82.4903 230.179 82.1182C232.2 81.5772 249 84 249 84" stroke="white" stroke-miterlimit="10"/>
<path d="M206.336 127.04C205.386 127.408 205.531 128.796 206.538 128.959L218.584 130.911C219.024 130.982 219.458 130.753 219.648 130.35L222.449 124.419L222.997 123.259L224.093 120.937L216.111 117.424L215.156 119.562L213.132 124.095C213.024 124.336 212.826 124.524 212.58 124.619L206.336 127.04Z" fill="white"/>
<path d="M215.133 119.594L222.426 124.452L222.974 123.291L215.133 119.594Z" fill="#5959FF"/>
<path d="M233.727 80.1547C237.765 78.5046 238.436 78.6444 244.348 79.4786C252.025 80.5613 274.546 84.2715 274.546 84.2715C275.589 83.3818 276.539 82.59 277.395 81.8703L292.031 97.7106C285.275 104.276 274.951 104.828 269.712 103.49C264.284 102.104 240.319 95.6927 240.319 95.6927L224.587 124.18L213.037 118.56C213.037 118.56 229.69 81.8051 233.727 80.1547Z" fill="#A5A5FE"/>
<path d="M287.111 88.2575C283.265 91.9306 281.544 95.665 268.608 92.9701C255.671 90.2754 243.588 87.9873 241.53 87.667C238.696 87.2258 237.836 88.1136 234.744 89.5323C231.653 90.951 218.741 121.114 218.741 121.114" stroke="white" stroke-miterlimit="10"/>
<path d="M214.953 114.328L226.551 120.403" stroke="white" stroke-miterlimit="10"/>
<path d="M282.432 73.4447C280.376 67.7553 278.652 61.5387 279.38 58.4911C280.109 55.4438 281.727 51.5024 291.223 52.3696C296.7 52.8697 298.837 72.26 298.5 80.4472C298.444 88.5392 295.79 94.0561 292.03 97.7102L277.394 81.8701C281.666 78.2751 283.536 76.4953 282.432 73.4447Z" fill="white"/>
<path d="M251.646 101.059L291.484 111.539L291.985 109.638C292.153 108.997 291.77 108.342 291.13 108.173L253.611 98.303C252.971 98.1343 252.315 98.517 252.147 99.1573L251.646 101.059Z" fill="#5959FF"/>
<path d="M317.38 -8L275.408 77.3915L263.3 101.839" stroke="#4343FE" stroke-width="2" stroke-linejoin="round"/>
<path d="M285.426 107.796L275.458 77.309" stroke="#4343FE" stroke-width="2" stroke-linejoin="round"/>
<path d="M284.551 70.1834C280.247 71.0433 277.793 71.5458 276.32 71.8957C275.541 72.0805 275.462 72.3978 276.241 72.5023C277.02 72.6067 278.032 72.6104 278.032 72.6104C277.672 72.6942 276.694 72.8622 276.471 73.1164C276.282 73.3312 276.179 73.5974 276.211 73.8827C276.24 74.1368 276.399 74.2217 276.633 74.2469C276.663 74.2501 276.692 74.2534 276.721 74.257C276.618 74.2439 276.466 74.2955 276.365 74.3221C276.275 74.3458 276.188 74.3786 276.106 74.4221C275.904 74.5298 275.763 74.7787 275.72 74.9997C275.689 75.1631 275.678 75.3616 275.776 75.5072C275.886 75.6696 276.133 75.7431 276.318 75.7644C276.117 75.7413 275.906 75.7681 275.718 75.841C275.553 75.9048 275.429 76.0466 275.363 76.2076C275.299 76.3622 275.262 76.5927 275.364 76.7388C275.446 76.8564 275.619 76.9026 275.75 76.9325C275.936 76.9752 276.125 77.0025 276.312 77.0432C276.834 77.157 277.357 77.2686 277.88 77.3779C278.933 77.5974 279.988 77.807 281.044 78.0069C282.684 78.3176 284.328 78.6045 285.976 78.8671L285.877 69.9461C285.426 70.0279 284.983 70.107 284.551 70.1834Z" fill="#A5A5FE"/>
<path d="M309.903 66.6426C309.903 66.6426 326.755 69.3582 320.92 76.291C314.839 83.5169 285.83 78.9202 285.83 78.9202L285.807 70.0808L309.903 66.6426Z" fill="white"/>
<path d="M285.961 70.0477C287.989 69.6703 306.717 66.212 309.903 66.6426" stroke="#4343FE" stroke-linecap="round" stroke-linejoin="round"/>
<path d="M290.99 52.4368C298.435 51.4033 320.133 60.5814 322.811 69.9813C324.209 74.8903 318.454 78.7799 314.621 78.5608C310.706 78.337 308.688 73.9482 307.971 73.6841C304.697 72.478 289.23 67.2313 288.581 65.6281C287.931 64.0249 287.97 52.856 290.99 52.4368Z" fill="white"/>
<path d="M296.794 69.479C293.038 68.0763 289.622 66.6932 288.766 65.8727" stroke="#4343FE" stroke-linecap="round"/>
</g>
</g>
<defs>
<filter id="filter0_d_3189_5502" x="0" y="0" width="340" height="158" filterUnits="userSpaceOnUse" color-interpolation-filters="sRGB">
<feFlood flood-opacity="0" result="BackgroundImageFix"/>
<feColorMatrix in="SourceAlpha" type="matrix" values="0 0 0 0 0 0 0 0 0 0 0 0 0 0 0 0 0 0 127 0" result="hardAlpha"/>
<feOffset dy="2"/>
<feGaussianBlur stdDeviation="5"/>
<feComposite in2="hardAlpha" operator="out"/>
<feColorMatrix type="matrix" values="0 0 0 0 0 0 0 0 0 0 0 0 0 0 0 0 0 0 1 0"/>
<feBlend mode="normal" in2="BackgroundImageFix" result="effect1_dropShadow_3189_5502"/>
<feBlend mode="normal" in="SourceGraphic" in2="effect1_dropShadow_3189_5502" result="shape"/>
</filter>
<filter id="filter1_d_3189_5502" x="-12" y="-170" width="261.367" height="494" filterUnits="userSpaceOnUse" color-interpolation-filters="sRGB">
<feFlood flood-opacity="0" result="BackgroundImageFix"/>
<feColorMatrix in="SourceAlpha" type="matrix" values="0 0 0 0 0 0 0 0 0 0 0 0 0 0 0 0 0 0 127 0" result="hardAlpha"/>
<feOffset dx="2"/>
<feGaussianBlur stdDeviation="12"/>
<feComposite in2="hardAlpha" operator="out"/>
<feColorMatrix type="matrix" values="0 0 0 0 0.34902 0 0 0 0 0.34902 0 0 0 0 1 0 0 0 0.3 0"/>
<feBlend mode="normal" in2="BackgroundImageFix" result="effect1_dropShadow_3189_5502"/>
<feBlend mode="normal" in="SourceGraphic" in2="effect1_dropShadow_3189_5502" result="shape"/>
</filter>
<clipPath id="clip0_3189_5502">
<rect x="10" y="8" width="320" height="138" rx="10" fill="white"/>
</clipPath>
</defs>
</svg>
