<svg width="343" height="98" viewBox="0 0 343 98" fill="none" xmlns="http://www.w3.org/2000/svg">
<g clip-path="url(#clip0_12289_12053)">
<rect width="343" height="98" rx="10" fill="#8BE246"/>
<path d="M21.6719 23.0938C21.6667 23.8385 21.7969 24.5859 22.0625 25.3359C22.3281 26.0859 22.7214 26.7708 23.2422 27.3906C23.7682 28.0104 24.4062 28.4948 25.1562 28.8438L24.0469 30.4062C23.2812 30.0521 22.6146 29.5391 22.0469 28.8672C21.4792 28.1901 21.0286 27.4089 20.6953 26.5234C20.3672 27.4922 19.9089 28.349 19.3203 29.0938C18.737 29.8333 18.0469 30.3906 17.25 30.7656L16.0938 29.1875C16.8542 28.8333 17.5026 28.3307 18.0391 27.6797C18.5755 27.0286 18.9792 26.3047 19.25 25.5078C19.526 24.7057 19.6667 23.901 19.6719 23.0938V22.2188H16.6562V20.5938H24.5312V22.2188H21.6719V23.0938ZM25.6406 19.2188H27.6406V24.6406H29.7344V26.3125H27.6406V33.4375H25.6406V19.2188ZM36.7344 19.3438C37.8229 19.3438 38.7526 19.4375 39.5234 19.625C40.2995 19.8125 40.8906 20.0885 41.2969 20.4531C41.7031 20.8177 41.9062 21.2604 41.9062 21.7812C41.9062 22.3021 41.7031 22.7448 41.2969 23.1094C40.8906 23.4688 40.2995 23.7422 39.5234 23.9297C38.7526 24.112 37.8229 24.2031 36.7344 24.2031C35.6406 24.2031 34.7057 24.112 33.9297 23.9297C33.1536 23.7422 32.5625 23.4688 32.1562 23.1094C31.75 22.7448 31.5469 22.3021 31.5469 21.7812C31.5469 21.2604 31.75 20.8177 32.1562 20.4531C32.5625 20.0885 33.1536 19.8125 33.9297 19.625C34.7057 19.4375 35.6406 19.3438 36.7344 19.3438ZM30.25 24.7969H43.2188V26.3594H39.9688V27.3594H41.6406V30.9844H33.7188V31.8438H42.0156V33.3438H31.7656V29.5938H39.6719V28.8125H31.75V27.3594H33.5156V26.3594H30.25V24.7969ZM33.6406 21.7812C33.6354 22.1146 33.8854 22.3594 34.3906 22.5156C34.8958 22.6667 35.6771 22.7448 36.7344 22.75C37.7969 22.7448 38.5807 22.6667 39.0859 22.5156C39.5911 22.3594 39.8438 22.1146 39.8438 21.7812C39.8438 21.4583 39.5859 21.2161 39.0703 21.0547C38.5599 20.8932 37.7812 20.8125 36.7344 20.8125C34.6667 20.8125 33.6354 21.1354 33.6406 21.7812ZM37.9844 27.3594V26.3594H35.4844V27.3594H37.9844Z" fill="black"/>
<path d="M25.3564 45.2686H27.0068V46.2461H25.3564V48.7471H24.1504V42.7041H25.3564V45.2686ZM16.4316 47.9854C17.3669 47.7949 18.1624 47.5283 18.8184 47.1855C19.4743 46.8385 19.98 46.4344 20.3354 45.9731C20.6909 45.5076 20.8962 45.002 20.9512 44.4561H16.9395V43.4912H22.2842C22.2842 44.9215 21.8229 46.1001 20.9004 47.0269C19.9779 47.9494 18.6576 48.5947 16.9395 48.9629L16.4316 47.9854ZM18.0566 49.2295H25.4072V50.1436H19.2627V51.1211H25.2803V51.9971H19.2627V53.0254H25.6611V53.9395H18.0566V49.2295ZM38.0264 49.6104H27.6543V48.6455H38.0264V49.6104ZM28.7715 45.3574C28.7715 44.8877 28.9365 44.4814 29.2666 44.1387C29.5967 43.7959 30.0685 43.5356 30.6821 43.3579C31.2957 43.1759 32.013 43.085 32.834 43.085C33.6507 43.085 34.3638 43.1759 34.9731 43.3579C35.5868 43.5356 36.0607 43.7959 36.395 44.1387C36.7293 44.4814 36.8965 44.8877 36.8965 45.3574C36.8965 45.8314 36.7293 46.2419 36.395 46.5889C36.0607 46.9359 35.5868 47.2025 34.9731 47.3887C34.3638 47.5749 33.6507 47.668 32.834 47.668C32.013 47.668 31.2957 47.5749 30.6821 47.3887C30.0685 47.2025 29.5967 46.9359 29.2666 46.5889C28.9365 46.2419 28.7715 45.8314 28.7715 45.3574ZM28.9619 50.5371H30.1807V52.8604H36.8584V53.8379H28.9619V50.5371ZM30.0156 45.3574C30.0156 45.6367 30.1278 45.8758 30.3521 46.0747C30.5763 46.2694 30.9001 46.4196 31.3232 46.5254C31.7507 46.627 32.2542 46.6777 32.834 46.6777C33.4137 46.6777 33.9152 46.627 34.3384 46.5254C34.7616 46.4196 35.0853 46.2694 35.3096 46.0747C35.5381 45.8758 35.6523 45.6367 35.6523 45.3574C35.6523 45.0908 35.5381 44.8602 35.3096 44.6655C35.0853 44.4666 34.7594 44.3143 34.332 44.2085C33.9089 44.1027 33.4095 44.0498 32.834 44.0498C32.2542 44.0498 31.7528 44.1027 31.3296 44.2085C30.9064 44.3143 30.5806 44.4666 30.3521 44.6655C30.1278 44.8602 30.0156 45.0908 30.0156 45.3574ZM48.3984 44.2021V44.3481C48.39 44.9025 48.3667 45.4272 48.3286 45.9224C48.2948 46.4132 48.2207 46.9613 48.1064 47.5664L46.9131 47.4521C47.0231 46.8893 47.0972 46.3815 47.1353 45.9287C47.1776 45.4759 47.203 45.0189 47.2114 44.5576H42.6602V43.5674H48.3984V44.2021ZM41.9746 48.5439C42.7829 48.5439 43.5573 48.5355 44.2979 48.5186V46.1191H45.4912V48.4805C46.9046 48.4212 48.1107 48.3197 49.1094 48.1758L49.1855 49.0518C48.1318 49.238 47.0189 49.3628 45.8467 49.4263C44.6745 49.4855 43.4219 49.5173 42.0889 49.5215L41.9746 48.5439ZM43.7012 50.4736H44.9072V52.8604H51.4326V53.8379H43.7012V50.4736ZM49.833 42.7041H51.0645V46.3223H52.626V47.3379H51.0645V51.248H49.833V42.7041ZM62.7314 49.1533H61.5254V42.7168H62.7314V49.1533ZM53.3496 47.9473C53.9294 47.7526 54.4351 47.467 54.8667 47.0903C55.2983 46.7095 55.6284 46.2736 55.8569 45.7827C56.0854 45.2918 56.2018 44.7819 56.2061 44.2529V43.1484H57.4375V44.2529C57.4375 44.7607 57.5518 45.2474 57.7803 45.7129C58.0088 46.1742 58.3346 46.5825 58.7578 46.938C59.1852 47.2935 59.6846 47.5664 60.2559 47.7568L59.6592 48.6836C59.0033 48.4678 58.432 48.144 57.9453 47.7124C57.4587 47.2808 57.0863 46.7708 56.8281 46.1826C56.57 46.8174 56.1934 47.3696 55.6982 47.8394C55.2031 48.3091 54.6191 48.6624 53.9463 48.8994L53.3496 47.9473ZM55.2539 49.7627H62.7314V53.9395H55.2539V49.7627ZM61.5508 52.9619V50.7275H56.4473V52.9619H61.5508ZM68.4824 45.5986C68.4782 46.263 68.5967 46.9211 68.8379 47.5728C69.0791 48.2244 69.4176 48.8084 69.8535 49.3247C70.2894 49.8368 70.7845 50.2282 71.3389 50.499L70.5898 51.4639C69.9805 51.1423 69.4409 50.6831 68.9712 50.0864C68.5057 49.4855 68.146 48.8 67.8921 48.0298C67.634 48.8507 67.2616 49.5828 66.7749 50.2261C66.2925 50.8651 65.7318 51.3496 65.0928 51.6797L64.3438 50.7021C64.915 50.4271 65.4229 50.0208 65.8672 49.4834C66.3115 48.946 66.6564 48.3366 66.9019 47.6553C67.1515 46.974 67.2764 46.2884 67.2764 45.5986V43.6562H68.4824V45.5986ZM72.1895 42.7041H73.3955V47.2363H75.2236V48.2646H73.3955V54.0791H72.1895V42.7041ZM86.167 48.8486H75.7568V47.9219H86.167V48.8486ZM76.9883 49.6484H84.8848V52.1494H78.207V53.0889H85.2402V53.9395H77.001V51.3496H83.6914V50.5117H76.9883V49.6484ZM77.0645 42.9961H84.8594V45.459H78.2832V46.3223H85.0498V47.1729H77.0898V44.6592H83.6533V43.8467H77.0645V42.9961ZM99.04 47.2363H100.805V48.2393H99.04V54.0664H97.834V42.7041H99.04V47.2363ZM90.1914 51.0322C91.6133 50.3213 92.7114 49.4538 93.4858 48.4297C94.2645 47.4056 94.7152 46.2292 94.8379 44.9004H90.7627V43.8975H96.0693C96.0609 45.6325 95.6398 47.1919 94.8062 48.5757C93.9725 49.9552 92.6585 51.0872 90.8643 51.9717L90.1914 51.0322ZM105.629 45.0781C105.629 45.569 105.743 46.0409 105.972 46.4937C106.204 46.9465 106.535 47.3485 106.962 47.6997C107.394 48.0467 107.897 48.3112 108.473 48.4932L107.851 49.4326C107.203 49.221 106.638 48.9015 106.156 48.4741C105.673 48.0467 105.301 47.5452 105.039 46.9697C104.78 47.596 104.404 48.1419 103.909 48.6074C103.414 49.0729 102.832 49.4242 102.163 49.6611L101.541 48.709C102.121 48.5101 102.626 48.2266 103.058 47.8584C103.49 47.486 103.822 47.0586 104.055 46.5762C104.292 46.0938 104.41 45.5944 104.41 45.0781V44.583H101.858V43.6055H108.13V44.583H105.629V45.0781ZM103.407 50.2324H104.626V52.8604H111.189V53.8379H103.407V50.2324ZM109.641 42.7168H110.847V51.0195H109.641V42.7168ZM23.2109 60.8242H16.4316V59.8594H19.2246V58.6533H20.4307V59.8594H23.2109V60.8242ZM17.0537 63.4014C17.0537 62.9909 17.168 62.6312 17.3965 62.3223C17.6292 62.0091 17.9551 61.7679 18.374 61.5986C18.793 61.4251 19.2754 61.3363 19.8213 61.332C20.363 61.3363 20.8411 61.4251 21.2559 61.5986C21.6748 61.7679 21.9985 62.0091 22.2271 62.3223C22.4598 62.6312 22.5762 62.9909 22.5762 63.4014C22.5762 63.8118 22.4598 64.1737 22.2271 64.4868C21.9985 64.8 21.6748 65.0433 21.2559 65.2168C20.8411 65.3861 20.363 65.4707 19.8213 65.4707C19.2754 65.4707 18.793 65.3861 18.374 65.2168C17.9551 65.0433 17.6292 64.8 17.3965 64.4868C17.168 64.1737 17.0537 63.8118 17.0537 63.4014ZM17.8408 66.3975H25.3564V70.0791H24.1504V67.375H17.8408V66.3975ZM18.2217 63.4014C18.2174 63.7484 18.3613 64.0234 18.6533 64.2266C18.9453 64.4297 19.3346 64.5312 19.8213 64.5312C20.3079 64.5312 20.6994 64.4318 20.9956 64.2329C21.2918 64.0298 21.4421 63.7526 21.4463 63.4014C21.4421 63.0544 21.2918 62.7793 20.9956 62.5762C20.6994 62.3688 20.3079 62.263 19.8213 62.2588C19.4997 62.2588 19.2161 62.3075 18.9707 62.4048C18.7295 62.4979 18.5433 62.6312 18.4121 62.8047C18.2809 62.974 18.2174 63.1729 18.2217 63.4014ZM24.1504 58.7041H25.3564V61.7891H27.0068V62.792H25.3564V65.8135H24.1504V58.7041ZM31.1328 60.8877C31.1328 61.3066 31.2196 61.7171 31.3931 62.1191C31.5708 62.5169 31.8311 62.8766 32.1738 63.1982C32.5166 63.5156 32.9271 63.7653 33.4053 63.9473L32.7705 64.874C32.2542 64.6751 31.8078 64.3937 31.4312 64.0298C31.0588 63.6659 30.7689 63.2427 30.5615 62.7603C30.3457 63.3062 30.041 63.7928 29.6475 64.2202C29.2581 64.6434 28.7969 64.9714 28.2637 65.2041L27.6035 64.2646C28.0986 64.0488 28.5239 63.759 28.8794 63.395C29.2349 63.0269 29.5036 62.6248 29.6855 62.189C29.8717 61.7531 29.9648 61.3193 29.9648 60.8877V59.415H31.1328V60.8877ZM29.6982 67.9971C29.694 67.5697 29.8464 67.2015 30.1553 66.8926C30.4642 66.5794 30.9085 66.3403 31.4883 66.1753C32.068 66.0103 32.7536 65.9277 33.5449 65.9277C34.332 65.9277 35.0155 66.0103 35.5952 66.1753C36.1792 66.3403 36.6278 66.5794 36.9409 66.8926C37.2583 67.2015 37.417 67.5697 37.417 67.9971C37.417 68.4245 37.2583 68.7926 36.9409 69.1016C36.6278 69.4105 36.1792 69.6453 35.5952 69.8062C35.0155 69.9712 34.332 70.0537 33.5449 70.0537C32.7536 70.0537 32.068 69.9712 31.4883 69.8062C30.9085 69.6453 30.4642 69.4105 30.1553 69.1016C29.8464 68.7926 29.694 68.4245 29.6982 67.9971ZM30.8916 67.9971C30.8874 68.234 30.991 68.4393 31.2026 68.6128C31.4142 68.7821 31.7189 68.9111 32.1167 69C32.5187 69.0889 32.9948 69.1312 33.5449 69.127C34.0908 69.1312 34.5627 69.0889 34.9604 69C35.3625 68.9111 35.6714 68.7821 35.8872 68.6128C36.103 68.4435 36.2109 68.2383 36.2109 67.9971C36.2109 67.7601 36.1051 67.557 35.8936 67.3877C35.682 67.2142 35.3794 67.083 34.9858 66.9941C34.5923 66.901 34.1247 66.8545 33.583 66.8545C32.7324 66.8545 32.0701 66.9539 31.5962 67.1528C31.1222 67.3517 30.8874 67.6331 30.8916 67.9971ZM33.7607 58.9199H34.8779V61.6748H36.2109V58.7168H37.3535V65.7119H36.2109V62.665H34.8779V65.3564H33.7607V58.9199ZM49.2744 64.3281H38.8896V63.3633H49.2744V64.3281ZM40.1338 65.2295H47.9541V67.9844H41.3271V69H48.2715V69.9521H40.1465V67.0957H46.7607V66.1562H40.1338V65.2295ZM40.248 59.0342H47.9287V60.0117H41.4541V61.5732H48.043V62.5381H40.248V59.0342ZM59.5449 70.1045H58.3389V58.7041H59.5449V70.1045ZM50.5186 63.541C50.5186 62.7454 50.6434 62.0472 50.8931 61.4463C51.1427 60.8411 51.4897 60.3757 51.9341 60.0498C52.3826 59.7197 52.8926 59.5547 53.4639 59.5547C54.0267 59.5547 54.5303 59.7197 54.9746 60.0498C55.4189 60.3757 55.766 60.8411 56.0156 61.4463C56.2695 62.0472 56.3965 62.7454 56.3965 63.541C56.3965 64.3451 56.2695 65.0496 56.0156 65.6548C55.766 66.2599 55.4189 66.7254 54.9746 67.0513C54.5303 67.3771 54.0267 67.54 53.4639 67.54C52.8926 67.54 52.3826 67.3771 51.9341 67.0513C51.4897 66.7254 51.1427 66.2599 50.8931 65.6548C50.6434 65.0496 50.5186 64.3451 50.5186 63.541ZM51.6865 63.541C51.6865 64.1335 51.7606 64.6497 51.9087 65.0898C52.0568 65.5299 52.2642 65.8685 52.5308 66.1055C52.8016 66.3424 53.1126 66.4609 53.4639 66.4609C53.8109 66.4609 54.1177 66.3424 54.3843 66.1055C54.6509 65.8685 54.8582 65.5299 55.0063 65.0898C55.1545 64.6497 55.2285 64.1335 55.2285 63.541C55.2285 62.957 55.1545 62.4471 55.0063 62.0112C54.8582 61.5711 54.6509 61.2326 54.3843 60.9956C54.1177 60.7544 53.8109 60.6338 53.4639 60.6338C53.1126 60.6338 52.8016 60.7544 52.5308 60.9956C52.2642 61.2326 52.0568 61.5711 51.9087 62.0112C51.7606 62.4471 51.6865 62.957 51.6865 63.541ZM74.9443 68.6572H64.5342V67.6543H69.1172V65.0264H65.7275V59.6182H73.7002V65.0264H70.3105V67.6543H74.9443V68.6572ZM72.5195 64.0742V60.583H66.8955V64.0742H72.5195ZM85.2021 66.9814H83.9961V58.7168H85.2021V66.9814ZM75.998 62.2969C75.998 61.7594 76.1313 61.277 76.3979 60.8496C76.6646 60.4222 77.0285 60.0879 77.4897 59.8467C77.951 59.6012 78.4652 59.4785 79.0322 59.4785C79.5993 59.4785 80.1113 59.6012 80.5684 59.8467C81.0296 60.0879 81.3914 60.4222 81.6538 60.8496C81.9204 61.277 82.0537 61.7594 82.0537 62.2969C82.0537 62.8428 81.9204 63.3315 81.6538 63.7632C81.3914 64.1906 81.0296 64.5249 80.5684 64.7661C80.1113 65.0073 79.5993 65.1279 79.0322 65.1279C78.4652 65.1279 77.951 65.0073 77.4897 64.7661C77.0285 64.5249 76.6646 64.1906 76.3979 63.7632C76.1313 63.3315 75.998 62.8428 75.998 62.2969ZM77.1787 62.2969C77.1787 62.6481 77.257 62.9591 77.4136 63.23C77.5744 63.4966 77.7965 63.7039 78.0801 63.8521C78.3636 64.0002 78.681 64.0742 79.0322 64.0742C79.3792 64.0742 79.6924 64.0002 79.9717 63.8521C80.251 63.7039 80.471 63.4966 80.6318 63.23C80.7926 62.9591 80.873 62.6481 80.873 62.2969C80.873 61.9541 80.7926 61.6494 80.6318 61.3828C80.471 61.112 80.251 60.9025 79.9717 60.7544C79.6924 60.6063 79.3792 60.5322 79.0322 60.5322C78.681 60.5322 78.3636 60.6063 78.0801 60.7544C77.7965 60.9025 77.5744 61.112 77.4136 61.3828C77.257 61.6494 77.1787 61.9541 77.1787 62.2969ZM77.7627 66.1436H78.9814V68.8604H85.5449V69.8379H77.7627V66.1436ZM100.563 65.2041H90.1787V64.2393H94.7871V63.0332H91.4736V59.2246H99.2812V60.1768H92.667V62.0684H99.3574V63.0332H95.9551V64.2393H100.563V65.2041ZM91.4102 68.0098C91.4102 67.5739 91.5667 67.2015 91.8799 66.8926C92.193 66.5837 92.6458 66.3488 93.2383 66.188C93.8307 66.0229 94.5374 65.9404 95.3584 65.9404C96.1751 65.9404 96.8755 66.0229 97.4595 66.188C98.0477 66.3488 98.4984 66.5837 98.8115 66.8926C99.1247 67.2015 99.2812 67.5739 99.2812 68.0098C99.2812 68.4456 99.1247 68.818 98.8115 69.127C98.4984 69.4359 98.0477 69.6707 97.4595 69.8315C96.8755 69.9966 96.1751 70.0791 95.3584 70.0791C94.5374 70.0791 93.8307 69.9966 93.2383 69.8315C92.6458 69.6707 92.193 69.4359 91.8799 69.127C91.5667 68.818 91.4102 68.4456 91.4102 68.0098ZM92.6289 68.0098C92.6247 68.3737 92.8595 68.653 93.3335 68.8477C93.8117 69.0423 94.4867 69.1354 95.3584 69.127C96.2174 69.1354 96.884 69.0423 97.3579 68.8477C97.8361 68.653 98.0752 68.3737 98.0752 68.0098C98.0752 67.6501 97.8361 67.3729 97.3579 67.1782C96.884 66.9793 96.2174 66.8799 95.3584 66.8799C94.4909 66.8799 93.818 66.9793 93.3398 67.1782C92.8617 67.3729 92.6247 67.6501 92.6289 68.0098ZM104.461 59.5547C105.024 59.5547 105.525 59.7197 105.965 60.0498C106.41 60.3757 106.757 60.8411 107.006 61.4463C107.256 62.0472 107.381 62.7454 107.381 63.541C107.381 64.3451 107.256 65.0496 107.006 65.6548C106.757 66.2599 106.412 66.7254 105.972 67.0513C105.532 67.3771 105.028 67.54 104.461 67.54C103.894 67.54 103.39 67.3771 102.95 67.0513C102.51 66.7254 102.167 66.2599 101.922 65.6548C101.676 65.0496 101.554 64.3451 101.554 63.541C101.554 62.7454 101.676 62.0472 101.922 61.4463C102.167 60.8411 102.51 60.3757 102.95 60.0498C103.39 59.7197 103.894 59.5547 104.461 59.5547ZM102.709 63.541C102.709 64.1335 102.781 64.6497 102.925 65.0898C103.073 65.5299 103.28 65.8685 103.547 66.1055C103.813 66.3424 104.118 66.4609 104.461 66.4609C104.812 66.4609 105.121 66.3446 105.388 66.1118C105.654 65.8748 105.86 65.5363 106.003 65.0962C106.152 64.6519 106.226 64.1335 106.226 63.541C106.226 62.9528 106.152 62.4408 106.003 62.0049C105.86 61.5648 105.654 61.2262 105.388 60.9893C105.121 60.7523 104.812 60.6338 104.461 60.6338C104.118 60.6338 103.813 60.7544 103.547 60.9956C103.28 61.2326 103.073 61.5711 102.925 62.0112C102.781 62.4471 102.709 62.957 102.709 63.541ZM109.069 58.7041H110.275V63.1602H112.104V64.1758H110.275V70.0791H109.069V58.7041ZM122.095 70.1045H120.889V58.7041H122.095V70.1045ZM113.284 59.7324H118.616V63.8838H114.528V66.3721C115.514 66.3678 116.426 66.3361 117.264 66.2769C118.106 66.2176 118.98 66.1139 119.886 65.9658L120 66.9561C119.056 67.1126 118.14 67.2205 117.251 67.2798C116.363 67.339 115.366 67.3708 114.262 67.375H113.297V62.9189H117.385V60.71H113.284V59.7324Z" fill="#2A4415"/>
<path d="M292.212 16.3219C290.036 17.2399 289.75 18.6236 289.474 21.1319C289.223 23.4161 288.176 27.1409 282.615 28.667C277.053 30.1933 275.547 31.5243 273.158 35.3404C270.768 39.1568 269.404 39.6335 265.47 40.9337C260.722 42.5026 260.059 47.4616 263.097 47.1189C266.581 46.7258 268.39 46.6829 269.822 48.1278C271.253 49.5727 272.424 50.9058 275.64 49.6902C278.855 48.4746 280.069 49.9098 281.675 51.0245C283.28 52.1391 285.92 53.2925 290.438 49.3663C294.598 45.7525 293.737 43.4974 294.968 39.4909C296.199 35.4845 298.429 32.7006 298.793 26.6423C299.157 20.5841 298.056 18.523 296.921 17.3833C295.785 16.2439 294.143 15.5072 292.212 16.3219Z" fill="#5959FF"/>
<path d="M297.577 19.6806C298.443 20.4553 297.8 21.2142 297.32 22.2037C297.313 22.2845 300.166 31.1702 300.233 31.1992C298.787 31.1607 293.645 33.8971 293.674 33.8299C293.093 31.5734 295.539 26.4009 295.539 26.4009C295.539 26.4009 295.846 26.9199 292.941 26.8723C291.099 26.8421 289.753 18.1194 289.761 19.4039C289.731 19.4828 295.899 20.7167 295.873 20.2054C295.846 19.6941 296.933 19.1053 297.577 19.6806Z" fill="#EFAFA1"/>
<path d="M217.954 81.1919C218.29 81.4853 218.778 81.5204 219.151 81.2779L223.624 78.3706L224.734 77.6486L226.82 76.2931L222.448 69.8868L220.507 71.2081L217.13 73.5061C216.912 73.6542 216.645 73.7099 216.386 73.661L211.005 72.6427C210.005 72.4535 209.4 73.7125 210.167 74.3838L217.954 81.1919Z" fill="#EFAFA1"/>
<path d="M282.724 56.4678C282.724 56.4678 262.283 50.764 251.926 48.4877C248.122 47.651 220.094 70.6003 220.094 70.6003L225.097 78.5975C225.097 78.5975 245.398 62.4046 246.895 62.6413C255.903 64.0489 273.125 70.4187 273.125 70.4187L282.724 56.4678Z" fill="#5959FF"/>
<path d="M222.5 75C222.5 75 247.966 55.5764 249.685 55.2448C251.476 54.763 266.36 56.9174 266.36 56.9174" fill="#5959FF"/>
<path d="M222.5 75C222.5 75 247.966 55.5764 249.685 55.2448C251.476 54.763 266.36 56.9174 266.36 56.9174" stroke="white" stroke-miterlimit="10"/>
<path d="M228.943 95.093C227.995 95.4626 228.14 96.8541 229.144 97.0173L239.327 98.6728C239.766 98.7441 240.198 98.515 240.388 98.111L242.835 92.9059L243.32 91.8729L244.293 89.8049L237.221 86.6788L236.375 88.5824L234.6 92.5768C234.493 92.8183 234.295 93.0074 234.049 93.103L228.943 95.093Z" fill="#EFAFA1"/>
<path d="M252.828 53.4985C256.405 52.0291 257 52.1535 262.238 52.8957C269.039 53.8589 288.992 57.16 288.992 57.16C289.916 56.3678 290.759 55.6629 291.516 55.0221L304.482 69.1228C298.497 74.9687 289.35 75.4603 284.708 74.2699C279.899 73.0361 258.667 67.3308 258.667 67.3308L244.726 92.6933L234.493 87.6907C234.493 87.6907 249.251 54.9681 252.828 53.4985Z" fill="#6993FF"/>
<path d="M300.125 60.7084C296.717 63.9787 295.192 67.3034 283.731 64.9054C272.27 62.5076 261.564 60.4716 259.741 60.1867C257.23 59.7942 256.468 60.5846 253.729 61.8479C250.99 63.1111 240 90 240 90" stroke="white" stroke-miterlimit="10"/>
<path d="M295.976 47.5193C294.154 42.4538 292.627 36.9189 293.273 34.2054C293.918 31.492 295.353 27.9826 303.767 28.7539C308.62 29.1987 310.512 46.4631 310.213 53.7528C310.163 60.9577 307.811 65.87 304.479 69.1239L291.511 55.0216C295.296 51.8202 296.953 50.2354 295.976 47.5193Z" fill="white"/>
<path d="M268.702 72.1118L303.996 81.4356L304.439 79.7429C304.589 79.1729 304.25 78.5893 303.683 78.4393L270.444 69.6585C269.876 69.5085 269.295 69.8492 269.146 70.4192L268.702 72.1118Z" fill="#5959FF"/>
<path d="M315 -2L289.744 51.0333L279.013 72.802" stroke="#4343FE" stroke-width="2" stroke-linejoin="round"/>
<path d="M298.629 78.1053L289.798 50.9605" stroke="#4343FE" stroke-width="2" stroke-linejoin="round"/>
<path d="M297.855 44.6154C294.042 45.3816 291.867 45.8293 290.562 46.141C289.872 46.3057 289.802 46.5882 290.492 46.6812C291.182 46.7739 292.079 46.7771 292.079 46.7771C291.76 46.8518 290.893 47.0015 290.696 47.2278C290.529 47.4191 290.437 47.6561 290.466 47.9101C290.491 48.1363 290.631 48.2119 290.839 48.2343C290.865 48.2372 290.891 48.2401 290.917 48.2433C290.825 48.2317 290.691 48.2776 290.601 48.3013C290.522 48.3224 290.445 48.3516 290.372 48.3903C290.193 48.4862 290.068 48.7079 290.03 48.9047C290.002 49.0502 289.992 49.2269 290.08 49.3565C290.177 49.5011 290.396 49.5665 290.56 49.5854C290.382 49.5649 290.195 49.5888 290.028 49.6536C289.882 49.7105 289.772 49.8368 289.713 49.9801C289.657 50.1177 289.624 50.323 289.715 50.4531C289.787 50.5578 289.94 50.5988 290.056 50.6255C290.221 50.6635 290.389 50.6877 290.554 50.7239C291.017 50.8252 291.48 50.9245 291.944 51.0217C292.876 51.217 293.811 51.4034 294.747 51.5813C296.2 51.8576 297.656 52.1129 299.117 52.3464L299.03 44.4039C298.63 44.4768 298.238 44.5473 297.855 44.6154Z" fill="#EFAFA1"/>
<path d="M320.315 41.4642C320.315 41.4642 335.246 43.8789 330.075 50.0502C324.686 56.4825 298.986 52.3953 298.986 52.3953L298.966 44.5278L320.315 41.4642Z" fill="white"/>
<path d="M299.103 44.4934C300.899 44.1574 317.492 41.0793 320.315 41.4623" stroke="black" stroke-linecap="round" stroke-linejoin="round"/>
<path d="M303.559 28.8162C310.155 27.8955 329.379 36.0648 331.751 44.4334C332.989 48.8037 327.89 52.2671 324.494 52.0723C321.025 51.8734 319.238 47.9663 318.603 47.7313C315.702 46.6577 301.999 41.9879 301.423 40.5606C300.848 39.1334 300.884 29.1897 303.559 28.8162Z" fill="white"/>
<path d="M308.701 43.9872C305.373 42.7387 302.347 41.5076 301.588 40.7772" stroke="black" stroke-linecap="round"/>
</g>
<defs>
<clipPath id="clip0_12289_12053">
<rect width="343" height="98" rx="10" fill="white"/>
</clipPath>
</defs>
</svg>
