<svg width="343" height="98" viewBox="0 0 343 98" fill="none" xmlns="http://www.w3.org/2000/svg">
<g clip-path="url(#clip0_12289_11928)">
<rect width="343" height="98" rx="10" fill="#8BE246"/>
<path d="M28.4062 29.6094H26.4219V24.5156H24.0938V22.9062H26.4219V19.2344H28.4062V29.6094ZM16.3438 26.4062C17.099 26.1719 17.7318 25.8281 18.2422 25.375C18.7526 24.9167 19.1328 24.3984 19.3828 23.8203C19.6328 23.237 19.7604 22.6302 19.7656 22V21.7812H16.9062V20.1875H24.625V21.7812H21.7969V22.0156C21.7917 22.5833 21.9089 23.1406 22.1484 23.6875C22.388 24.2292 22.7526 24.7188 23.2422 25.1562C23.7318 25.5885 24.3385 25.9219 25.0625 26.1562L24.0781 27.7344C23.3125 27.4844 22.6536 27.1172 22.1016 26.6328C21.5547 26.1432 21.1224 25.5703 20.8047 24.9141C20.4766 25.6484 20.0234 26.2839 19.4453 26.8203C18.8672 27.3568 18.1719 27.7604 17.3594 28.0312L16.3438 26.4062ZM18.9688 28.7031H20.9688V31.5938H28.75V33.1875H18.9688V28.7031ZM36.6562 28.0781C37.6927 28.0781 38.5911 28.1849 39.3516 28.3984C40.112 28.6068 40.6979 28.9141 41.1094 29.3203C41.5208 29.7214 41.7292 30.2031 41.7344 30.7656C41.7292 31.3177 41.5208 31.7943 41.1094 32.1953C40.6979 32.6016 40.1094 32.9089 39.3438 33.1172C38.5833 33.3307 37.6875 33.4375 36.6562 33.4375C35.6302 33.4375 34.7344 33.3307 33.9688 33.1172C33.2083 32.9089 32.6224 32.6016 32.2109 32.1953C31.7995 31.7943 31.5938 31.3177 31.5938 30.7656C31.5938 30.2031 31.7995 29.7214 32.2109 29.3203C32.6224 28.9141 33.2083 28.6068 33.9688 28.3984C34.7344 28.1849 35.6302 28.0781 36.6562 28.0781ZM30.2812 25.5625H35.125V23.0781H37.0938V25.5625H43.1875V27.1719H30.2812V25.5625ZM31.7344 19.8594H41.6562V21.0156V21.4297C41.6562 22.0547 41.6302 22.6328 41.5781 23.1641C41.526 23.6953 41.4167 24.25 41.25 24.8281L39.2969 24.6406C39.4427 24.0573 39.5391 23.526 39.5859 23.0469C39.6328 22.5625 39.6615 22.0208 39.6719 21.4219H31.7344V19.8594ZM33.5781 30.7656C33.5729 31.1458 33.8359 31.4349 34.3672 31.6328C34.9036 31.8255 35.6667 31.9219 36.6562 31.9219C37.6458 31.9219 38.4089 31.8255 38.9453 31.6328C39.4818 31.4349 39.75 31.1458 39.75 30.7656C39.75 30.375 39.4844 30.0781 38.9531 29.875C38.4271 29.6667 37.6797 29.5625 36.7109 29.5625C35.7005 29.5625 34.9245 29.6641 34.3828 29.8672C33.8411 30.0703 33.5729 30.3698 33.5781 30.7656Z" fill="black"/>
<path d="M277.365 14.6367L278.042 20.7965C277.43 20.8703 277.179 21.581 277.388 22.1332C277.347 22.2825 277.337 22.4428 277.359 22.5995C276.426 23.5259 274.668 24.8215 272.12 24.7487C268.134 24.6352 269.258 16.7832 269.258 16.7832L277.365 14.6367Z" fill="#FBA18D"/>
<path d="M280.048 18.9102C280.005 18.4572 280.462 17.4081 280.754 17.0597C282.636 14.8113 280.455 13.7476 279.688 13.4139C278.84 13.0443 278.766 11.6271 277.645 11.0088C275.933 10.0667 274.669 11.5354 273.668 11.5128C272.666 11.4901 271.852 10.2941 270.549 11.2082C269.246 12.123 269.581 13.2074 269.204 13.7488C268.826 14.2908 267.784 13.1309 266.644 14.8333C264.91 17.423 269.181 17.7193 269.181 17.7193C269.181 17.7193 271.584 18.2869 274.376 16.6344C274.759 16.4078 275.259 16.4179 275.576 16.7313C276.444 17.5884 277.278 22.6839 277.278 22.6839L278.139 21.6961C278.139 21.6961 280.249 20.984 280.048 18.9102Z" fill="#5959FF"/>
<path d="M277.811 19.7853C277.692 20.2968 277.181 20.6152 276.67 20.496C276.159 20.3773 275.841 19.8666 275.959 19.3551C276.078 18.8442 276.589 18.5264 277.1 18.6445C277.611 18.7631 277.929 19.2744 277.811 19.7853Z" fill="#FBA18D"/>
<path d="M273 65.5005C273 65.5005 260.419 83.9026 260.009 89.7654C259.599 95.6289 271.563 119.444 271.563 119.444L275.444 119.715C275.444 119.715 275.769 105.177 273.985 92.9807C273.635 90.588 274.538 88.1728 276.412 86.6449C285.198 79.4856 293.405 67.2149 293.405 67.2149L293.404 62.0005L273 65.5005Z" fill="#5959FF"/>
<path d="M293.724 68.4854C293.724 68.4854 292.826 77.5076 288.809 85.1519C287.569 87.5093 288.783 90.3933 291.345 91.1202C301.77 94.0758 308.216 97.8948 309.949 98.9977C310.246 99.1869 310.408 99.5238 310.383 99.8753L310.202 102.465C310.16 103.069 309.593 103.498 309 103.374L281.244 97.5788C276.607 96.6111 273.234 92.5985 273.078 87.8653L272.776 78.7805L293.724 68.4854Z" fill="#5959FF"/>
<path d="M297 100C289 98.5005 283 100.5 277 95.5C272.2 91.4999 272.334 82.5003 273 78.5005L277 71.5" stroke="black"/>
<path d="M273.792 34L260.989 52.0395L258.31 55.4279L254.591 55.7358C253.993 55.7849 253.424 56.003 252.951 56.3715C252.058 57.067 250.763 58.279 251.038 59.2871C251.241 60.0287 252.227 60.7759 253.179 61.3448C254.317 62.0242 255.74 61.7423 256.697 60.8266L258.715 58.8968C258.98 58.6431 259.085 58.2645 258.989 57.9105L265.366 53.5475L277.506 44.7933L276.978 38.6781L273.792 34Z" fill="#EFAFA1"/>
<path d="M279.268 26.0074L277.262 22.5771L273.16 24.3606L274.198 28.8523C274.234 28.8756 274.274 28.8949 274.313 28.913C275.699 27.5897 277.424 26.5777 279.268 26.0074Z" fill="#FBA18D"/>
<path d="M276.275 25.6857C270.258 29.4111 273.001 65.5005 273.001 65.5005L295.488 62.2066C295.488 62.2066 296.205 26.228 276.275 25.6857Z" fill="white"/>
<path fill-rule="evenodd" clip-rule="evenodd" d="M284 45L292.012 39.9702C292.012 39.9702 296.638 45.2101 297.609 50.2102C298.471 54.6477 294.733 66.5789 293.88 69.2101C293.773 69.5379 293.842 69.8898 294.061 70.1561L295.861 72.3452C296.702 73.3685 296.877 74.809 296.114 75.8922C295.475 76.7992 294.656 77.7268 293.902 77.8737C292.876 78.0721 291.764 76.6901 291.137 75.7475C290.806 75.2478 290.631 74.6637 290.627 74.0636L290.598 70.3323L289.821 52.593C289.791 51.9069 289.527 51.2519 289.072 50.7373L284 45Z" fill="#EFAFA1"/>
<path d="M25.9023 50.0449H24.6963V45.7666H22.5254V44.7891H24.6963V41.7168H25.9023V50.0449ZM16.4316 47.6709C17.0029 47.4762 17.5023 47.1927 17.9297 46.8203C18.3613 46.4437 18.6914 46.012 18.9199 45.5254C19.1484 45.0387 19.2627 44.5352 19.2627 44.0146V43.5703H16.7998V42.5801H22.9316V43.5703H20.4941V44.0146C20.4899 44.4886 20.5978 44.952 20.8179 45.4048C21.0422 45.8576 21.3617 46.2617 21.7764 46.6172C22.1911 46.9727 22.6777 47.2435 23.2363 47.4297L22.6143 48.3945C21.988 48.1745 21.4421 47.8486 20.9766 47.417C20.5111 46.9854 20.1514 46.4818 19.8975 45.9062C19.6478 46.541 19.2775 47.0975 18.7866 47.5757C18.3 48.0539 17.7223 48.4115 17.0537 48.6484L16.4316 47.6709ZM18.5137 49.2959H19.7197V51.8604H26.207V52.8379H18.5137V49.2959ZM32.7832 48.8516C33.5999 48.8516 34.3109 48.9362 34.916 49.1055C35.5212 49.2705 35.9867 49.5117 36.3125 49.8291C36.6426 50.1465 36.8076 50.5231 36.8076 50.959C36.8076 51.3949 36.6426 51.7694 36.3125 52.0825C35.9867 52.3999 35.5212 52.6411 34.916 52.8062C34.3109 52.9712 33.5999 53.0537 32.7832 53.0537C31.9749 53.0537 31.2682 52.9712 30.6631 52.8062C30.0622 52.6411 29.5988 52.3999 29.2729 52.0825C28.9471 51.7694 28.7842 51.3949 28.7842 50.959C28.7842 50.5231 28.9471 50.1465 29.2729 49.8291C29.5988 49.5117 30.0622 49.2705 30.6631 49.1055C31.264 48.9362 31.9707 48.8516 32.7832 48.8516ZM27.667 46.9346H31.8184V44.8018H32.999V46.9346H38.0137V47.9121H27.667V46.9346ZM28.873 42.2627H36.7188V43.2148V43.5513C36.7188 44.0422 36.6976 44.4971 36.6553 44.916C36.6172 45.3307 36.5326 45.7708 36.4014 46.2363L35.2207 46.1094C35.3561 45.5931 35.4408 45.1297 35.4746 44.7192C35.5085 44.3045 35.5254 43.8073 35.5254 43.2275H28.873V42.2627ZM29.9902 50.959C29.986 51.2002 30.096 51.4097 30.3203 51.5874C30.5488 51.7609 30.8726 51.8942 31.2915 51.9873C31.7147 52.0804 32.2119 52.127 32.7832 52.127C33.363 52.127 33.8644 52.0804 34.2876 51.9873C34.7108 51.8942 35.0366 51.7609 35.2651 51.5874C35.4937 51.4097 35.61 51.2002 35.6143 50.959C35.61 50.7135 35.4937 50.502 35.2651 50.3242C35.0366 50.1423 34.7108 50.0047 34.2876 49.9116C33.8644 49.8143 33.363 49.7656 32.7832 49.7656C32.2119 49.7656 31.7147 49.8143 31.2915 49.9116C30.8726 50.0047 30.5488 50.1423 30.3203 50.3242C30.096 50.502 29.986 50.7135 29.9902 50.959ZM48.3223 48.1533H47.1162V41.7168H48.3223V48.1533ZM38.9404 46.9473C39.5202 46.7526 40.0259 46.467 40.4575 46.0903C40.8892 45.7095 41.2192 45.2736 41.4478 44.7827C41.6763 44.2918 41.7926 43.7819 41.7969 43.2529V42.1484H43.0283V43.2529C43.0283 43.7607 43.1426 44.2474 43.3711 44.7129C43.5996 45.1742 43.9255 45.5825 44.3486 45.938C44.776 46.2935 45.2754 46.5664 45.8467 46.7568L45.25 47.6836C44.5941 47.4678 44.0228 47.144 43.5361 46.7124C43.0495 46.2808 42.6771 45.7708 42.4189 45.1826C42.1608 45.8174 41.7842 46.3696 41.2891 46.8394C40.7939 47.3091 40.21 47.6624 39.5371 47.8994L38.9404 46.9473ZM40.8447 48.7627H48.3223V52.9395H40.8447V48.7627ZM47.1416 51.9619V49.7275H42.0381V51.9619H47.1416ZM59.0371 46.4648H60.751V47.4805H59.0371V53.0791H57.8311V41.7041H59.0371V46.4648ZM49.9854 49.9814C51.276 49.9814 52.2832 49.9709 53.0068 49.9497V48.7944C52.5794 48.731 52.2049 48.6061 51.8833 48.4199C51.5659 48.2337 51.3205 47.9967 51.147 47.709C50.9777 47.417 50.8952 47.0911 50.8994 46.7314C50.8952 46.3083 51.0052 45.9359 51.2295 45.6143C51.458 45.2926 51.7775 45.043 52.188 44.8652C52.6027 44.6875 53.0788 44.5986 53.6162 44.5986C54.1494 44.5986 54.6234 44.6875 55.0381 44.8652C55.4528 45.043 55.7765 45.2926 56.0093 45.6143C56.242 45.9359 56.3584 46.3083 56.3584 46.7314C56.3584 47.0911 56.2695 47.417 56.0918 47.709C55.9141 47.9967 55.6623 48.2358 55.3364 48.4263C55.0148 48.6125 54.6403 48.7352 54.2129 48.7944V49.9053C55.3301 49.8503 56.3203 49.7614 57.1836 49.6387L57.2598 50.5273C56.2314 50.7093 55.1672 50.832 54.0669 50.8955C52.9709 50.9548 51.8156 50.9844 50.6011 50.9844H50.1758L49.9854 49.9814ZM50.2012 43.0498H53.0068V41.7295H54.2129V43.0498H57.0186V44.0146H50.2012V43.0498ZM52.0293 46.7314C52.0293 46.9684 52.0949 47.1758 52.2261 47.3535C52.3573 47.527 52.5392 47.6624 52.772 47.7598C53.009 47.8529 53.284 47.8994 53.5972 47.8994C54.0838 47.8994 54.471 47.7957 54.7588 47.5884C55.0508 47.381 55.1989 47.0954 55.2031 46.7314C55.2031 46.4902 55.1354 46.2808 55 46.103C54.8688 45.9211 54.6826 45.7814 54.4414 45.6841C54.2044 45.5868 53.9294 45.5381 53.6162 45.5381C53.2988 45.5381 53.0195 45.5868 52.7783 45.6841C52.5413 45.7814 52.3573 45.9211 52.2261 46.103C52.0949 46.2808 52.0293 46.4902 52.0293 46.7314ZM71.7578 47.8486H61.3477V46.9219H71.7578V47.8486ZM62.5791 48.6484H70.4756V51.1494H63.7979V52.0889H70.8311V52.9395H62.5918V50.3496H69.2822V49.5117H62.5791V48.6484ZM62.6553 41.9961H70.4502V44.459H63.874V45.3223H70.6406V46.1729H62.6807V43.6592H69.2441V42.8467H62.6553V41.9961ZM79.502 42.2246C80.069 42.2246 80.5768 42.3241 81.0254 42.5229C81.474 42.7176 81.8252 42.9948 82.0791 43.3545C82.333 43.7142 82.46 44.1247 82.46 44.5859C82.46 45.043 82.333 45.4513 82.0791 45.811C81.8252 46.1707 81.474 46.45 81.0254 46.6489C80.5768 46.8436 80.069 46.9388 79.502 46.9346C78.9391 46.9388 78.4334 46.8436 77.9849 46.6489C77.5405 46.45 77.1935 46.1707 76.9438 45.811C76.6942 45.4513 76.5693 45.043 76.5693 44.5859C76.5693 44.1247 76.6942 43.7142 76.9438 43.3545C77.1935 42.9948 77.5405 42.7176 77.9849 42.5229C78.4334 42.3241 78.9391 42.2246 79.502 42.2246ZM75.7568 47.8232C77.1237 47.8232 78.4355 47.7957 79.6924 47.7407C80.9535 47.6815 82.1383 47.5693 83.2471 47.4043L83.3359 48.3057C82.3753 48.4876 81.3216 48.6167 80.1748 48.6929V52.7236H78.9688V48.7627C78.2493 48.7965 77.2337 48.8177 75.9219 48.8262L75.7568 47.8232ZM77.7373 44.5859C77.7331 44.8568 77.805 45.0959 77.9531 45.3032C78.1055 45.5106 78.3149 45.6714 78.5815 45.7856C78.8524 45.8957 79.1592 45.9486 79.502 45.9443C79.8532 45.9486 80.1642 45.8957 80.4351 45.7856C80.7101 45.6714 80.9238 45.5106 81.0762 45.3032C81.2285 45.0959 81.3047 44.8568 81.3047 44.5859C81.3047 44.3109 81.2285 44.0697 81.0762 43.8623C80.9238 43.6507 80.7101 43.4878 80.4351 43.3735C80.1642 43.2593 79.8532 43.2021 79.502 43.2021C79.1592 43.2021 78.8524 43.2593 78.5815 43.3735C78.3149 43.4878 78.1055 43.6507 77.9531 43.8623C77.805 44.0739 77.7331 44.3151 77.7373 44.5859ZM84.0342 41.7168H85.2275V53.0791H84.0342V41.7168ZM95.9424 45.373H97.5928V46.376H95.9424V50.2227H94.7363V41.7168H95.9424V45.373ZM87.0176 43.0371H89.8105V41.7041H91.0166V43.0371H93.7969V44.0146H87.0176V43.0371ZM87.6396 46.7061C87.6396 46.2786 87.7539 45.902 87.9824 45.5762C88.2152 45.2503 88.541 45.0007 88.96 44.8271C89.3789 44.6494 89.8613 44.5605 90.4072 44.5605C90.9489 44.5605 91.4271 44.6494 91.8418 44.8271C92.2607 45.0007 92.5845 45.2503 92.813 45.5762C93.0457 45.902 93.1621 46.2786 93.1621 46.7061C93.1621 47.1292 93.0457 47.5016 92.813 47.8232C92.5845 48.1449 92.2607 48.3945 91.8418 48.5723C91.4271 48.75 90.9489 48.8389 90.4072 48.8389C89.8613 48.8389 89.3789 48.75 88.96 48.5723C88.541 48.3945 88.2152 48.1449 87.9824 47.8232C87.7539 47.5016 87.6396 47.1292 87.6396 46.7061ZM88.7314 49.5498H89.9375V51.8604H96.4248V52.8379H88.7314V49.5498ZM88.8076 46.7061C88.8034 46.9473 88.8669 47.1589 88.998 47.3408C89.1292 47.5186 89.3133 47.6561 89.5503 47.7534C89.7915 47.8507 90.0708 47.8994 90.3882 47.8994C90.8791 47.8994 91.2747 47.7936 91.5752 47.582C91.8757 47.3704 92.028 47.0785 92.0322 46.7061C92.028 46.3337 91.8778 46.0396 91.5815 45.8237C91.2853 45.6037 90.8939 45.4915 90.4072 45.4873C90.0856 45.4873 89.8021 45.5381 89.5566 45.6396C89.3154 45.737 89.1292 45.8787 88.998 46.0649C88.8669 46.2469 88.8034 46.4606 88.8076 46.7061ZM25.3691 60.5352H26.9941V61.5635H25.3691V64.4072H24.1631V57.7041H25.3691V60.5352ZM16.3428 63.3281C17.4346 63.3281 18.4248 63.3175 19.3135 63.2964V62.6553C18.6491 62.596 18.1307 62.4373 17.7583 62.1792C17.3859 61.9168 17.2018 61.5762 17.2061 61.1572C17.2018 60.8525 17.3097 60.5902 17.5298 60.3701C17.7498 60.1458 18.063 59.9766 18.4692 59.8623C18.8797 59.7438 19.36 59.6846 19.9102 59.6846C20.4561 59.6846 20.9321 59.7438 21.3384 59.8623C21.7446 59.9766 22.0578 60.1458 22.2778 60.3701C22.5021 60.5902 22.6143 60.8525 22.6143 61.1572C22.61 61.5719 22.4217 61.9105 22.0493 62.1729C21.6812 62.431 21.1712 62.5918 20.5195 62.6553V63.2456C21.624 63.1991 22.6227 63.1123 23.5156 62.9854L23.6172 63.7725C22.5381 63.9502 21.4209 64.0645 20.2656 64.1152C19.1146 64.166 17.8493 64.1914 16.4697 64.1914L16.3428 63.3281ZM16.6348 58.5166H19.3135V57.6025H20.5195V58.5166H23.1982V59.3545H16.6348V58.5166ZM17.8535 64.8896H25.3691V67.2637H19.085V68.127H25.7881V68.9648H17.8789V66.4893H24.1758V65.7275H17.8535V64.8896ZM18.3486 61.1572C18.3486 61.3857 18.4862 61.5656 18.7612 61.6968C19.0405 61.828 19.4235 61.8936 19.9102 61.8936C20.3926 61.8936 20.7713 61.828 21.0464 61.6968C21.3257 61.5656 21.4632 61.3857 21.459 61.1572C21.4632 60.9414 21.3257 60.7743 21.0464 60.6558C20.7713 60.533 20.3926 60.4717 19.9102 60.4717C19.4193 60.4717 19.0363 60.533 18.7612 60.6558C18.4862 60.7743 18.3486 60.9414 18.3486 61.1572ZM38.0391 64.2041H27.6543V63.2393H32.2627V62.0332H28.9492V58.2246H36.7568V59.1768H30.1426V61.0684H36.833V62.0332H33.4307V63.2393H38.0391V64.2041ZM28.8857 67.0098C28.8857 66.5739 29.0423 66.2015 29.3555 65.8926C29.6686 65.5837 30.1214 65.3488 30.7139 65.188C31.3063 65.0229 32.013 64.9404 32.834 64.9404C33.6507 64.9404 34.3511 65.0229 34.9351 65.188C35.5233 65.3488 35.974 65.5837 36.2871 65.8926C36.6003 66.2015 36.7568 66.5739 36.7568 67.0098C36.7568 67.4456 36.6003 67.818 36.2871 68.127C35.974 68.4359 35.5233 68.6707 34.9351 68.8315C34.3511 68.9966 33.6507 69.0791 32.834 69.0791C32.013 69.0791 31.3063 68.9966 30.7139 68.8315C30.1214 68.6707 29.6686 68.4359 29.3555 68.127C29.0423 67.818 28.8857 67.4456 28.8857 67.0098ZM30.1045 67.0098C30.1003 67.3737 30.3351 67.653 30.8091 67.8477C31.2873 68.0423 31.9622 68.1354 32.834 68.127C33.693 68.1354 34.3595 68.0423 34.8335 67.8477C35.3117 67.653 35.5508 67.3737 35.5508 67.0098C35.5508 66.6501 35.3117 66.3729 34.8335 66.1782C34.3595 65.9793 33.693 65.8799 32.834 65.8799C31.9665 65.8799 31.2936 65.9793 30.8154 66.1782C30.3372 66.3729 30.1003 66.6501 30.1045 67.0098ZM44.0693 57.8945C44.9242 57.8945 45.6541 57.9686 46.2593 58.1167C46.8644 58.2648 47.3278 58.487 47.6494 58.7832C47.971 59.0752 48.1318 59.4307 48.1318 59.8496C48.1318 60.2728 47.971 60.6325 47.6494 60.9287C47.3278 61.2207 46.8644 61.4429 46.2593 61.5952C45.6541 61.7433 44.9242 61.8174 44.0693 61.8174C43.2145 61.8174 42.4824 61.7433 41.873 61.5952C41.2679 61.4429 40.8045 61.2207 40.4829 60.9287C40.1655 60.6325 40.0068 60.2728 40.0068 59.8496C40.0068 59.4307 40.1655 59.0752 40.4829 58.7832C40.8045 58.487 41.2679 58.2648 41.873 58.1167C42.4824 57.9686 43.2145 57.8945 44.0693 57.8945ZM38.8896 62.5156H49.2617V63.4805H38.8896V62.5156ZM40.1338 64.3564H47.9541V67.0225H41.3271V68.0381H48.2715V68.9648H40.1465V66.1465H46.7607V65.2578H40.1338V64.3564ZM41.2637 59.8496C41.2594 60.2008 41.4985 60.4674 41.981 60.6494C42.4634 60.8271 43.1595 60.916 44.0693 60.916C44.9876 60.916 45.688 60.8271 46.1704 60.6494C46.6528 60.4674 46.8919 60.2008 46.8877 59.8496C46.8919 59.5111 46.6486 59.2487 46.1577 59.0625C45.6711 58.8763 44.9749 58.7832 44.0693 58.7832C43.168 58.7832 42.474 58.8763 41.9873 59.0625C41.5007 59.2487 41.2594 59.5111 41.2637 59.8496ZM62.1602 62.3125H63.9883V63.3154H62.1602V69.0791H60.9668V57.7041H62.1602V62.3125ZM53.2354 59.4814H56.041V57.8564H57.2471V59.4814H59.9766V60.4717H53.2354V59.4814ZM53.8193 63.9502C53.8193 63.4424 53.9399 62.9875 54.1812 62.5854C54.4266 62.1834 54.763 61.8703 55.1904 61.646C55.6221 61.4217 56.1087 61.3096 56.6504 61.3096C57.1878 61.3096 57.6702 61.4217 58.0977 61.646C58.5293 61.8703 58.8678 62.1834 59.1133 62.5854C59.3587 62.9875 59.4814 63.4424 59.4814 63.9502C59.4814 64.4622 59.3587 64.9193 59.1133 65.3213C58.8678 65.7233 58.5293 66.0386 58.0977 66.2671C57.6702 66.4914 57.1878 66.6035 56.6504 66.6035C56.1087 66.6035 55.6221 66.4914 55.1904 66.2671C54.763 66.0386 54.4266 65.7233 54.1812 65.3213C53.9399 64.9193 53.8193 64.4622 53.8193 63.9502ZM54.9746 63.9502C54.9746 64.276 55.0444 64.5638 55.1841 64.8135C55.328 65.0632 55.5269 65.2557 55.7808 65.3911C56.0389 65.5265 56.3288 65.5921 56.6504 65.5879C56.9678 65.5921 57.2534 65.5265 57.5073 65.3911C57.7612 65.2557 57.9601 65.0632 58.104 64.8135C58.2521 64.5638 58.3262 64.276 58.3262 63.9502C58.3262 63.6328 58.2521 63.3493 58.104 63.0996C57.9601 62.8499 57.7612 62.6553 57.5073 62.5156C57.2534 62.3717 56.9678 62.2998 56.6504 62.2998C56.3288 62.2998 56.0389 62.3717 55.7808 62.5156C55.5269 62.6553 55.328 62.8499 55.1841 63.0996C55.0444 63.3493 54.9746 63.6328 54.9746 63.9502ZM73.7383 61.9951H65.9053V58.1104H67.0986V61.0303H73.7383V61.9951ZM64.5215 63.4297H74.9316V64.3945H64.5215V63.4297ZM65.8164 65.4736H67.0225V67.8223H73.8145V68.8125H65.8164V65.4736ZM89.3281 64.2041H78.9434V63.2393H83.5518V62.0332H80.2383V58.2246H88.0459V59.1768H81.4316V61.0684H88.1221V62.0332H84.7197V63.2393H89.3281V64.2041ZM80.1748 67.0098C80.1748 66.5739 80.3314 66.2015 80.6445 65.8926C80.9577 65.5837 81.4105 65.3488 82.0029 65.188C82.5954 65.0229 83.3021 64.9404 84.123 64.9404C84.9398 64.9404 85.6401 65.0229 86.2241 65.188C86.8123 65.3488 87.263 65.5837 87.5762 65.8926C87.8893 66.2015 88.0459 66.5739 88.0459 67.0098C88.0459 67.4456 87.8893 67.818 87.5762 68.127C87.263 68.4359 86.8123 68.6707 86.2241 68.8315C85.6401 68.9966 84.9398 69.0791 84.123 69.0791C83.3021 69.0791 82.5954 68.9966 82.0029 68.8315C81.4105 68.6707 80.9577 68.4359 80.6445 68.127C80.3314 67.818 80.1748 67.4456 80.1748 67.0098ZM81.3936 67.0098C81.3893 67.3737 81.6242 67.653 82.0981 67.8477C82.5763 68.0423 83.2513 68.1354 84.123 68.127C84.9821 68.1354 85.6486 68.0423 86.1226 67.8477C86.6007 67.653 86.8398 67.3737 86.8398 67.0098C86.8398 66.6501 86.6007 66.3729 86.1226 66.1782C85.6486 65.9793 84.9821 65.8799 84.123 65.8799C83.2555 65.8799 82.5827 65.9793 82.1045 66.1782C81.6263 66.3729 81.3893 66.6501 81.3936 67.0098ZM93.2256 58.5547C93.7884 58.5547 94.2899 58.7197 94.73 59.0498C95.1743 59.3757 95.5213 59.8411 95.771 60.4463C96.0207 61.0472 96.1455 61.7454 96.1455 62.541C96.1455 63.3451 96.0207 64.0496 95.771 64.6548C95.5213 65.2599 95.1764 65.7254 94.7363 66.0513C94.2962 66.3771 93.7926 66.54 93.2256 66.54C92.6585 66.54 92.1549 66.3771 91.7148 66.0513C91.2747 65.7254 90.932 65.2599 90.6865 64.6548C90.4411 64.0496 90.3184 63.3451 90.3184 62.541C90.3184 61.7454 90.4411 61.0472 90.6865 60.4463C90.932 59.8411 91.2747 59.3757 91.7148 59.0498C92.1549 58.7197 92.6585 58.5547 93.2256 58.5547ZM91.4736 62.541C91.4736 63.1335 91.5456 63.6497 91.6895 64.0898C91.8376 64.5299 92.0449 64.8685 92.3115 65.1055C92.5781 65.3424 92.8828 65.4609 93.2256 65.4609C93.5768 65.4609 93.8857 65.3446 94.1523 65.1118C94.4189 64.8748 94.6242 64.5363 94.7681 64.0962C94.9162 63.6519 94.9902 63.1335 94.9902 62.541C94.9902 61.9528 94.9162 61.4408 94.7681 61.0049C94.6242 60.5648 94.4189 60.2262 94.1523 59.9893C93.8857 59.7523 93.5768 59.6338 93.2256 59.6338C92.8828 59.6338 92.5781 59.7544 92.3115 59.9956C92.0449 60.2326 91.8376 60.5711 91.6895 61.0112C91.5456 61.4471 91.4736 61.957 91.4736 62.541ZM97.834 57.7041H99.04V62.1602H100.868V63.1758H99.04V69.0791H97.834V57.7041ZM110.859 69.1045H109.653V57.7041H110.859V69.1045ZM102.049 58.7324H107.381V62.8838H103.293V65.3721C104.279 65.3678 105.191 65.3361 106.029 65.2769C106.871 65.2176 107.745 65.1139 108.65 64.9658L108.765 65.9561C107.821 66.1126 106.905 66.2205 106.016 66.2798C105.127 66.339 104.131 66.3708 103.026 66.375H102.062V61.9189H106.149V59.71H102.049V58.7324Z" fill="black" fill-opacity="0.7"/>
<path d="M262.5 98.5C261.667 96 260 90.0657 260 89.5C260 88.5 261 86.5 261.5 85" stroke="black"/>
</g>
<defs>
<clipPath id="clip0_12289_11928">
<rect width="343" height="98" rx="10" fill="white"/>
</clipPath>
</defs>
</svg>
