<svg width="340" height="158" viewBox="0 0 340 158" fill="none" xmlns="http://www.w3.org/2000/svg">
<g filter="url(#filter0_d_4747_6038)">
<g clip-path="url(#clip0_4747_6038)">
<rect x="10" y="8" width="320" height="138" rx="10" fill="#C3C3FF"/>
<g filter="url(#filter1_d_4747_6038)">
<path d="M20 8C14.4772 8 10 12.4772 10 18V136C10 141.523 14.4772 146 20 146H193.059C188.266 99.6966 192.715 52.7779 206.281 8H20Z" fill="#5959FF"/>
</g>
<path d="M54.888 50.672V53.24H58.344V61.088H61.512V44.96H58.344V50.672H54.888ZM56.352 55.76C52.872 54.584 51.36 51.872 51.36 49.256V48.968H55.656V46.448H43.776V48.968H48.12V49.28C48.12 52.064 46.536 54.968 42.912 56.144L44.52 58.664C47.088 57.8 48.816 56.048 49.8 53.864C50.76 55.856 52.392 57.44 54.816 58.232L56.352 55.76ZM50.112 64.16V59.744H46.944V66.68H62.016V64.16H50.112ZM82.0781 53.672C82.7021 51.392 82.7021 49.52 82.7021 47.768V45.944H67.3901V48.44H79.5341C79.5341 49.904 79.4621 51.392 78.9581 53.36L82.0781 53.672ZM74.9741 64.688C71.9981 64.688 70.2941 64.088 70.2941 62.912C70.2941 61.712 71.9981 61.112 74.9741 61.112C77.9741 61.112 79.6781 61.712 79.6781 62.912C79.6781 64.088 77.9741 64.688 74.9741 64.688ZM74.9741 58.736C70.2221 58.736 67.1501 60.32 67.1501 62.912C67.1501 65.48 70.2221 67.064 74.9741 67.064C79.7501 67.064 82.8221 65.48 82.8221 62.912C82.8221 60.32 79.7501 58.736 74.9741 58.736ZM75.6941 54.848V50.984H72.5261V54.848H65.1581V57.344H85.0541V54.848H75.6941Z" fill="white"/>
<path d="M50.055 81.045V82.65H52.215V87.555H54.195V77.475H52.215V81.045H50.055ZM50.97 84.225C48.795 83.49 47.85 81.795 47.85 80.16V79.98H50.535V78.405H43.11V79.98H45.825V80.175C45.825 81.915 44.835 83.73 42.57 84.465L43.575 86.04C45.18 85.5 46.26 84.405 46.875 83.04C47.475 84.285 48.495 85.275 50.01 85.77L50.97 84.225ZM47.07 89.475V86.715H45.09V91.05H54.51V89.475H47.07ZM67.0488 82.92C67.4388 81.495 67.4388 80.325 67.4388 79.23V78.09H57.8688V79.65H65.4588C65.4588 80.565 65.4138 81.495 65.0988 82.725L67.0488 82.92ZM62.6088 89.805C60.7488 89.805 59.6838 89.43 59.6838 88.695C59.6838 87.945 60.7488 87.57 62.6088 87.57C64.4838 87.57 65.5488 87.945 65.5488 88.695C65.5488 89.43 64.4838 89.805 62.6088 89.805ZM62.6088 86.085C59.6388 86.085 57.7188 87.075 57.7188 88.695C57.7188 90.3 59.6388 91.29 62.6088 91.29C65.5938 91.29 67.5138 90.3 67.5138 88.695C67.5138 87.075 65.5938 86.085 62.6088 86.085ZM63.0588 83.655V81.24H61.0788V83.655H56.4738V85.215H68.9088V83.655H63.0588ZM78.7027 83.25C76.4677 82.605 75.4927 80.985 75.4927 79.32V77.985H73.4827V79.32C73.4827 81.015 72.4927 82.77 70.1827 83.49L71.1427 85.05C72.7627 84.54 73.8877 83.49 74.5177 82.17C75.1327 83.385 76.1977 84.33 77.7577 84.795L78.7027 83.25ZM74.4727 87.465H79.7827V89.58H74.4727V87.465ZM72.5227 91.125H81.7177V85.92H72.5227V91.125ZM79.7227 77.475V85.275H81.7177V77.475H79.7227ZM92.2765 78.99H89.2165V77.535H87.2365V78.99H84.1465V80.55H92.2765V78.99ZM86.7265 83.685C86.7265 82.98 87.3265 82.59 88.2265 82.59C89.1265 82.59 89.7265 82.98 89.7265 83.685C89.7265 84.42 89.1265 84.81 88.2265 84.81C87.3265 84.81 86.7265 84.42 86.7265 83.685ZM89.2165 86.19C90.6565 85.89 91.6015 84.96 91.6015 83.685C91.6015 82.14 90.2065 81.09 88.2265 81.09C86.2465 81.09 84.8515 82.14 84.8515 83.685C84.8515 84.96 85.7965 85.89 87.2365 86.19V87.36C86.0215 87.39 84.8815 87.39 83.8915 87.39L84.1315 88.995C86.4715 88.995 89.5765 88.995 92.4865 88.425L92.3365 87C91.3465 87.15 90.2815 87.225 89.2165 87.285V86.19ZM96.7465 83.1H95.0215V77.475H93.0415V91.29H95.0215V84.735H96.7465V83.1ZM106.87 79.725H99.4003V83.025H109.06V81.69H101.35V80.97H108.82V77.715H99.3703V79.05H106.87V79.725ZM101.23 89.085H108.865V85.8H99.2503V87.135H106.9V87.84H99.2653V91.17H109.24V89.835H101.23V89.085ZM97.8403 83.685V85.11H110.35V83.685H97.8403ZM120.021 79.635C121.041 79.635 121.746 80.115 121.746 80.985C121.746 81.825 121.041 82.305 120.021 82.305C119.016 82.305 118.296 81.825 118.296 80.985C118.296 80.115 119.016 79.635 120.021 79.635ZM120.021 83.925C122.106 83.925 123.636 82.695 123.636 80.985C123.636 79.245 122.106 78.03 120.021 78.03C117.936 78.03 116.391 79.245 116.391 80.985C116.391 82.695 117.936 83.925 120.021 83.925ZM124.341 84.27C121.416 84.705 117.996 84.735 115.581 84.735L115.806 86.355C116.781 86.355 117.906 86.34 119.091 86.295V90.87H121.071V86.175C122.196 86.07 123.351 85.935 124.461 85.71L124.341 84.27ZM125.121 77.475V91.275H127.101V77.475H125.121ZM137.479 78.93H134.389V77.46H132.394V78.93H129.334V80.475H137.464L137.479 78.93ZM131.899 83.625C131.899 82.875 132.514 82.47 133.399 82.47C134.269 82.47 134.899 82.875 134.899 83.625C134.899 84.39 134.269 84.795 133.399 84.795C132.514 84.795 131.899 84.39 131.899 83.625ZM136.789 83.625C136.789 82.065 135.379 80.97 133.399 80.97C131.419 80.97 130.009 82.065 130.009 83.625C130.009 85.215 131.419 86.295 133.399 86.295C135.379 86.295 136.789 85.215 136.789 83.625ZM133.279 87.045H131.299V91.05H140.704V89.475H133.279V87.045ZM140.209 81.69V77.475H138.229V87.81H140.209V83.325H142.039V81.69H140.209ZM50.67 98.345H47.745V97.37H45.765V98.345H42.825V99.65H50.67V98.345ZM45.255 101.72C45.255 101.33 45.81 101.135 46.755 101.135C47.7 101.135 48.24 101.33 48.24 101.72C48.24 102.125 47.7 102.335 46.755 102.335C45.81 102.335 45.255 102.125 45.255 101.72ZM51.015 103.76C49.965 103.88 48.855 103.97 47.745 104.03V103.475C49.215 103.295 50.115 102.665 50.115 101.72C50.115 100.595 48.81 99.92 46.755 99.92C44.7 99.92 43.38 100.595 43.38 101.72C43.38 102.665 44.28 103.295 45.765 103.475V104.105C44.58 104.135 43.47 104.135 42.48 104.135L42.675 105.485C45.06 105.485 48.255 105.455 51.15 104.945L51.015 103.76ZM46.29 109.22H53.595V106.1H44.31V107.405H51.645V108.005H44.325V111.185H54.075V109.88H46.29V109.22ZM53.595 100.73V97.46H51.615V105.605H53.595V102.35H55.335V100.73H53.595ZM62.6538 109.805C60.8088 109.805 59.8638 109.49 59.8638 108.77C59.8638 108.05 60.8088 107.72 62.6538 107.72C64.4988 107.72 65.4438 108.05 65.4438 108.77C65.4438 109.49 64.4988 109.805 62.6538 109.805ZM62.6538 106.22C59.6688 106.22 57.8688 107.135 57.8688 108.77C57.8688 110.39 59.6688 111.305 62.6538 111.305C65.6388 111.305 67.4538 110.39 67.4538 108.77C67.4538 107.135 65.6388 106.22 62.6538 106.22ZM63.6888 103.97V102.83H67.5288V101.255H59.9388V99.635H67.4538V98.06H57.9738V102.83H61.7088V103.97H56.4588V105.545H68.9538V103.97H63.6888ZM76.4827 99.125C78.4927 99.125 79.4377 99.41 79.4377 100.025C79.4377 100.67 78.4927 100.94 76.4827 100.94C74.4877 100.94 73.5427 100.67 73.5427 100.025C73.5427 99.41 74.4877 99.125 76.4827 99.125ZM76.4827 102.38C79.6477 102.38 81.4927 101.555 81.4927 100.025C81.4927 98.51 79.6477 97.67 76.4827 97.67C73.3327 97.67 71.4877 98.51 71.4877 100.025C71.4877 101.555 73.3327 102.38 76.4827 102.38ZM73.6477 108.92H81.2077V105.365H71.6677V106.82H79.2577V107.555H71.6827V111.185H81.5677V109.7H73.6477V108.92ZM70.2427 103.04V104.585H82.7227V103.04H70.2427ZM91.928 106.85C90.998 106.85 90.308 106.22 90.308 105.17C90.308 104.12 90.998 103.475 91.928 103.475C92.858 103.475 93.533 104.12 93.533 105.155C93.533 106.22 92.858 106.85 91.928 106.85ZM91.928 101.87C89.918 101.87 88.418 103.235 88.418 105.155C88.418 107.105 89.918 108.47 91.928 108.47C93.923 108.47 95.408 107.105 95.408 105.155C95.408 103.235 93.923 101.87 91.928 101.87ZM92.903 97.715H90.923V99.515H87.863V101.09H95.903V99.515H92.903V97.715ZM100.763 102.875H98.783V97.475H96.803V111.29H98.783V104.51H100.763V102.875ZM112.867 101.21H105.262V97.97H103.282V102.785H112.867V101.21ZM105.142 106.88H103.147V110.99H112.942V109.415H105.142V106.88ZM101.737 104.195V105.785H114.247V104.195H101.737ZM125.642 109.805C123.797 109.805 122.852 109.49 122.852 108.77C122.852 108.05 123.797 107.72 125.642 107.72C127.487 107.72 128.432 108.05 128.432 108.77C128.432 109.49 127.487 109.805 125.642 109.805ZM125.642 106.22C122.657 106.22 120.857 107.135 120.857 108.77C120.857 110.39 122.657 111.305 125.642 111.305C128.627 111.305 130.442 110.39 130.442 108.77C130.442 107.135 128.627 106.22 125.642 106.22ZM126.677 103.97V102.83H130.517V101.255H122.927V99.635H130.442V98.06H120.962V102.83H124.697V103.97H119.447V105.545H131.942V103.97H126.677ZM136.936 106.505C135.901 106.505 135.211 105.41 135.211 103.355C135.211 101.315 135.901 100.22 136.936 100.22C137.956 100.22 138.661 101.315 138.661 103.355C138.661 105.41 137.956 106.505 136.936 106.505ZM136.936 98.435C134.836 98.435 133.306 100.325 133.306 103.355C133.306 106.4 134.836 108.305 136.936 108.305C139.021 108.305 140.566 106.4 140.566 103.355C140.566 100.325 139.021 98.435 136.936 98.435ZM146.056 102.68H144.046V97.475H142.066V111.29H144.046V104.315H146.056V102.68ZM149.79 103.985H154.275V98.645H147.75V100.22H152.25V102.425H147.765V108.11H149.01C151.515 108.11 153.54 108.02 155.79 107.63L155.58 106.025C153.63 106.355 151.89 106.46 149.79 106.475V103.985ZM156.54 97.46V111.32H158.52V97.46H156.54Z" fill="white"/>
<path d="M255.975 46.3587L240.602 68.0196L245.856 69.8305L260.433 59.3188L259.8 51.976L255.975 46.3587Z" fill="#A5A5FE"/>
<path d="M259.88 36.8338C252.655 41.3071 255.042 84.1107 255.042 84.1107L282.95 80.6863C282.95 80.6863 283.812 37.485 259.88 36.8338Z" fill="white"/>
<path d="M263.475 37.2204L261.065 33.1014L256.14 35.243L257.386 40.6364C257.43 40.6643 257.477 40.6875 257.524 40.7093C259.189 39.1203 261.26 37.9051 263.475 37.2204Z" fill="#A5A5FE"/>
<path d="M261.189 23.5666L262.003 30.9629C261.268 31.0515 260.967 31.9049 261.217 32.5679C261.168 32.7472 261.156 32.9397 261.183 33.1278C260.062 34.2402 257.951 35.796 254.892 35.7086C250.106 35.5722 251.455 26.144 251.455 26.144L261.189 23.5666Z" fill="#A5A5FE"/>
<path d="M264.413 28.6987C264.36 28.1548 264.909 26.895 265.26 26.4767C267.52 23.7769 264.901 22.4996 263.98 22.099C262.961 21.6552 262.872 19.9535 261.526 19.211C259.471 18.0799 257.953 19.8434 256.751 19.8162C255.548 19.7889 254.571 18.3529 253.006 19.4505C251.442 20.549 251.844 21.8511 251.391 22.5012C250.938 23.1519 249.686 21.7592 248.317 23.8033C246.235 26.9129 251.364 27.2687 251.364 27.2687C251.364 27.2687 254.248 27.9503 257.601 25.966C258.061 25.6939 258.662 25.706 259.042 26.0824C260.085 27.1115 261.086 33.2299 261.086 33.2299L262.12 32.0439C262.12 32.0439 264.653 31.1888 264.413 28.6987Z" fill="#5959FF"/>
<path d="M261.723 29.75C261.58 30.3642 260.967 30.7465 260.353 30.6033C259.739 30.4609 259.357 29.8476 259.499 29.2334C259.642 28.6199 260.256 28.2384 260.869 28.3801C261.483 28.5226 261.865 29.1365 261.723 29.75Z" fill="#A5A5FE"/>
<path d="M303.948 132.062C303.948 132.062 305.972 134.574 306.966 140.05C307.137 140.992 306.874 141.961 307.682 142.405C308.166 142.67 308.677 142.195 308.716 141.644L309.097 136.198C309.101 136.141 309.1 136.083 309.094 136.027L308.595 131.125C308.568 130.859 308.787 130.634 309.053 130.652C309.29 130.669 309.496 130.49 309.512 130.253L309.629 128.591C309.663 128.105 309.342 127.666 308.862 127.582C307.47 127.338 304.755 127.037 304.213 128.268L303.948 132.062Z" fill="#5959FF"/>
<path d="M300.543 131.244L303.949 132.062C304.765 131.044 304.911 129.641 304.321 128.477L304.214 128.268L300.828 127.175L300.543 131.244Z" fill="#A5A5FE"/>
<path d="M256.59 86.8054C256.59 86.8054 242.904 108.656 242.411 115.695C241.919 122.736 256.285 151.332 256.285 151.332L260.945 151.657C260.945 151.657 261.335 134.201 259.193 119.556C258.772 116.683 259.856 113.783 262.107 111.948C272.656 103.352 282.511 88.6179 282.511 88.6179L256.59 86.8054Z" fill="#A5A5FE"/>
<path d="M281.692 90.1446C281.692 90.1446 280.614 100.978 275.79 110.157C274.302 112.988 275.759 116.451 278.836 117.323C291.563 120.932 299.351 125.612 301.274 126.846C301.571 127.037 301.728 127.371 301.704 127.722L301.462 131.175C301.42 131.78 300.854 132.208 300.26 132.084L266.706 125.079C261.139 123.917 257.089 119.098 256.901 113.415L256.539 102.506L281.692 90.1446Z" fill="#A5A5FE"/>
<g filter="url(#filter2_f_4747_6038)">
<path d="M181.347 60.5975C181.675 60.2173 181.94 59.771 182.114 59.2671C182.131 59.2182 182.139 59.1685 182.154 59.1196C182.242 58.8283 182.297 58.5334 182.32 58.2413C182.321 58.2228 182.32 58.2044 182.321 58.1866C182.329 58.059 182.333 57.9307 182.329 57.8051C182.324 57.6555 182.311 57.5065 182.288 57.3604L197.336 54.0293L197.336 54.8916C197.336 61.0744 195.173 67.0624 191.222 71.8184L181.347 60.5975Z" fill="black" fill-opacity="0.2"/>
</g>
<path d="M188.893 63.1107C188.004 65.6961 189.37 65.3171 191.966 69.401L324.45 114.932C327.036 115.821 329.852 114.446 330.741 111.86L333.637 103.434C334.525 100.848 333.15 98.0322 330.563 97.1431L198.079 51.6119C195.494 50.7235 195.521 54.7822 194.632 57.3676L188.893 63.1107Z" fill="#6C6CFF"/>
<path d="M332.029 108.115L330.742 111.86C329.853 114.446 327.037 115.821 324.451 114.932L191.966 69.4004C189.381 68.5121 190.181 59.3651 190.181 59.3651L332.029 108.115Z" fill="#4343FE"/>
<path d="M311.5 110.5L317 92.5L321.203 93.9255L330.566 97.1424C333.152 98.0315 334.527 100.847 333.638 103.433L332.029 108.115L330.742 111.86C329.854 114.446 327.038 115.821 324.452 114.932L315.089 111.715L311.5 110.5Z" fill="#A5A5FE"/>
<path d="M313.683 111.232L307.129 108.98L313.242 91.1898L319.796 93.4421L313.683 111.232Z" fill="#EFEEEE"/>
<g filter="url(#filter3_f_4747_6038)">
<path d="M182.288 57.3597L178.005 57.6809L181.346 60.5975L183.05 59.5893L182.288 57.3597Z" fill="black" fill-opacity="0.2"/>
</g>
<path d="M182.392 54.7213L178.11 55.0425L181.45 57.9591L183.154 56.9509L182.392 54.7213Z" fill="#2E2EFF"/>
<path d="M181.452 57.9591C181.78 57.5788 182.045 57.1325 182.219 56.6286C182.236 56.5797 182.244 56.5301 182.259 56.4812C182.347 56.1899 182.402 55.895 182.425 55.6028C182.426 55.5844 182.425 55.5659 182.426 55.5482C182.434 55.4206 182.438 55.2922 182.434 55.1667C182.429 55.017 182.415 54.8681 182.393 54.722L197.441 51.3908L197.441 52.2532C197.441 58.436 195.278 64.424 191.327 69.18L181.452 57.9591Z" fill="white"/>
<path fill-rule="evenodd" clip-rule="evenodd" d="M269.168 59.9316L278.779 53.9873C278.779 53.9873 284.333 60.2791 285.5 66.283C286.546 71.6725 281.942 86.2674 280.988 89.2014C280.881 89.5291 280.95 89.8809 281.169 90.1471L283.401 92.8616C284.411 94.0903 284.62 95.8201 283.704 97.1207C282.938 98.2098 281.954 99.3236 281.048 99.5C279.816 99.7383 278.481 98.0788 277.729 96.9469C277.33 96.347 277.121 95.6456 277.116 94.9251L277.082 90.4446L276.139 68.9201C276.109 68.2408 275.849 67.5918 275.402 67.0794L269.168 59.9316Z" fill="#A5A5FE"/>
</g>
</g>
<defs>
<filter id="filter0_d_4747_6038" x="0" y="0" width="340" height="158" filterUnits="userSpaceOnUse" color-interpolation-filters="sRGB">
<feFlood flood-opacity="0" result="BackgroundImageFix"/>
<feColorMatrix in="SourceAlpha" type="matrix" values="0 0 0 0 0 0 0 0 0 0 0 0 0 0 0 0 0 0 127 0" result="hardAlpha"/>
<feOffset dy="2"/>
<feGaussianBlur stdDeviation="5"/>
<feComposite in2="hardAlpha" operator="out"/>
<feColorMatrix type="matrix" values="0 0 0 0 0 0 0 0 0 0 0 0 0 0 0 0 0 0 1 0"/>
<feBlend mode="normal" in2="BackgroundImageFix" result="effect1_dropShadow_4747_6038"/>
<feBlend mode="normal" in="SourceGraphic" in2="effect1_dropShadow_4747_6038" result="shape"/>
</filter>
<filter id="filter1_d_4747_6038" x="-12" y="-16" width="244.281" height="186" filterUnits="userSpaceOnUse" color-interpolation-filters="sRGB">
<feFlood flood-opacity="0" result="BackgroundImageFix"/>
<feColorMatrix in="SourceAlpha" type="matrix" values="0 0 0 0 0 0 0 0 0 0 0 0 0 0 0 0 0 0 127 0" result="hardAlpha"/>
<feOffset dx="2"/>
<feGaussianBlur stdDeviation="12"/>
<feComposite in2="hardAlpha" operator="out"/>
<feColorMatrix type="matrix" values="0 0 0 0 0.34902 0 0 0 0 0.34902 0 0 0 0 1 0 0 0 0.3 0"/>
<feBlend mode="normal" in2="BackgroundImageFix" result="effect1_dropShadow_4747_6038"/>
<feBlend mode="normal" in="SourceGraphic" in2="effect1_dropShadow_4747_6038" result="shape"/>
</filter>
<filter id="filter2_f_4747_6038" x="177.347" y="50.0293" width="23.9893" height="25.7892" filterUnits="userSpaceOnUse" color-interpolation-filters="sRGB">
<feFlood flood-opacity="0" result="BackgroundImageFix"/>
<feBlend mode="normal" in="SourceGraphic" in2="BackgroundImageFix" result="shape"/>
<feGaussianBlur stdDeviation="2" result="effect1_foregroundBlur_4747_6038"/>
</filter>
<filter id="filter3_f_4747_6038" x="174.005" y="53.3597" width="13.0444" height="11.2378" filterUnits="userSpaceOnUse" color-interpolation-filters="sRGB">
<feFlood flood-opacity="0" result="BackgroundImageFix"/>
<feBlend mode="normal" in="SourceGraphic" in2="BackgroundImageFix" result="shape"/>
<feGaussianBlur stdDeviation="2" result="effect1_foregroundBlur_4747_6038"/>
</filter>
<clipPath id="clip0_4747_6038">
<rect x="10" y="8" width="320" height="138" rx="10" fill="white"/>
</clipPath>
</defs>
</svg>
