<svg width="340" height="158" viewBox="0 0 340 158" fill="none" xmlns="http://www.w3.org/2000/svg">
<g filter="url(#filter0_d_3558_42358)">
<g clip-path="url(#clip0_3558_42358)">
<rect x="10" y="8" width="320" height="138" rx="10" fill="#C3C3FF"/>
<g filter="url(#filter1_d_3558_42358)">
<path d="M20 8C14.4772 8 10 12.4772 10 18V136C10 141.523 14.4772 146 20 146H193.059C188.266 99.6966 192.715 52.7779 206.281 8H20Z" fill="#5959FF"/>
</g>
<path d="M53.814 50.866V53.22H56.982V60.414H59.886V45.63H56.982V50.866H53.814ZM55.156 55.53C51.966 54.452 50.58 51.966 50.58 49.568V49.304H54.518V46.994H43.628V49.304H47.61V49.59C47.61 52.142 46.158 54.804 42.836 55.882L44.31 58.192C46.664 57.4 48.248 55.794 49.15 53.792C50.03 55.618 51.526 57.07 53.748 57.796L55.156 55.53ZM49.436 63.23V59.182H46.532V65.54H60.348V63.23H49.436ZM78.7383 53.616C79.3103 51.526 79.3103 49.81 79.3103 48.204V46.532H65.2743V48.82H76.4063C76.4063 50.162 76.3403 51.526 75.8783 53.33L78.7383 53.616ZM72.2263 63.714C69.4983 63.714 67.9363 63.164 67.9363 62.086C67.9363 60.986 69.4983 60.436 72.2263 60.436C74.9763 60.436 76.5383 60.986 76.5383 62.086C76.5383 63.164 74.9763 63.714 72.2263 63.714ZM72.2263 58.258C67.8703 58.258 65.0543 59.71 65.0543 62.086C65.0543 64.44 67.8703 65.892 72.2263 65.892C76.6043 65.892 79.4203 64.44 79.4203 62.086C79.4203 59.71 76.6043 58.258 72.2263 58.258ZM72.8863 54.694V51.152H69.9823V54.694H63.2283V56.982H81.4663V54.694H72.8863Z" fill="white"/>
<path d="M49.518 81.642V83.14H51.534V87.718H53.382V78.31H51.534V81.642H49.518ZM50.372 84.61C48.342 83.924 47.46 82.342 47.46 80.816V80.648H49.966V79.178H43.036V80.648H45.57V80.83C45.57 82.454 44.646 84.148 42.532 84.834L43.47 86.304C44.968 85.8 45.976 84.778 46.55 83.504C47.11 84.666 48.062 85.59 49.476 86.052L50.372 84.61ZM46.732 89.51V86.934H44.884V90.98H53.676V89.51H46.732ZM65.3789 83.392C65.7429 82.062 65.7429 80.97 65.7429 79.948V78.884H56.8109V80.34H63.8949C63.8949 81.194 63.8529 82.062 63.5589 83.21L65.3789 83.392ZM61.2349 89.818C59.4989 89.818 58.5049 89.468 58.5049 88.782C58.5049 88.082 59.4989 87.732 61.2349 87.732C62.9849 87.732 63.9789 88.082 63.9789 88.782C63.9789 89.468 62.9849 89.818 61.2349 89.818ZM61.2349 86.346C58.4629 86.346 56.6709 87.27 56.6709 88.782C56.6709 90.28 58.4629 91.204 61.2349 91.204C64.0209 91.204 65.8129 90.28 65.8129 88.782C65.8129 87.27 64.0209 86.346 61.2349 86.346ZM61.6549 84.078V81.824H59.8069V84.078H55.5089V85.534H67.1149V84.078H61.6549ZM76.2558 83.7C74.1698 83.098 73.2598 81.586 73.2598 80.032V78.786H71.3838V80.032C71.3838 81.614 70.4598 83.252 68.3038 83.924L69.1998 85.38C70.7118 84.904 71.7618 83.924 72.3498 82.692C72.9238 83.826 73.9178 84.708 75.3738 85.142L76.2558 83.7ZM72.3078 87.634H77.2638V89.608H72.3078V87.634ZM70.4878 91.05H79.0698V86.192H70.4878V91.05ZM77.2078 78.31V85.59H79.0698V78.31H77.2078ZM88.9247 79.724H86.0687V78.366H84.2207V79.724H81.3367V81.18H88.9247V79.724ZM83.7447 84.106C83.7447 83.448 84.3047 83.084 85.1447 83.084C85.9847 83.084 86.5447 83.448 86.5447 84.106C86.5447 84.792 85.9847 85.156 85.1447 85.156C84.3047 85.156 83.7447 84.792 83.7447 84.106ZM86.0687 86.444C87.4127 86.164 88.2947 85.296 88.2947 84.106C88.2947 82.664 86.9927 81.684 85.1447 81.684C83.2967 81.684 81.9947 82.664 81.9947 84.106C81.9947 85.296 82.8767 86.164 84.2207 86.444V87.536C83.0867 87.564 82.0227 87.564 81.0987 87.564L81.3227 89.062C83.5067 89.062 86.4047 89.062 89.1207 88.53L88.9807 87.2C88.0567 87.34 87.0627 87.41 86.0687 87.466V86.444ZM93.0967 83.56H91.4867V78.31H89.6387V91.204H91.4867V85.086H93.0967V83.56ZM102.546 80.41H95.5736V83.49H104.59V82.244H97.3936V81.572H104.366V78.534H95.5456V79.78H102.546V80.41ZM97.2816 89.146H104.408V86.08H95.4336V87.326H102.574V87.984H95.4476V91.092H104.758V89.846H97.2816V89.146ZM94.1176 84.106V85.436H105.794V84.106H94.1176ZM114.819 80.326C115.771 80.326 116.429 80.774 116.429 81.586C116.429 82.37 115.771 82.818 114.819 82.818C113.881 82.818 113.209 82.37 113.209 81.586C113.209 80.774 113.881 80.326 114.819 80.326ZM114.819 84.33C116.765 84.33 118.193 83.182 118.193 81.586C118.193 79.962 116.765 78.828 114.819 78.828C112.873 78.828 111.431 79.962 111.431 81.586C111.431 83.182 112.873 84.33 114.819 84.33ZM118.851 84.652C116.121 85.058 112.929 85.086 110.675 85.086L110.885 86.598C111.795 86.598 112.845 86.584 113.951 86.542V90.812H115.799V86.43C116.849 86.332 117.927 86.206 118.963 85.996L118.851 84.652ZM119.579 78.31V91.19H121.427V78.31H119.579ZM131.002 79.36H128.272V78.254H126.424V79.36H123.68V80.676H131.002V79.36ZM125.948 83.014C125.948 82.51 126.48 82.244 127.348 82.244C128.216 82.244 128.734 82.51 128.734 83.014C128.734 83.504 128.216 83.77 127.348 83.77C126.48 83.77 125.948 83.504 125.948 83.014ZM131.324 85.296C130.344 85.436 129.322 85.52 128.272 85.59V84.932C129.63 84.722 130.484 84.022 130.484 83.014C130.484 81.768 129.238 81.012 127.348 81.012C125.444 81.012 124.198 81.768 124.198 83.014C124.198 84.022 125.052 84.722 126.424 84.932V85.674C125.318 85.716 124.268 85.716 123.358 85.716L123.554 87.13C125.752 87.116 128.79 87.06 131.464 86.556L131.324 85.296ZM126.998 87.746H125.15V90.98H134.166V89.51H126.998V87.746ZM133.732 82.524V78.296H131.884V88.376H133.732V84.036H135.356V82.524H133.732ZM147.518 79.122H144.788V78.212H142.94V79.122H140.196V80.34H147.518V79.122ZM142.464 82.272C142.464 81.908 142.982 81.726 143.864 81.726C144.746 81.726 145.25 81.908 145.25 82.272C145.25 82.65 144.746 82.846 143.864 82.846C142.982 82.846 142.464 82.65 142.464 82.272ZM147.84 84.176C146.86 84.288 145.824 84.372 144.788 84.428V83.91C146.16 83.742 147 83.154 147 82.272C147 81.222 145.782 80.592 143.864 80.592C141.946 80.592 140.714 81.222 140.714 82.272C140.714 83.154 141.554 83.742 142.94 83.91V84.498C141.834 84.526 140.798 84.526 139.874 84.526L140.056 85.786C142.282 85.786 145.264 85.758 147.966 85.282L147.84 84.176ZM143.43 89.272H150.248V86.36H141.582V87.578H148.428V88.138H141.596V91.106H150.696V89.888H143.43V89.272ZM150.248 81.348V78.296H148.4V85.898H150.248V82.86H151.872V81.348H150.248ZM158.703 89.818C156.981 89.818 156.099 89.524 156.099 88.852C156.099 88.18 156.981 87.872 158.703 87.872C160.425 87.872 161.307 88.18 161.307 88.852C161.307 89.524 160.425 89.818 158.703 89.818ZM158.703 86.472C155.917 86.472 154.237 87.326 154.237 88.852C154.237 90.364 155.917 91.218 158.703 91.218C161.489 91.218 163.183 90.364 163.183 88.852C163.183 87.326 161.489 86.472 158.703 86.472ZM159.669 84.372V83.308H163.253V81.838H156.169V80.326H163.183V78.856H154.335V83.308H157.821V84.372H152.921V85.842H164.583V84.372H159.669ZM48.426 98.85C50.302 98.85 51.184 99.116 51.184 99.69C51.184 100.292 50.302 100.544 48.426 100.544C46.564 100.544 45.682 100.292 45.682 99.69C45.682 99.116 46.564 98.85 48.426 98.85ZM48.426 101.888C51.38 101.888 53.102 101.118 53.102 99.69C53.102 98.276 51.38 97.492 48.426 97.492C45.486 97.492 43.764 98.276 43.764 99.69C43.764 101.118 45.486 101.888 48.426 101.888ZM45.78 107.992H52.836V104.674H43.932V106.032H51.016V106.718H43.946V110.106H53.172V108.72H45.78V107.992ZM42.602 102.504V103.946H54.25V102.504H42.602ZM70.3596 101.888C67.4336 101.482 65.9496 99.802 65.9496 98.304V97.688H63.9756V98.304C63.9756 99.816 62.5056 101.482 59.5656 101.888L60.2656 103.372C62.5196 103.036 64.1436 101.986 64.9696 100.6C65.7956 101.986 67.4056 103.036 69.6596 103.372L70.3596 101.888ZM70.7796 104.324H59.1316V105.822H63.9896V110.218H65.8376V105.822H70.7796V104.324ZM80.2845 101.986H81.2365V105.374H82.9865V97.31H81.2365V100.488H80.2845V97.548H78.5625V104.968H80.2845V101.986ZM78.1985 98.626H75.9725V97.45H74.1525V98.626H71.9265V100.054H78.1985V98.626ZM73.9425 102.714C73.9425 102.112 74.4045 101.79 75.0905 101.79C75.7765 101.79 76.2245 102.112 76.2245 102.714C76.2245 103.316 75.7765 103.652 75.0905 103.652C74.4045 103.652 73.9425 103.316 73.9425 102.714ZM77.8625 102.714C77.8625 101.384 76.7145 100.474 75.0905 100.474C73.4525 100.474 72.3045 101.384 72.3045 102.714C72.3045 104.044 73.4525 104.968 75.0905 104.968C76.7145 104.968 77.8625 104.044 77.8625 102.714ZM78.6185 108.832C76.8965 108.832 76.0285 108.538 76.0285 107.866C76.0285 107.194 76.8965 106.9 78.6185 106.9C80.3405 106.9 81.2085 107.194 81.2085 107.866C81.2085 108.538 80.3405 108.832 78.6185 108.832ZM78.6185 105.514C75.8465 105.514 74.1805 106.368 74.1805 107.866C74.1805 109.364 75.8465 110.204 78.6185 110.204C81.3905 110.204 83.0565 109.364 83.0565 107.866C83.0565 106.368 81.3905 105.514 78.6185 105.514ZM88.5994 106.06C87.7314 106.06 87.0874 105.472 87.0874 104.492C87.0874 103.512 87.7314 102.91 88.5994 102.91C89.4674 102.91 90.0974 103.512 90.0974 104.478C90.0974 105.472 89.4674 106.06 88.5994 106.06ZM88.5994 101.412C86.7234 101.412 85.3234 102.686 85.3234 104.478C85.3234 106.298 86.7234 107.572 88.5994 107.572C90.4614 107.572 91.8474 106.298 91.8474 104.478C91.8474 102.686 90.4614 101.412 88.5994 101.412ZM89.5094 97.534H87.6614V99.214H84.8054V100.684H92.3094V99.214H89.5094V97.534ZM96.8454 102.35H94.9974V97.31H93.1494V110.204H94.9974V103.876H96.8454V102.35ZM108.142 100.796H101.044V97.772H99.1963V102.266H108.142V100.796ZM100.932 106.088H99.0703V109.924H108.212V108.454H100.932V106.088ZM97.7543 103.582V105.066H109.43V103.582H97.7543ZM120.066 108.818C118.344 108.818 117.462 108.524 117.462 107.852C117.462 107.18 118.344 106.872 120.066 106.872C121.788 106.872 122.67 107.18 122.67 107.852C122.67 108.524 121.788 108.818 120.066 108.818ZM120.066 105.472C117.28 105.472 115.6 106.326 115.6 107.852C115.6 109.364 117.28 110.218 120.066 110.218C122.852 110.218 124.546 109.364 124.546 107.852C124.546 106.326 122.852 105.472 120.066 105.472ZM121.032 103.372V102.308H124.616V100.838H117.532V99.326H124.546V97.856H115.698V102.308H119.184V103.372H114.284V104.842H125.946V103.372H121.032ZM130.607 105.738C129.641 105.738 128.997 104.716 128.997 102.798C128.997 100.894 129.641 99.872 130.607 99.872C131.559 99.872 132.217 100.894 132.217 102.798C132.217 104.716 131.559 105.738 130.607 105.738ZM130.607 98.206C128.647 98.206 127.219 99.97 127.219 102.798C127.219 105.64 128.647 107.418 130.607 107.418C132.553 107.418 133.995 105.64 133.995 102.798C133.995 99.97 132.553 98.206 130.607 98.206ZM139.119 102.168H137.243V97.31H135.395V110.204H137.243V103.694H139.119V102.168ZM142.604 103.386H146.79V98.402H140.7V99.872H144.9V101.93H140.714V107.236H141.876C144.214 107.236 146.104 107.152 148.204 106.788L148.008 105.29C146.188 105.598 144.564 105.696 142.604 105.71V103.386ZM148.904 97.296V110.232H150.752V97.296H148.904Z" fill="white"/>
<path d="M255.975 46.3587L240.602 68.0196L245.856 69.8305L260.433 59.3188L259.8 51.976L255.975 46.3587Z" fill="#A5A5FE"/>
<path d="M259.88 36.8338C252.655 41.3071 255.042 84.1107 255.042 84.1107L282.95 80.6863C282.95 80.6863 283.812 37.485 259.88 36.8338Z" fill="white"/>
<path d="M263.475 37.2204L261.065 33.1014L256.14 35.243L257.386 40.6364C257.43 40.6643 257.477 40.6875 257.524 40.7093C259.189 39.1203 261.26 37.9051 263.475 37.2204Z" fill="#A5A5FE"/>
<path d="M261.189 23.5666L262.003 30.9629C261.268 31.0515 260.967 31.9049 261.217 32.5679C261.168 32.7472 261.156 32.9397 261.183 33.1278C260.062 34.2402 257.951 35.796 254.892 35.7086C250.106 35.5722 251.455 26.144 251.455 26.144L261.189 23.5666Z" fill="#A5A5FE"/>
<path d="M264.413 28.6987C264.36 28.1548 264.909 26.895 265.26 26.4767C267.52 23.7769 264.901 22.4996 263.98 22.099C262.961 21.6552 262.872 19.9535 261.526 19.211C259.471 18.0799 257.953 19.8434 256.751 19.8162C255.548 19.7889 254.571 18.3529 253.006 19.4505C251.442 20.549 251.844 21.8511 251.391 22.5012C250.938 23.1519 249.686 21.7592 248.317 23.8033C246.235 26.9129 251.364 27.2687 251.364 27.2687C251.364 27.2687 254.248 27.9503 257.601 25.966C258.061 25.6939 258.662 25.706 259.042 26.0824C260.085 27.1115 261.086 33.2299 261.086 33.2299L262.12 32.0439C262.12 32.0439 264.653 31.1888 264.413 28.6987Z" fill="#5959FF"/>
<path d="M261.723 29.75C261.58 30.3642 260.967 30.7465 260.353 30.6033C259.739 30.4609 259.357 29.8476 259.499 29.2334C259.642 28.6199 260.256 28.2384 260.869 28.3801C261.483 28.5226 261.865 29.1365 261.723 29.75Z" fill="#A5A5FE"/>
<path d="M303.948 132.062C303.948 132.062 305.972 134.574 306.966 140.05C307.137 140.992 306.874 141.961 307.682 142.405C308.166 142.67 308.677 142.195 308.716 141.644L309.097 136.198C309.101 136.141 309.1 136.083 309.094 136.027L308.595 131.125C308.568 130.859 308.787 130.634 309.053 130.652V130.652C309.29 130.669 309.496 130.49 309.512 130.253L309.629 128.591C309.663 128.105 309.342 127.666 308.862 127.582C307.47 127.338 304.755 127.037 304.213 128.268L303.948 132.062Z" fill="#5959FF"/>
<path d="M300.543 131.244L303.949 132.062C304.765 131.044 304.911 129.641 304.321 128.477L304.214 128.268L300.828 127.175L300.543 131.244Z" fill="#A5A5FE"/>
<path d="M256.59 86.8054C256.59 86.8054 242.904 108.656 242.411 115.695C241.919 122.736 256.285 151.332 256.285 151.332L260.945 151.657C260.945 151.657 261.335 134.201 259.193 119.556C258.772 116.683 259.856 113.783 262.107 111.948C272.656 103.352 282.511 88.6179 282.511 88.6179L256.59 86.8054Z" fill="#A5A5FE"/>
<path d="M281.692 90.1446C281.692 90.1446 280.614 100.978 275.79 110.157C274.302 112.988 275.759 116.451 278.836 117.323C291.563 120.932 299.351 125.612 301.274 126.846C301.571 127.037 301.728 127.371 301.704 127.722L301.462 131.175C301.42 131.78 300.854 132.208 300.26 132.084L266.706 125.079C261.139 123.917 257.089 119.098 256.901 113.415L256.539 102.506L281.692 90.1446Z" fill="#A5A5FE"/>
<g filter="url(#filter2_f_3558_42358)">
<path d="M181.347 60.5975C181.675 60.2173 181.94 59.771 182.114 59.2671C182.131 59.2182 182.139 59.1685 182.154 59.1196C182.242 58.8283 182.297 58.5334 182.32 58.2413C182.321 58.2228 182.32 58.2044 182.321 58.1866C182.329 58.059 182.333 57.9307 182.329 57.8051C182.324 57.6555 182.311 57.5065 182.288 57.3604L197.336 54.0293L197.336 54.8916C197.336 61.0744 195.173 67.0624 191.222 71.8184V71.8184L181.347 60.5975Z" fill="black" fill-opacity="0.2"/>
</g>
<path d="M188.893 63.1107C188.004 65.6961 189.37 65.3171 191.966 69.401L324.45 114.932C327.036 115.821 329.852 114.446 330.741 111.86L333.637 103.434C334.525 100.848 333.15 98.0322 330.563 97.1431L198.079 51.6119C195.494 50.7235 195.521 54.7822 194.632 57.3676L188.893 63.1107Z" fill="#6C6CFF"/>
<path d="M332.029 108.115L330.742 111.86C329.853 114.446 327.037 115.821 324.451 114.932L191.966 69.4004C189.381 68.5121 190.181 59.3651 190.181 59.3651L332.029 108.115Z" fill="#4343FE"/>
<path d="M311.5 110.5L317 92.5L321.203 93.9255L330.566 97.1424C333.152 98.0315 334.527 100.847 333.638 103.433L332.029 108.115L330.742 111.86C329.854 114.446 327.038 115.821 324.452 114.932L315.089 111.715L311.5 110.5Z" fill="#A5A5FE"/>
<path d="M313.683 111.232L307.129 108.98L313.242 91.1898L319.796 93.4421L313.683 111.232Z" fill="#EFEEEE"/>
<g filter="url(#filter3_f_3558_42358)">
<path d="M182.288 57.3597L178.005 57.6809L181.346 60.5975L183.05 59.5893L182.288 57.3597Z" fill="black" fill-opacity="0.2"/>
</g>
<path d="M182.392 54.7213L178.11 55.0425L181.45 57.9591L183.154 56.9509L182.392 54.7213Z" fill="#2E2EFF"/>
<path d="M181.452 57.9591C181.78 57.5788 182.045 57.1325 182.219 56.6286C182.236 56.5797 182.244 56.5301 182.259 56.4812C182.347 56.1899 182.402 55.895 182.425 55.6028C182.426 55.5844 182.425 55.5659 182.426 55.5482C182.434 55.4206 182.438 55.2922 182.434 55.1667C182.429 55.017 182.415 54.8681 182.393 54.722L197.441 51.3908L197.441 52.2532C197.441 58.436 195.278 64.424 191.327 69.18V69.18L181.452 57.9591Z" fill="white"/>
<path fill-rule="evenodd" clip-rule="evenodd" d="M269.168 59.9316L278.779 53.9873C278.779 53.9873 284.333 60.2791 285.5 66.283C286.546 71.6725 281.942 86.2674 280.988 89.2013C280.881 89.5291 280.95 89.8809 281.169 90.1471L283.401 92.8616C284.411 94.0903 284.62 95.8201 283.704 97.1207C282.938 98.2098 281.954 99.3236 281.048 99.5C279.816 99.7383 278.481 98.0788 277.729 96.9469C277.33 96.347 277.121 95.6456 277.116 94.9251L277.082 90.4446L276.139 68.9201C276.109 68.2408 275.849 67.5918 275.402 67.0794L269.168 59.9316Z" fill="#A5A5FE"/>
</g>
</g>
<defs>
<filter id="filter0_d_3558_42358" x="0" y="0" width="340" height="158" filterUnits="userSpaceOnUse" color-interpolation-filters="sRGB">
<feFlood flood-opacity="0" result="BackgroundImageFix"/>
<feColorMatrix in="SourceAlpha" type="matrix" values="0 0 0 0 0 0 0 0 0 0 0 0 0 0 0 0 0 0 127 0" result="hardAlpha"/>
<feOffset dy="2"/>
<feGaussianBlur stdDeviation="5"/>
<feComposite in2="hardAlpha" operator="out"/>
<feColorMatrix type="matrix" values="0 0 0 0 0 0 0 0 0 0 0 0 0 0 0 0 0 0 1 0"/>
<feBlend mode="normal" in2="BackgroundImageFix" result="effect1_dropShadow_3558_42358"/>
<feBlend mode="normal" in="SourceGraphic" in2="effect1_dropShadow_3558_42358" result="shape"/>
</filter>
<filter id="filter1_d_3558_42358" x="-12" y="-16" width="244.281" height="186" filterUnits="userSpaceOnUse" color-interpolation-filters="sRGB">
<feFlood flood-opacity="0" result="BackgroundImageFix"/>
<feColorMatrix in="SourceAlpha" type="matrix" values="0 0 0 0 0 0 0 0 0 0 0 0 0 0 0 0 0 0 127 0" result="hardAlpha"/>
<feOffset dx="2"/>
<feGaussianBlur stdDeviation="12"/>
<feComposite in2="hardAlpha" operator="out"/>
<feColorMatrix type="matrix" values="0 0 0 0 0.34902 0 0 0 0 0.34902 0 0 0 0 1 0 0 0 0.3 0"/>
<feBlend mode="normal" in2="BackgroundImageFix" result="effect1_dropShadow_3558_42358"/>
<feBlend mode="normal" in="SourceGraphic" in2="effect1_dropShadow_3558_42358" result="shape"/>
</filter>
<filter id="filter2_f_3558_42358" x="177.347" y="50.0293" width="23.9893" height="25.7892" filterUnits="userSpaceOnUse" color-interpolation-filters="sRGB">
<feFlood flood-opacity="0" result="BackgroundImageFix"/>
<feBlend mode="normal" in="SourceGraphic" in2="BackgroundImageFix" result="shape"/>
<feGaussianBlur stdDeviation="2" result="effect1_foregroundBlur_3558_42358"/>
</filter>
<filter id="filter3_f_3558_42358" x="174.005" y="53.3597" width="13.0444" height="11.2378" filterUnits="userSpaceOnUse" color-interpolation-filters="sRGB">
<feFlood flood-opacity="0" result="BackgroundImageFix"/>
<feBlend mode="normal" in="SourceGraphic" in2="BackgroundImageFix" result="shape"/>
<feGaussianBlur stdDeviation="2" result="effect1_foregroundBlur_3558_42358"/>
</filter>
<clipPath id="clip0_3558_42358">
<rect x="10" y="8" width="320" height="138" rx="10" fill="white"/>
</clipPath>
</defs>
</svg>
