<svg width="340" height="158" viewBox="0 0 340 158" fill="none" xmlns="http://www.w3.org/2000/svg">
<g filter="url(#filter0_d_3189_5497)">
<g clip-path="url(#clip0_3189_5497)">
<rect x="10" y="8" width="320" height="138" rx="10" fill="#C3C3FF"/>
<g filter="url(#filter1_d_3189_5497)">
<path d="M10 18C10 12.4772 14.4772 8 20 8H206.281C189.255 64.1989 186.59 123.77 198.532 181.264L214.765 259.419C224.167 304.689 224.786 351.344 216.587 396.848L206.289 454H20C14.4771 454 10 449.523 10 444V18Z" fill="#5959FF"/>
</g>
<path d="M54.864 43.5326V46.1006H60.048V43.5326H54.864ZM58.368 37.8206V54.0206H61.56V37.8206H58.368ZM46.896 57.0926V59.6366H62.064V57.0926H46.896ZM46.896 52.6526V58.6046H50.088V52.6526H46.896ZM48.096 40.7246V42.1166C48.096 44.9246 46.512 47.8286 42.84 49.0286L44.448 51.5726C48.72 50.1566 50.688 46.2926 50.688 42.1166V40.7246H48.096ZM48.768 40.7246V42.1166C48.768 46.0766 50.664 49.7726 54.792 51.1406L56.352 48.6446C52.848 47.4686 51.336 44.7086 51.336 42.1166V40.7246H48.768ZM43.704 39.3086V41.8286H55.656V39.3086H43.704ZM74.9741 51.6206C70.1741 51.6206 67.1021 53.2046 67.1021 55.8446C67.1021 58.4366 70.1741 60.0206 74.9741 60.0206C79.7741 60.0206 82.8461 58.4366 82.8461 55.8446C82.8461 53.2046 79.7741 51.6206 74.9741 51.6206ZM74.9741 54.0206C77.9741 54.0206 79.6781 54.6446 79.6781 55.8446C79.6781 57.0206 77.9741 57.6206 74.9741 57.6206C71.9741 57.6206 70.2701 57.0206 70.2701 55.8446C70.2701 54.6446 71.9741 54.0206 74.9741 54.0206ZM67.3421 38.7806V41.3006H81.4061V38.7806H67.3421ZM65.0861 47.7086V50.2526H85.1021V47.7086H65.0861ZM72.5021 43.8446V48.3566H75.6701V43.8446H72.5021ZM79.5581 38.7806V40.6046C79.5581 42.3326 79.5581 43.9406 78.9581 46.2206L82.1261 46.5566C82.7261 44.2526 82.7261 42.3566 82.7261 40.6046V38.7806H79.5581Z" fill="white"/>
<path d="M50.576 77.1339V78.8459H54.032V77.1339H50.576ZM52.912 73.3259V84.1259H55.04V73.3259H52.912ZM45.264 86.1739V87.8699H55.376V86.1739H45.264ZM45.264 83.2139V87.1819H47.392V83.2139H45.264ZM46.064 75.2619V76.1899C46.064 78.0619 45.008 79.9979 42.56 80.7979L43.632 82.4939C46.48 81.5499 47.792 78.9739 47.792 76.1899V75.2619H46.064ZM46.512 75.2619V76.1899C46.512 78.8299 47.776 81.2939 50.528 82.2059L51.568 80.5419C49.232 79.7579 48.224 77.9179 48.224 76.1899V75.2619H46.512ZM43.136 74.3179V75.9979H51.104V74.3179H43.136ZM63.9828 82.5259C60.7828 82.5259 58.7348 83.5819 58.7348 85.3419C58.7348 87.0699 60.7828 88.1259 63.9828 88.1259C67.1828 88.1259 69.2308 87.0699 69.2308 85.3419C69.2308 83.5819 67.1828 82.5259 63.9828 82.5259ZM63.9828 84.1259C65.9828 84.1259 67.1188 84.5419 67.1188 85.3419C67.1188 86.1259 65.9828 86.5259 63.9828 86.5259C61.9828 86.5259 60.8468 86.1259 60.8468 85.3419C60.8468 84.5419 61.9828 84.1259 63.9828 84.1259ZM58.8948 73.9659V75.6459H68.2708V73.9659H58.8948ZM57.3908 79.9179V81.6139H70.7348V79.9179H57.3908ZM62.3348 77.3419V80.3499H64.4468V77.3419H62.3348ZM67.0388 73.9659V75.1819C67.0388 76.3339 67.0388 77.4059 66.6388 78.9259L68.7508 79.1499C69.1508 77.6139 69.1508 76.3499 69.1508 75.1819V73.9659H67.0388ZM76.2498 80.2699V81.9659H89.6578V80.2699H76.2498ZM81.8978 78.0459V80.9259H84.0098V78.0459H81.8978ZM77.8658 77.3739V79.0539H88.1378V77.3739H77.8658ZM77.8658 73.9499V78.4459H79.9778V75.6139H88.0578V73.9499H77.8658ZM82.9058 82.7019C79.7057 82.7019 77.7538 83.6779 77.7538 85.4219C77.7538 87.1659 79.7057 88.1419 82.9058 88.1419C86.1058 88.1419 88.0418 87.1659 88.0418 85.4219C88.0418 83.6779 86.1058 82.7019 82.9058 82.7019ZM82.9058 84.3019C84.8898 84.3019 85.8978 84.6699 85.8978 85.4219C85.8978 86.1899 84.8898 86.5259 82.9058 86.5259C80.9218 86.5259 79.9138 86.1899 79.9138 85.4219C79.9138 84.6699 80.9218 84.3019 82.9058 84.3019ZM94.9205 74.3339C92.6645 74.3339 91.0325 76.3819 91.0325 79.6139C91.0325 82.8779 92.6645 84.9259 94.9205 84.9259C97.1765 84.9259 98.8085 82.8779 98.8085 79.6139C98.8085 76.3819 97.1765 74.3339 94.9205 74.3339ZM94.9205 76.2699C96.0245 76.2699 96.7765 77.4379 96.7765 79.6139C96.7765 81.8219 96.0245 83.0059 94.9205 83.0059C93.8165 83.0059 93.0805 81.8219 93.0805 79.6139C93.0805 77.4379 93.8165 76.2699 94.9205 76.2699ZM100.425 73.3099V88.1259H102.569V73.3099H100.425ZM102.089 78.8939V80.6539H104.713V78.8939H102.089ZM115.879 73.2939V88.1579H118.007V73.2939H115.879ZM106.471 82.9739V84.7019H107.783C110.487 84.7019 112.663 84.6219 115.063 84.1899L114.855 82.4779C112.503 82.8779 110.407 82.9739 107.783 82.9739H106.471ZM106.455 74.5579V76.2539H111.271V78.6059H106.471V83.6139H108.631V80.2859H113.447V74.5579H106.455ZM130.466 78.7659V80.4779H132.898V78.7659H130.466ZM135.25 73.3099V88.1259H137.282V73.3099H135.25ZM132.226 73.5339V87.4539H134.226V73.5339H132.226ZM127.874 74.3499C125.922 74.3499 124.674 76.3819 124.674 79.7259C124.674 83.0859 125.922 85.1179 127.874 85.1179C129.842 85.1179 131.106 83.0859 131.106 79.7259C131.106 76.3819 129.842 74.3499 127.874 74.3499ZM127.874 76.3499C128.706 76.3499 129.17 77.4699 129.17 79.7259C129.17 81.9979 128.706 83.1019 127.874 83.1019C127.074 83.1019 126.61 81.9979 126.61 79.7259C126.61 77.4699 127.074 76.3499 127.874 76.3499ZM144.077 74.3819V76.0939H150.413V74.3819H144.077ZM145.901 77.8379V81.5499H148.013V77.8379H145.901ZM149.581 74.3819V75.3099C149.581 76.3339 149.581 77.6139 149.261 79.4379L151.325 79.6619C151.677 77.8219 151.677 76.3499 151.677 75.3099V74.3819H149.581ZM153.117 73.3099V84.3979H155.261V73.3099H153.117ZM154.413 77.8219V79.5659H157.021V77.8219H154.413ZM145.373 86.1739V87.8699H155.725V86.1739H145.373ZM145.373 83.4059V86.7019H147.501V83.4059H145.373ZM143.405 82.4139C145.949 82.4139 149.389 82.3499 152.445 81.7739L152.317 80.2699C149.341 80.6859 145.773 80.7339 143.213 80.7339L143.405 82.4139ZM167.676 73.3259V84.3979H169.804V73.3259H167.676ZM169.196 77.8379V79.5819H171.772V77.8379H169.196ZM158.14 74.8619V76.5259H166.86V74.8619H158.14ZM162.508 77.0539C160.364 77.0539 158.86 78.2219 158.86 79.9179C158.86 81.6139 160.364 82.7659 162.508 82.7659C164.636 82.7659 166.14 81.6139 166.14 79.9179C166.14 78.2219 164.636 77.0539 162.508 77.0539ZM162.508 78.6699C163.452 78.6699 164.108 79.1179 164.108 79.9179C164.108 80.7179 163.452 81.1499 162.508 81.1499C161.564 81.1499 160.908 80.7179 160.908 79.9179C160.908 79.1179 161.564 78.6699 162.508 78.6699ZM161.436 73.2939V75.6779H163.564V73.2939H161.436ZM160.252 86.1739V87.8699H170.332V86.1739H160.252ZM160.252 83.5659V86.9099H162.38V83.5659H160.252ZM52.16 95.3099V105.918H54.304V95.3099H52.16ZM53.696 99.4379V101.182H56.272V99.4379H53.696ZM48.032 96.4139V97.4699C48.032 99.8219 46.16 101.806 42.528 102.798L43.424 104.494C47.84 103.214 50.304 100.446 50.304 96.4139H48.032ZM43.168 96.4139V98.1259H49.184V96.4139H43.168ZM44.72 108.174V109.87H54.8V108.174H44.72ZM44.72 104.846V108.926H46.864V104.846H44.72ZM66.8948 95.3099V106.014H69.0228V95.3099H66.8948ZM68.4148 99.3419V101.086H70.9908V99.3419H68.4148ZM57.9188 101.886V103.598H59.1508C62.4468 103.598 64.1428 103.518 65.9508 103.118L65.7428 101.438C63.9668 101.822 62.3668 101.886 59.1508 101.886H57.9188ZM57.9188 96.4779V102.798H60.0308V98.1899H64.5428V96.4779H57.9188ZM59.4708 108.174V109.87H69.5508V108.174H59.4708ZM59.4708 104.894V109.038H61.5988V104.894H59.4708ZM81.6135 95.3259V106.398H83.7415V95.3259H81.6135ZM83.1335 99.8379V101.582H85.7095V99.8379H83.1335ZM72.0775 96.8619V98.5259H80.7975V96.8619H72.0775ZM76.4455 99.0539C74.3015 99.0539 72.7975 100.222 72.7975 101.918C72.7975 103.614 74.3015 104.766 76.4455 104.766C78.5735 104.766 80.0775 103.614 80.0775 101.918C80.0775 100.222 78.5735 99.0539 76.4455 99.0539ZM76.4455 100.67C77.3895 100.67 78.0455 101.118 78.0455 101.918C78.0455 102.718 77.3895 103.15 76.4455 103.15C75.5015 103.15 74.8455 102.718 74.8455 101.918C74.8455 101.118 75.5015 100.67 76.4455 100.67ZM75.3735 95.2939V97.6779H77.5015V95.2939H75.3735ZM74.1895 108.174V109.87H84.2695V108.174H74.1895ZM74.1895 105.566V108.91H76.3175V105.566H74.1895ZM98.5205 97.4699V99.1659H102.169V97.4699H98.5205ZM101.225 95.3099V102.83H103.353V95.3099H101.225ZM93.5605 103.454V105.086H101.241V105.902H93.5925V109.294H95.6885V107.438H103.353V103.454H93.5605ZM93.5925 108.318V109.966H103.769V108.318H93.5925ZM94.3445 95.7899V96.8459C94.3445 98.7339 93.3045 100.542 90.8405 101.278L91.9285 102.958C94.7605 102.062 96.0725 99.6459 96.0725 96.8459V95.7899H94.3445ZM94.7605 95.7899V96.8459C94.7605 99.5019 96.0245 101.79 98.7285 102.67L99.8165 101.022C97.4805 100.318 96.4885 98.6059 96.4885 96.8459V95.7899H94.7605ZM112.839 97.4539V99.1339H116.615V97.4539H112.839ZM112.839 100.414V102.11H116.679V100.414H112.839ZM115.943 95.3099V103.982H118.071V95.3099H115.943ZM106.279 96.3819V103.182H113.287V96.3819H106.279ZM111.191 98.0619V101.518H108.375V98.0619H111.191ZM113.047 104.366C109.911 104.366 107.975 105.438 107.975 107.246C107.975 109.07 109.911 110.126 113.047 110.126C116.183 110.126 118.119 109.07 118.119 107.246C118.119 105.438 116.183 104.366 113.047 104.366ZM113.047 105.998C114.983 105.998 116.007 106.398 116.007 107.246C116.007 108.094 114.983 108.51 113.047 108.51C111.127 108.51 110.103 108.094 110.103 107.246C110.103 106.398 111.127 105.998 113.047 105.998Z" fill="white"/>
<path d="M255.975 46.3587L240.602 68.0196L245.856 69.8305L260.433 59.3188L259.8 51.976L255.975 46.3587Z" fill="#A5A5FE"/>
<path d="M259.88 36.8339C252.655 41.3071 255.042 84.1108 255.042 84.1108L282.95 80.6864C282.95 80.6864 283.812 37.485 259.88 36.8339Z" fill="white"/>
<path d="M263.475 37.2204L261.065 33.1014L256.14 35.243L257.386 40.6364C257.43 40.6643 257.477 40.6875 257.524 40.7093C259.189 39.1203 261.26 37.9051 263.475 37.2204Z" fill="#A5A5FE"/>
<path d="M261.189 23.5666L262.003 30.9629C261.268 31.0515 260.967 31.9049 261.217 32.5679C261.168 32.7472 261.156 32.9397 261.183 33.1278C260.062 34.2402 257.951 35.796 254.892 35.7086C250.106 35.5722 251.455 26.144 251.455 26.144L261.189 23.5666Z" fill="#A5A5FE"/>
<path d="M264.413 28.6988C264.36 28.1548 264.909 26.8951 265.26 26.4767C267.52 23.7769 264.901 22.4997 263.98 22.099C262.961 21.6553 262.872 19.9535 261.526 19.2111C259.471 18.0799 257.953 19.8434 256.751 19.8162C255.548 19.789 254.571 18.3529 253.006 19.4506C251.442 20.549 251.844 21.8511 251.391 22.5012C250.938 23.152 249.686 21.7592 248.317 23.8033C246.235 26.913 251.364 27.2688 251.364 27.2688C251.364 27.2688 254.248 27.9504 257.601 25.9661C258.061 25.6939 258.662 25.7061 259.042 26.0824C260.085 27.1115 261.086 33.23 261.086 33.23L262.12 32.0439C262.12 32.0439 264.653 31.1888 264.413 28.6988Z" fill="#5959FF"/>
<path d="M261.723 29.7501C261.58 30.3643 260.967 30.7465 260.353 30.6034C259.739 30.4609 259.357 29.8477 259.499 29.2335C259.642 28.6199 260.256 28.2385 260.869 28.3802C261.483 28.5226 261.865 29.1365 261.723 29.7501Z" fill="#A5A5FE"/>
<path d="M303.948 132.062C303.948 132.062 305.972 134.574 306.966 140.05C307.137 140.992 306.874 141.961 307.682 142.405C308.166 142.67 308.677 142.195 308.716 141.644L309.097 136.198C309.101 136.141 309.1 136.083 309.094 136.027L308.595 131.125C308.568 130.859 308.787 130.634 309.053 130.652V130.652C309.29 130.669 309.496 130.49 309.512 130.253L309.629 128.591C309.663 128.105 309.342 127.666 308.862 127.582C307.47 127.338 304.755 127.037 304.213 128.268L303.948 132.062Z" fill="#5959FF"/>
<path d="M300.543 131.244L303.949 132.062C304.765 131.044 304.911 129.641 304.321 128.477L304.214 128.268L300.828 127.175L300.543 131.244Z" fill="#A5A5FE"/>
<path d="M256.59 86.8054C256.59 86.8054 242.904 108.656 242.411 115.696C241.919 122.736 256.285 151.332 256.285 151.332L260.945 151.658C260.945 151.658 261.335 134.201 259.193 119.556C258.772 116.683 259.856 113.783 262.107 111.949C272.656 103.352 282.511 88.618 282.511 88.618L256.59 86.8054Z" fill="#A5A5FE"/>
<path d="M281.692 90.1446C281.692 90.1446 280.614 100.978 275.79 110.157C274.302 112.988 275.759 116.451 278.836 117.323C291.563 120.932 299.351 125.612 301.274 126.846C301.571 127.037 301.728 127.371 301.704 127.722L301.462 131.175C301.42 131.78 300.854 132.208 300.26 132.084L266.706 125.079C261.139 123.917 257.089 119.098 256.901 113.415L256.539 102.507L281.692 90.1446Z" fill="#A5A5FE"/>
<g filter="url(#filter2_f_3189_5497)">
<path d="M181.347 60.5975C181.675 60.2172 181.94 59.7709 182.114 59.267C182.131 59.2181 182.139 59.1685 182.154 59.1196C182.242 58.8283 182.297 58.5334 182.32 58.2412C182.321 58.2228 182.32 58.2043 182.321 58.1866C182.329 58.059 182.333 57.9306 182.329 57.8051C182.324 57.6554 182.311 57.5065 182.288 57.3604L197.336 54.0292L197.336 54.8916C197.336 61.0744 195.173 67.0624 191.222 71.8184V71.8184L181.347 60.5975Z" fill="black" fill-opacity="0.2"/>
</g>
<path d="M188.893 63.1106C188.004 65.6961 189.37 65.317 191.966 69.401L324.45 114.932C327.036 115.821 329.852 114.446 330.741 111.86L333.637 103.434C334.525 100.848 333.15 98.0321 330.563 97.143L198.079 51.6118C195.494 50.7234 195.521 54.7821 194.632 57.3676L188.893 63.1106Z" fill="#6C6CFF"/>
<path d="M332.029 108.115L330.742 111.86C329.853 114.446 327.037 115.821 324.451 114.932L191.966 69.4004C189.381 68.512 190.181 59.3651 190.181 59.3651L332.029 108.115Z" fill="#4343FE"/>
<path d="M311.5 110.5L317 92.5L321.203 93.9254L330.566 97.1424C333.152 98.0315 334.527 100.847 333.638 103.433L332.029 108.115L330.742 111.86C329.854 114.446 327.038 115.821 324.452 114.932L315.089 111.715L311.5 110.5Z" fill="#A5A5FE"/>
<path d="M313.683 111.232L307.129 108.98L313.242 91.1897L319.796 93.442L313.683 111.232Z" fill="#EFEEEE"/>
<g filter="url(#filter3_f_3189_5497)">
<path d="M182.288 57.3596L178.005 57.6808L181.346 60.5974L183.05 59.5893L182.288 57.3596Z" fill="black" fill-opacity="0.2"/>
</g>
<path d="M182.392 54.7212L178.11 55.0424L181.45 57.959L183.154 56.9508L182.392 54.7212Z" fill="#2E2EFF"/>
<path d="M181.452 57.959C181.78 57.5788 182.045 57.1325 182.219 56.6286C182.236 56.5797 182.244 56.5301 182.259 56.4812C182.347 56.1899 182.402 55.8949 182.425 55.6028C182.426 55.5844 182.425 55.5659 182.426 55.5482C182.434 55.4206 182.438 55.2922 182.434 55.1667C182.429 55.017 182.415 54.8681 182.393 54.7219L197.441 51.3908L197.441 52.2531C197.441 58.436 195.278 64.424 191.327 69.18V69.18L181.452 57.959Z" fill="white"/>
<path fill-rule="evenodd" clip-rule="evenodd" d="M269.168 59.9317L278.779 53.9873C278.779 53.9873 284.333 60.2792 285.5 66.2831C286.546 71.6725 281.942 86.2675 280.988 89.2014C280.881 89.5291 280.95 89.8809 281.169 90.1472L283.401 92.8617C284.411 94.0904 284.62 95.8201 283.704 97.1207C282.938 98.2099 281.954 99.3236 281.048 99.5C279.816 99.7383 278.481 98.0788 277.729 96.947C277.33 96.347 277.121 95.6456 277.116 94.9251L277.082 90.4447L276.139 68.9202C276.109 68.2409 275.849 67.5918 275.402 67.0794L269.168 59.9317Z" fill="#A5A5FE"/>
</g>
</g>
<defs>
<filter id="filter0_d_3189_5497" x="0" y="0" width="340" height="158" filterUnits="userSpaceOnUse" color-interpolation-filters="sRGB">
<feFlood flood-opacity="0" result="BackgroundImageFix"/>
<feColorMatrix in="SourceAlpha" type="matrix" values="0 0 0 0 0 0 0 0 0 0 0 0 0 0 0 0 0 0 127 0" result="hardAlpha"/>
<feOffset dy="2"/>
<feGaussianBlur stdDeviation="5"/>
<feComposite in2="hardAlpha" operator="out"/>
<feColorMatrix type="matrix" values="0 0 0 0 0 0 0 0 0 0 0 0 0 0 0 0 0 0 1 0"/>
<feBlend mode="normal" in2="BackgroundImageFix" result="effect1_dropShadow_3189_5497"/>
<feBlend mode="normal" in="SourceGraphic" in2="effect1_dropShadow_3189_5497" result="shape"/>
</filter>
<filter id="filter1_d_3189_5497" x="-12" y="-16" width="260.308" height="494" filterUnits="userSpaceOnUse" color-interpolation-filters="sRGB">
<feFlood flood-opacity="0" result="BackgroundImageFix"/>
<feColorMatrix in="SourceAlpha" type="matrix" values="0 0 0 0 0 0 0 0 0 0 0 0 0 0 0 0 0 0 127 0" result="hardAlpha"/>
<feOffset dx="2"/>
<feGaussianBlur stdDeviation="12"/>
<feComposite in2="hardAlpha" operator="out"/>
<feColorMatrix type="matrix" values="0 0 0 0 0.34902 0 0 0 0 0.34902 0 0 0 0 1 0 0 0 0.3 0"/>
<feBlend mode="normal" in2="BackgroundImageFix" result="effect1_dropShadow_3189_5497"/>
<feBlend mode="normal" in="SourceGraphic" in2="effect1_dropShadow_3189_5497" result="shape"/>
</filter>
<filter id="filter2_f_3189_5497" x="177.347" y="50.0292" width="23.9893" height="25.7892" filterUnits="userSpaceOnUse" color-interpolation-filters="sRGB">
<feFlood flood-opacity="0" result="BackgroundImageFix"/>
<feBlend mode="normal" in="SourceGraphic" in2="BackgroundImageFix" result="shape"/>
<feGaussianBlur stdDeviation="2" result="effect1_foregroundBlur_3189_5497"/>
</filter>
<filter id="filter3_f_3189_5497" x="174.005" y="53.3596" width="13.0444" height="11.2378" filterUnits="userSpaceOnUse" color-interpolation-filters="sRGB">
<feFlood flood-opacity="0" result="BackgroundImageFix"/>
<feBlend mode="normal" in="SourceGraphic" in2="BackgroundImageFix" result="shape"/>
<feGaussianBlur stdDeviation="2" result="effect1_foregroundBlur_3189_5497"/>
</filter>
<clipPath id="clip0_3189_5497">
<rect x="10" y="8" width="320" height="138" rx="10" fill="white"/>
</clipPath>
</defs>
</svg>
