<svg width="345" height="215" viewBox="0 0 345 215" fill="none" xmlns="http://www.w3.org/2000/svg">
<rect width="345" height="215" rx="9" fill="#ECECEC"/>
<path d="M115.008 151.276V153.382C115.008 155.527 113.669 157.789 111.966 158.647L112.629 159.505C114.488 158.517 115.892 155.982 115.892 153.382V151.276H115.008ZM115.203 151.276V153.382C115.203 155.904 116.568 158.309 118.388 159.284L119.051 158.426C117.387 157.594 116.074 155.449 116.074 153.382V151.276H115.203ZM120.078 150.262V162.014H121.17V150.262H120.078ZM120.91 155.02V155.93H123.094V155.02H120.91ZM127.214 151.549V152.745C127.214 154.422 126.018 155.943 124.25 156.567L124.809 157.425C126.785 156.71 128.111 154.903 128.111 152.745V151.549H127.214ZM127.422 151.549V152.745C127.422 154.812 128.774 156.528 130.724 157.191L131.283 156.346C129.541 155.761 128.319 154.331 128.319 152.745V151.549H127.422ZM124.536 151.237V152.108H130.971V151.237H124.536ZM132.635 150.275V158.868H133.727V150.275H132.635ZM126.174 160.87V161.754H134.078V160.87H126.174ZM126.174 158.062V161.26H127.24V158.062H126.174ZM141.357 150.457C138.757 150.457 137.223 151.185 137.223 152.498C137.223 153.811 138.757 154.539 141.357 154.539C143.944 154.539 145.491 153.811 145.491 152.498C145.491 151.185 143.944 150.457 141.357 150.457ZM141.357 151.276C143.268 151.276 144.373 151.718 144.373 152.498C144.373 153.278 143.268 153.72 141.357 153.72C139.433 153.72 138.328 153.278 138.328 152.498C138.328 151.718 139.433 151.276 141.357 151.276ZM136.04 155.319V156.19H146.661V155.319H136.04ZM137.327 157.191V158.023H144.243V159.063H137.353V161.273H138.419V159.843H145.309V157.191H137.327ZM137.353 161.039V161.884H145.66V161.039H137.353ZM157.354 153.057V153.954H160.513V153.057H157.354ZM154.65 150.795C152.895 150.795 151.621 151.913 151.621 153.525C151.621 155.137 152.895 156.242 154.65 156.242C156.405 156.242 157.679 155.137 157.679 153.525C157.679 151.913 156.405 150.795 154.65 150.795ZM154.65 151.705C155.807 151.705 156.639 152.446 156.639 153.525C156.639 154.591 155.807 155.345 154.65 155.345C153.493 155.345 152.661 154.591 152.661 153.525C152.661 152.446 153.493 151.705 154.65 151.705ZM160.032 150.262V156.567H161.111V150.262H160.032ZM153.584 157.152V161.858H161.111V157.152H160.045V158.634H154.663V157.152H153.584ZM154.663 159.492H160.045V160.987H154.663V159.492ZM163.411 159.674V160.571H174.058V159.674H163.411ZM168.169 157.152V160.051H169.248V157.152H168.169ZM164.698 151.133V152.004H171.679V153.824H164.737V157.048H165.803V154.695H172.745V151.133H164.698ZM164.737 156.593V157.477H173.018V156.593H164.737ZM176.709 155.891V156.775H184.782V155.891H176.709ZM175.37 159.531V160.428H186.017V159.531H175.37ZM176.709 151.341V156.281H177.788V152.238H184.665V151.341H176.709ZM187.303 152.264V153.148H193.127V152.264H187.303ZM190.215 153.928C188.759 153.928 187.693 155.033 187.693 156.619C187.693 158.192 188.759 159.297 190.215 159.297C191.684 159.297 192.75 158.192 192.75 156.619C192.75 155.033 191.684 153.928 190.215 153.928ZM190.215 154.851C191.125 154.851 191.788 155.579 191.788 156.619C191.788 157.659 191.125 158.387 190.215 158.387C189.318 158.387 188.668 157.659 188.668 156.619C188.668 155.579 189.318 154.851 190.215 154.851ZM196.234 150.262V162.014H197.274V150.262H196.234ZM194.362 155.202V156.099H196.585V155.202H194.362ZM193.725 150.522V161.442H194.739V150.522H193.725ZM189.695 150.6V152.81H190.761V150.6H189.695ZM203.994 151.419V151.913C203.994 153.46 201.979 154.812 199.912 155.111L200.328 155.969C202.694 155.566 204.93 154.019 204.93 151.913V151.419H203.994ZM204.267 151.419V151.913C204.267 154.019 206.49 155.566 208.869 155.969L209.272 155.111C207.218 154.812 205.19 153.46 205.19 151.913V151.419H204.267ZM204.033 157.529V162.014H205.099V157.529H204.033ZM199.288 156.957V157.841H209.909V156.957H199.288ZM200.276 150.99V151.861H208.882V150.99H200.276ZM215.875 154.461V155.358H218.124V154.461H215.875ZM213.678 151.367V153.603C213.678 155.618 212.716 157.724 211.104 158.673L211.78 159.492C213.496 158.439 214.523 156.06 214.523 153.603V151.367H213.678ZM213.886 151.367V153.564C213.886 155.852 214.835 158.192 216.525 159.232L217.149 158.387C215.602 157.451 214.718 155.449 214.718 153.564V151.367H213.886ZM220.191 150.262V162.014H221.231V150.262H220.191ZM217.812 150.509V161.429H218.826V150.509H217.812ZM225.806 156.307V159.83H226.872V156.307H225.806ZM230.148 156.307V159.83H231.227V156.307H230.148ZM223.206 159.622V160.519H233.853V159.622H223.206ZM228.51 151.003C226.014 151.003 224.233 152.186 224.233 154.032C224.233 155.865 226.014 157.048 228.51 157.048C230.993 157.048 232.774 155.865 232.774 154.032C232.774 152.186 230.993 151.003 228.51 151.003ZM228.51 151.861C230.395 151.861 231.734 152.719 231.734 154.032C231.734 155.332 230.395 156.19 228.51 156.19C226.625 156.19 225.273 155.332 225.273 154.032C225.273 152.719 226.625 151.861 228.51 151.861Z" fill="#565656"/>
<path d="M205.219 122.484L201.545 136.195C201.402 136.728 200.854 137.045 200.32 136.902L149.415 123.262C148.881 123.119 148.565 122.571 148.707 122.037L150.808 114.197M205.219 122.484L215.185 85.2892C215.328 84.7558 215.012 84.2074 214.478 84.0645L163.572 70.4243C163.039 70.2814 162.491 70.598 162.348 71.1315L150.808 114.197M205.219 122.484L191.136 106.459C190.899 106.189 190.536 106.067 190.184 106.139L150.808 114.197" stroke="#538EFF" stroke-width="2" stroke-linejoin="round"/>
<circle cx="172.564" cy="91.711" r="6.07794" transform="rotate(15 172.564 91.711)" stroke="#538EFF" stroke-width="2" stroke-linejoin="round"/>
<path d="M138.117 74.7471H190.818C191.371 74.7471 191.818 75.1948 191.818 75.7471V114.254V128.449C191.818 129.001 191.371 129.449 190.818 129.449H138.117C137.565 129.449 137.117 129.001 137.117 128.449V120.332V75.7471C137.117 75.1948 137.565 74.7471 138.117 74.7471Z" fill="#ECECEC"/>
<path d="M191.818 114.254V128.449C191.818 129.001 191.371 129.449 190.818 129.449H138.117C137.565 129.449 137.117 129.001 137.117 128.449V120.332M191.818 114.254V75.7471C191.818 75.1948 191.371 74.7471 190.818 74.7471H138.117C137.565 74.7471 137.117 75.1948 137.117 75.7471V120.332M191.818 114.254L174.067 102.42C173.769 102.221 173.387 102.197 173.066 102.357L137.117 120.332" stroke="#538EFF" stroke-width="2" stroke-linejoin="round"/>
<circle cx="152.312" cy="92.9813" r="6.07794" fill="#ECECEC" stroke="#538EFF" stroke-width="2" stroke-linejoin="round"/>
</svg>
