<svg width="320" height="138" viewBox="0 0 320 138" fill="none" xmlns="http://www.w3.org/2000/svg">
<g style="mix-blend-mode:luminosity">
<g clip-path="url(#clip0_4748_6714)">
<rect width="320" height="138" rx="10" fill="#C2C2FF"/>
<path d="M9.99999 138H196.289L206.587 80.8477C211.402 54.1243 213.176 27.0039 211.916 0H10C4.47716 0 0 4.47715 0 10V128C0 133.523 4.47715 138 9.99999 138Z" fill="#5959FF"/>
<path d="M248.938 125.475C248.938 125.475 245.79 126.334 236.13 126.121C226.469 125.908 212.522 121.624 207.135 121.624C201.748 121.624 195.888 123.55 193.649 127.833C191.409 132.117 189.375 137.467 202.414 142.39C215.452 147.314 225.337 148.812 243.993 153.303C262.648 157.794 270.063 158.014 279.706 155.661C289.349 153.309 295.886 147.314 294.99 138.943C294.094 130.572 292.066 125.458 287.351 124.173C282.636 122.887 248.938 125.475 248.938 125.475Z" fill="#4141FD"/>
<path d="M248.938 125.475C248.938 125.475 245.79 126.334 236.13 126.121C226.469 125.908 212.522 121.624 207.135 121.624C201.748 121.624 195.888 123.55 193.649 127.833C191.409 132.117 189.375 137.467 202.414 142.39C215.452 147.314 225.337 148.812 243.993 153.303C262.648 157.794 270.063 158.013 279.706 155.661C289.349 153.309 295.886 147.314 294.99 138.943C294.094 130.572 292.066 125.458 287.351 124.173C282.636 122.887 248.938 125.475 248.938 125.475Z" stroke="#4141FD" stroke-linecap="round" stroke-linejoin="round"/>
<path d="M265.494 57.2919C265.494 57.2919 265.817 61.3621 264.681 63.6335C263.546 65.9049 258.98 68.1937 255.071 70.3095C251.162 72.4252 262.278 78.4199 260 82C257.723 85.5801 241.235 85.2871 241.235 85.2871C241.235 85.2871 237.649 90.8273 234.72 95.7103C231.792 100.593 230.16 105.644 233.908 108.393C237.655 111.143 242.209 107.091 244.654 103.205C247.098 99.3193 249.375 94.9032 249.375 94.9032C249.375 94.9032 252.494 110.025 251.652 114.112C250.811 118.2 248.885 122.091 248.885 123.913C248.885 125.735 250.35 127.009 252.632 127.493C254.915 127.977 262.727 128.646 268.1 128.312C273.473 127.977 288.779 127.009 289.431 124.887C290.082 122.766 291.057 108.117 291.057 108.117C291.057 108.117 300.661 111.374 303.596 105.517C306.53 99.6594 306.686 86.492 304.57 79.9486C302.454 73.4053 297.075 70.9955 293.824 69.3697C290.572 67.744 281.613 63.5067 279.988 61.7137C278.362 59.9208 277.86 51.1002 277.86 48.1716C277.86 45.2429 277.538 48.0102 274.442 50.2874C271.346 52.5646 265.494 57.2919 265.494 57.2919Z" fill="#A5A5FE"/>
<path d="M288.289 38.2384C289.592 35.7998 291.547 31.5625 288.941 28.6338C286.335 25.7052 284.709 27.4808 284.381 24.5637C284.052 21.6466 283.406 18.5392 280.472 18.5392C277.537 18.5392 275.427 19.6922 273.634 18.5392C271.842 17.3862 270.377 14.1404 265.817 14.1404C261.257 14.1404 262.407 20.5012 261.589 21.3141C261.186 21.6046 260.735 21.8214 260.257 21.954C259.913 21.8681 259.626 21.6335 259.473 21.3141C258.66 19.6883 258.556 19.8784 258.484 17.1908C258.412 14.5598 256.691 13.1206 254.736 14.5849C252.782 16.0493 256.852 15.8878 254.575 18.3322C252.298 20.7766 253.284 24.5637 255.376 28.1611C257.469 31.7585 259.937 29.6254 259.937 29.6254C260.421 29.3026 260.859 31.1359 265.2 31.9314C269.334 32.6867 272.159 31.3549 272.487 35.8978C272.816 40.4407 276.869 42.9831 278.01 43.6345C279.152 44.286 276.217 47.8718 276.857 49.4976C277.497 51.1233 279.624 50.9619 280.927 50.8005C282.23 50.6391 281.417 48.6847 284.185 48.3561C286.952 48.0275 287.926 47.2031 289.068 44.1246C290.209 41.046 286.986 40.6828 288.289 38.2384Z" fill="#5959FF"/>
<path d="M288.289 38.2384C289.592 35.7998 291.547 31.5625 288.941 28.6338C286.335 25.7052 284.709 27.4808 284.381 24.5637C284.052 21.6466 283.406 18.5392 280.472 18.5392C277.537 18.5392 275.427 19.6922 273.634 18.5392C271.842 17.3862 270.377 14.1404 265.817 14.1404C261.257 14.1404 262.407 20.5012 261.589 21.3141C261.186 21.6046 260.735 21.8214 260.257 21.954C259.913 21.8681 259.626 21.6335 259.473 21.3141C258.66 19.6883 258.556 19.8784 258.484 17.1908C258.412 14.5598 256.691 13.1206 254.736 14.5849C252.782 16.0493 256.852 15.8878 254.575 18.3322C252.298 20.7766 253.284 24.5637 255.376 28.1611C257.469 31.7585 259.937 29.6254 259.937 29.6254C260.421 29.3026 260.859 31.1359 265.2 31.9314C269.334 32.6867 272.159 31.3549 272.487 35.8978C272.816 40.4407 276.869 42.9831 278.01 43.6345C279.152 44.286 276.217 47.8718 276.857 49.4976C277.497 51.1233 279.624 50.9619 280.927 50.8005C282.23 50.6391 281.417 48.6847 284.185 48.3561C286.952 48.0275 287.926 47.2031 289.068 44.1246C290.209 41.046 286.986 40.6828 288.289 38.2384Z" stroke="#5959FF" stroke-linecap="round" stroke-linejoin="round"/>
<path d="M293.823 69.341C291.286 68.0669 285.279 65.2132 281.987 63.1724C280.903 66.4239 277.721 73.8954 271.356 73.8954C265.488 73.8954 263.764 68.407 263.285 65.3343C261.337 67.0638 259.5 67.5 257.5 68C250.599 69.8821 245.037 74.989 242.573 81.7043L241.257 85.2929C241.257 85.2929 240.046 87.1666 238.461 89.6859C245.039 89.3573 249.415 94.9033 249.415 94.9033C249.415 94.9033 252.493 110.025 251.651 114.113C250.81 118.2 248.884 122.091 248.884 123.913C248.884 125.735 250.349 127.009 252.631 127.493C254.914 127.978 262.726 128.646 268.099 128.312C273.472 127.978 288.778 127.009 289.43 124.887C290.081 122.766 291.056 108.117 291.056 108.117L290.081 95.255C298.262 89.8473 303.981 93.635 305.855 95.255C306.258 89.7263 305.797 83.7248 304.569 79.9429C302.453 73.4111 297.08 70.9667 293.823 69.341Z" fill="white"/>
<path d="M233.688 99.0715C233.688 99.0715 232.08 99.9247 230.806 103.032C229.531 106.139 227.923 111.91 229.52 113.732C231.117 115.554 234.766 113.945 238.168 113.519C241.569 113.092 255.826 104.744 258.178 103.349C260.53 101.954 262.462 101.424 263.211 100.138C263.96 98.8524 263.747 94.2519 263.851 92.0035C263.955 89.7551 263.424 79.6951 263.424 79.6951C263.424 79.6951 262.675 77.2334 261.389 77.4467C261.389 77.4467 259.89 76.5935 259.573 77.4467L258.928 79.1762C258.928 79.1762 257.538 78.7496 257.198 79.4991C256.966 80.2284 256.823 80.9836 256.771 81.7475C256.771 81.7475 255.169 82.4969 255.169 83.477C255.169 84.457 255.486 90.2221 255.486 91.8248C255.486 93.4275 255.272 95.8949 255.809 96.9615C256.345 98.028 256.881 98.9965 256.881 98.9965C256.881 98.9965 249.063 100.069 245.749 100.069C242.434 100.069 236.651 100.173 235.579 100.709" fill="#A5A5FE"/>
<path d="M298.764 104.26C293.627 100.945 282.921 103.51 279.497 103.297C276.072 103.084 266.548 97.8377 266.548 97.8377C266.548 97.8377 268.474 95.9121 268.578 94.7361C268.682 93.56 268.578 90.3488 268.578 88.5271C268.578 86.7053 269.114 84.8893 269.223 83.4999C269.333 82.1106 267.494 83.0676 267.188 83.4999C266.883 83.9323 266.116 88.2042 266.116 88.2042C266.116 88.2042 265.153 85.3217 265.153 84.9989C265.153 84.676 264.94 80.7154 264.404 79.107C263.868 77.4985 262.588 79.107 262.588 79.107C262.478 78.1442 262.155 77.3774 261.406 77.3774C260.657 77.3774 260.017 80.0582 260.017 80.0582C260.017 78.4497 259.48 78.5593 258.944 79.0897C258.408 79.6201 258.414 83.1598 258.414 83.1598L257.768 82.197C257.019 81.9837 256.615 83.1598 256.615 84.2321C256.615 85.3044 257.042 88.5098 257.042 91.1848C257.011 92.5488 257.119 93.9128 257.365 95.2549C257.834 97.1286 258.63 98.9042 259.717 100.501C261.539 103.176 267.638 106.491 271.385 109.379C275.133 112.268 286.155 117.087 291.615 117.946C297.074 118.805 300.839 120.829 302.102 118.482C303.364 116.136 305.739 104.566 304.563 100.714" fill="#A5A5FE"/>
<path d="M251.559 145.192C250.383 144.652 249.299 143.931 248.348 143.053C247.068 141.768 248.348 138.556 246.619 137.288C244.889 136.02 241.482 135.559 240.854 137.507C240.225 139.456 239.781 140.718 238.496 141.145C237.21 141.572 235.717 141.572 233.359 142.644C231.001 143.716 231.007 147.567 231.007 147.567C235.527 148.171 239.971 149.247 244.266 150.778C250.475 153.13 253.254 151.845 253.254 151.845C253.254 151.845 253.491 147.527 251.559 145.192Z" fill="#A5A5FE"/>
<path d="M251.559 145.192C250.383 144.652 249.299 143.931 248.348 143.053C247.068 141.768 248.348 138.556 246.619 137.288C244.889 136.02 241.482 135.559 240.854 137.507C240.225 139.456 239.781 140.718 238.496 141.145C237.21 141.572 235.717 141.572 233.359 142.644C231.001 143.716 231.007 147.567 231.007 147.567C235.527 148.171 239.971 149.247 244.266 150.778C250.475 153.13 253.254 151.845 253.254 151.845C253.254 151.845 253.491 147.527 251.559 145.192Z" stroke="#5959FF" stroke-linecap="round" stroke-linejoin="round"/>
<path d="M267.485 151.493C270.74 150.655 273.932 149.587 277.037 148.299C281.131 146.639 285.27 145.007 289.219 143.03C295.215 140.032 297.353 135.535 295.855 129.972C294.356 124.409 291.79 120.125 280.865 122.051C269.941 123.976 266.482 130.549 261.841 135.535C256.104 141.675 251.377 144.834 249.209 144.529C246.736 144.183 246.212 148.807 249.636 150.525C255.17 153.292 261.483 152.969 267.485 151.493Z" fill="#5959FF"/>
<path d="M267.485 151.493C270.74 150.655 273.932 149.587 277.037 148.299C281.131 146.639 285.27 145.007 289.219 143.03C295.215 140.032 297.353 135.535 295.855 129.972C294.356 124.409 291.79 120.125 280.865 122.051C269.941 123.976 266.482 130.549 261.841 135.535C256.104 141.675 251.377 144.834 249.209 144.529C246.736 144.183 246.212 148.807 249.636 150.525C255.17 153.292 261.483 152.969 267.485 151.493Z" stroke="#5959FF" stroke-linecap="round" stroke-linejoin="round"/>
<path d="M251.064 144.31C251.064 144.31 256.293 143.266 261.787 136.988C267.282 130.71 268.06 129.661 268.06 129.661" stroke="#A5A5FE" stroke-linecap="round" stroke-linejoin="round"/>
<path d="M208.322 122.132C206.422 121.77 204.481 121.681 202.557 121.866C197.42 122.293 193.995 125.504 193.142 128.289C192.289 131.073 195.281 138.135 201.917 142.846C208.552 147.556 215.401 148.611 224.608 151.193C232.766 153.471 241.327 156.151 240.75 156.001C239.573 154.85 238.917 153.267 238.934 151.62C239.055 149.648 240.381 148.109 241.488 147.152C239.759 146.356 236.916 144.558 232.512 140.488C225.421 133.95 218.18 127.407 213.931 124.397" fill="#4141FD"/>
<path d="M208.322 122.132C206.422 121.77 204.481 121.681 202.557 121.866C197.42 122.293 193.995 125.504 193.142 128.289C192.289 131.073 195.281 138.135 201.917 142.846C208.552 147.556 215.401 148.611 224.608 151.193C232.766 153.471 241.327 156.151 240.75 156.001C239.573 154.85 238.917 153.267 238.934 151.62C239.055 149.648 240.381 148.109 241.488 147.152C239.759 146.356 236.916 144.558 232.512 140.488C225.421 133.95 218.18 127.407 213.931 124.397" stroke="#4141FD" stroke-linecap="round" stroke-linejoin="round"/>
<path d="M211.649 124.784C210.462 124.207 209.735 123.907 209.735 123.907" stroke="#A5A5FE" stroke-linecap="round" stroke-linejoin="round"/>
<path d="M233.798 140.649C233.798 140.649 222.55 131.754 218.105 128.617C216.697 127.624 215.237 126.708 213.729 125.873" stroke="#A5A5FE" stroke-linecap="round" stroke-linejoin="round"/>
<path d="M261.746 27.0081C261.746 27.0081 257.676 30.7496 258.005 34.8198C258.333 38.8899 257.024 41.1614 257.514 44.1015C258.005 47.0417 258.667 52.7491 259.82 54.1962C260.974 55.6432 261.123 57.292 262.265 58.1049C263.406 58.9178 267.315 58.9178 268.128 57.6149C268.941 56.312 277.571 51.2733 278.223 49.4746C278.874 47.6759 278.713 47.1974 278.713 47.1974C278.713 47.1974 284.409 43.7787 283.596 40.8558C282.783 37.9329 280.5 36.7857 279.197 37.7657C277.894 38.7458 277.733 39.2301 277.733 39.2301C277.733 39.2301 274.325 36.9874 274.977 34.8717C275.628 32.7559 277.663 32.0295 277.012 29.5851C276.36 27.1407 271.489 28.3629 266.306 28.7607C262.219 29.0605 263.562 25.5092 261.746 27.0081Z" fill="#A5A5FE"/>
<path d="M41.168 38.664H37.976V41.88C37.976 45.984 36.296 50.208 32.576 51.96L34.472 54.528C36.968 53.304 38.624 50.976 39.584 48.168C40.496 50.808 42.056 52.944 44.36 54.12L46.28 51.624C42.728 49.872 41.168 45.864 41.168 41.88V38.664ZM53.552 45.456H50.336V36.96H47.168V59.064H50.336V48.096H53.552V45.456ZM70.4221 48.192H73.5901V36.96H70.4221V40.2H66.3901V42.72H70.4221V48.192ZM68.3101 45.504C64.8541 44.448 63.3421 41.88 63.3421 39.264V37.68H60.1501V39.264C60.1501 42.072 58.6141 44.784 54.9421 45.888L56.5741 48.36C59.0941 47.568 60.8221 45.936 61.8061 43.872C62.7421 45.72 64.3741 47.184 66.7021 47.928L68.3101 45.504ZM62.1661 56.352V55.056H73.5901V49.128H59.0221V51.552H70.4701V52.776H59.0461V58.8H74.2141V56.352H62.1661Z" fill="white"/>
<path d="M40.775 70.69H37.7V69.4H35.705V70.69H32.645V72.25H40.775V70.69ZM35.21 75.22C35.21 74.53 35.81 74.185 36.71 74.185C37.595 74.185 38.21 74.53 38.21 75.22C38.21 75.925 37.595 76.27 36.71 76.27C35.81 76.27 35.21 75.925 35.21 75.22ZM40.1 75.22C40.1 73.72 38.705 72.685 36.71 72.685C34.73 72.685 33.32 73.72 33.32 75.22C33.32 76.735 34.73 77.77 36.71 77.77C38.705 77.77 40.1 76.735 40.1 75.22ZM34.31 80.29H41.54V83.305H43.52V78.7H34.31V80.29ZM45.35 73.03H43.52V69.49H41.54V78.13H43.52V74.665H45.35V73.03ZM55.2638 74.425H56.3438V77.92H58.2188V69.475H56.3438V72.835H55.2638V69.73H53.4188V77.485H55.2638V74.425ZM53.4038 75.61C51.5888 74.875 50.8388 73.39 50.8388 71.905V70.3H48.9338V71.905C48.9338 73.465 48.1838 75.175 46.2488 76.015L47.2988 77.545C48.5738 77.005 49.4288 76.015 49.9238 74.845C50.4188 75.835 51.2138 76.66 52.3538 77.11L53.4038 75.61ZM53.5388 81.805C51.7388 81.805 50.7488 81.445 50.7488 80.71C50.7488 79.975 51.7388 79.615 53.5388 79.615C55.3088 79.615 56.2988 79.975 56.2988 80.71C56.2988 81.445 55.3088 81.805 53.5388 81.805ZM53.5388 78.13C50.6288 78.13 48.7688 79.105 48.7688 80.71C48.7688 82.33 50.6288 83.29 53.5388 83.29C56.4338 83.29 58.2788 82.33 58.2788 80.71C58.2788 79.105 56.4338 78.13 53.5388 78.13ZM71.2677 72.535H63.7677V71.32H71.1627V69.745H61.8027V74.095H71.2677V72.535ZM63.6477 80.83H71.2077V77.17H61.6677V78.655H69.2577V79.435H61.6827V83.17H71.5677V81.655H63.6477V80.83ZM60.2577 74.83V76.39H72.7527V74.83H60.2577ZM83.5065 69.46V83.32H85.4865V69.46H83.5065ZM78.0615 70.435C75.9765 70.435 74.4315 72.325 74.4315 75.355C74.4315 78.4 75.9765 80.305 78.0615 80.305C80.1465 80.305 81.6915 78.4 81.6915 75.355C81.6915 72.325 80.1465 70.435 78.0615 70.435ZM78.0615 72.22C79.0815 72.22 79.7865 73.315 79.7865 75.355C79.7865 77.41 79.0815 78.505 78.0615 78.505C77.0415 78.505 76.3365 77.41 76.3365 75.355C76.3365 73.315 77.0415 72.22 78.0615 72.22ZM102.642 78.385C103.107 75.595 103.107 73.69 103.107 71.995V70.66H92.9518V72.235H101.127C101.127 73.825 101.112 75.685 100.662 78.19L102.642 78.385ZM99.7168 80.035V75.67H97.7818V80.035H96.3118V75.67H94.3618V80.035H91.7368V81.625H104.247V80.035H99.7168ZM108.056 71.005H106.076V79.93H107.036C108.416 79.93 110.006 79.855 111.806 79.525L111.641 77.86C110.321 78.1 109.136 78.19 108.056 78.22V71.005ZM115.481 69.46V74.785H114.236V69.715H112.391V82.63H114.236V76.39H115.481V83.275H117.371V69.46H115.481ZM122.439 78.625C121.689 78.625 121.239 77.59 121.239 75.46C121.239 73.345 121.689 72.31 122.439 72.31C123.204 72.31 123.639 73.345 123.639 75.46C123.639 77.59 123.204 78.625 122.439 78.625ZM126.504 74.56H125.409C125.184 71.98 124.074 70.45 122.439 70.45C120.609 70.45 119.454 72.34 119.454 75.46C119.454 78.595 120.609 80.485 122.439 80.485C124.119 80.485 125.244 78.865 125.424 76.165H126.504V82.675H128.349V69.7H126.504V74.56ZM129.309 69.46V83.275H131.184V69.46H129.309ZM138.323 70.54H136.328V72.535C136.328 75.16 135.278 77.845 132.938 78.925L134.168 80.515C135.713 79.735 136.748 78.295 137.348 76.525C137.918 78.19 138.923 79.54 140.438 80.275L141.608 78.7C139.328 77.68 138.323 75.145 138.323 72.535V70.54ZM142.748 69.46V73.795H140.093V75.385H142.748V83.32H144.728V69.46H142.748ZM37.715 92.43H40.46V90.795H32.87V92.43H35.735V93.195C35.735 95.475 34.61 98.07 32.345 99.12L33.455 100.695C35.03 99.945 36.14 98.43 36.755 96.63C37.37 98.265 38.45 99.645 39.98 100.35L41.075 98.79C38.81 97.74 37.715 95.295 37.715 93.195V92.43ZM45.47 94.74H43.46V89.475H41.48V103.29H43.46V96.375H45.47V94.74ZM52.6838 91.05C54.6938 91.05 55.6388 91.335 55.6388 91.95C55.6388 92.595 54.6938 92.865 52.6838 92.865C50.6888 92.865 49.7438 92.595 49.7438 91.95C49.7438 91.335 50.6888 91.05 52.6838 91.05ZM52.6838 94.305C55.8488 94.305 57.6938 93.48 57.6938 91.95C57.6938 90.435 55.8488 89.595 52.6838 89.595C49.5338 89.595 47.6888 90.435 47.6888 91.95C47.6888 93.48 49.5338 94.305 52.6838 94.305ZM53.8688 97.365H51.5288V96.405H53.8688V97.365ZM58.9388 96.405V94.845H46.4288V96.405H49.5488V97.365H47.8538V98.82H55.4588V99.555H47.8838V103.185H57.7688V101.7H49.8488V100.92H57.4088V97.365H55.8488V96.405H58.9388ZM68.5677 95.775C66.4377 95.055 65.4777 93.39 65.4477 91.815H68.1327V90.24H60.7077V91.815H63.4227C63.3927 93.525 62.3877 95.28 60.1677 96.03L61.1727 97.59C62.7777 97.065 63.8577 95.955 64.4727 94.605C65.0577 95.835 66.0927 96.825 67.6077 97.32L68.5677 95.775ZM62.3727 99.885H69.8127V103.305H71.7927V98.31H62.3727V99.885ZM69.8127 89.49V92.775H67.7727V94.365H69.8127V97.695H71.7927V89.49H69.8127ZM80.2815 90.165C77.3865 90.165 75.1365 91.755 75.1365 94.17C75.1365 96.57 77.3865 98.16 80.2815 98.16C83.1915 98.16 85.4415 96.57 85.4415 94.17C85.4415 91.755 83.1915 90.165 80.2815 90.165ZM80.2815 91.785C82.1715 91.785 83.5065 92.67 83.5065 94.17C83.5065 95.64 82.1715 96.54 80.2815 96.54C78.4065 96.54 77.0715 95.64 77.0715 94.17C77.0715 92.67 78.4065 91.785 80.2815 91.785ZM74.0415 100.02V101.64H86.5515V100.02H74.0415ZM95.0703 100.155V98.1H99.2553V96.51H91.2453V94.965H98.9403V90.36H89.2653V91.935H96.9903V93.42H89.2803V98.1H93.0903V100.155H87.8403V101.775H100.35V100.155H95.0703ZM110.576 95.715H107.876V92.175H110.576V95.715ZM112.526 90.615H105.941V97.275H112.526V90.615ZM109.481 98.565H107.501V103.05H116.906V101.475H109.481V98.565ZM116.411 93.465V89.475H114.431V99.555H116.411V95.085H118.241V93.465H116.411ZM130.464 93.6H122.829V91.545H130.359V89.97H120.864V95.175H130.464V93.6ZM122.799 98.91H120.819V103.05H130.569V101.475H122.799V98.91ZM119.349 96.3V97.875H131.844V96.3H119.349ZM143.24 101.805C141.395 101.805 140.45 101.49 140.45 100.77C140.45 100.05 141.395 99.72 143.24 99.72C145.085 99.72 146.03 100.05 146.03 100.77C146.03 101.49 145.085 101.805 143.24 101.805ZM143.24 98.22C140.255 98.22 138.455 99.135 138.455 100.77C138.455 102.39 140.255 103.305 143.24 103.305C146.225 103.305 148.04 102.39 148.04 100.77C148.04 99.135 146.225 98.22 143.24 98.22ZM144.275 95.97V94.83H148.115V93.255H140.525V91.635H148.04V90.06H138.56V94.83H142.295V95.97H137.045V97.545H149.54V95.97H144.275ZM154.534 98.505C153.499 98.505 152.809 97.41 152.809 95.355C152.809 93.315 153.499 92.22 154.534 92.22C155.554 92.22 156.259 93.315 156.259 95.355C156.259 97.41 155.554 98.505 154.534 98.505ZM154.534 90.435C152.434 90.435 150.904 92.325 150.904 95.355C150.904 98.4 152.434 100.305 154.534 100.305C156.619 100.305 158.164 98.4 158.164 95.355C158.164 92.325 156.619 90.435 154.534 90.435ZM163.654 94.68H161.644V89.475H159.664V103.29H161.644V96.315H163.654V94.68ZM167.387 95.985H171.872V90.645H165.347V92.22H169.847V94.425H165.362V100.11H166.607C169.112 100.11 171.137 100.02 173.387 99.63L173.177 98.025C171.227 98.355 169.487 98.46 167.387 98.475V95.985ZM174.137 89.46V103.32H176.117V89.46H174.137Z" fill="white"/>
</g>
</g>
<defs>
<clipPath id="clip0_4748_6714">
<rect width="320" height="138" rx="10" fill="white"/>
</clipPath>
</defs>
</svg>
