<svg width="340" height="158" viewBox="0 0 340 158" fill="none" xmlns="http://www.w3.org/2000/svg">
<g filter="url(#filter0_d_3189_5507)">
<g clip-path="url(#clip0_3189_5507)">
<rect x="10" y="8" width="320" height="138" rx="10" fill="#C2C2FF"/>
<g filter="url(#filter1_d_3189_5507)">
<path d="M10 -290C10 -295.523 14.4772 -300 20 -300H186.281V-300C182.335 -243.172 186.208 -186.072 197.792 -130.298L214.765 -48.5812C224.167 -3.31096 224.786 43.344 216.587 88.8477L206.289 146H20C14.4771 146 10 141.523 10 136V-290Z" fill="#5959FF"/>
</g>
<path d="M51.168 39.5486H47.976V42.7646C47.976 46.8686 46.296 51.0926 42.576 52.8446L44.472 55.4126C46.968 54.1886 48.624 51.8606 49.584 49.0526C50.496 51.6926 52.056 53.8286 54.36 55.0046L56.28 52.5086C52.728 50.7566 51.168 46.7486 51.168 42.7646V39.5486ZM63.552 46.3406H60.336V37.8446H57.168V59.9486H60.336V48.9806H63.552V46.3406ZM80.4221 49.0766H83.5901V37.8446H80.4221V41.0846H76.3901V43.6046H80.4221V49.0766ZM78.3101 46.3886C74.8541 45.3326 73.3421 42.7646 73.3421 40.1486V38.5646H70.1501V40.1486C70.1501 42.9566 68.6141 45.6686 64.9421 46.7726L66.5741 49.2446C69.0941 48.4526 70.8221 46.8206 71.8061 44.7566C72.7421 46.6046 74.3741 48.0686 76.7021 48.8126L78.3101 46.3886ZM72.1661 57.2366V55.9406H83.5901V50.0126H69.0221V52.4366H80.4701V53.6606H69.0461V59.6846H84.2141V57.2366H72.1661Z" fill="white"/>
<path d="M45.968 74.4459V76.6059C45.968 79.3579 44.832 82.2059 42.336 83.3739L43.616 85.0859C46.416 83.7099 47.696 80.2699 47.696 76.6059V74.4459H45.968ZM46.4 74.4459V76.6059C46.4 80.1579 47.568 83.4539 50.24 84.8139L51.52 83.1179C49.152 81.9659 48.096 79.2619 48.096 76.6059V74.4459H46.4ZM52.112 73.3099V88.1259H54.256V73.3099H52.112ZM53.776 79.0059V80.7819H56.4V79.0059H53.776ZM64.9268 75.4699V77.1659H68.5748V75.4699H64.9268ZM67.6308 73.3099V80.8299H69.7588V73.3099H67.6308ZM59.9668 81.4539V83.0859H67.6468V83.9019H59.9988V87.2939H62.0948V85.4379H69.7588V81.4539H59.9668ZM59.9988 86.3179V87.9659H70.1748V86.3179H59.9988ZM60.7508 73.7899V74.8459C60.7508 76.7339 59.7108 78.5419 57.2467 79.2779L58.3348 80.9579C61.1668 80.0619 62.4788 77.6459 62.4788 74.8459V73.7899H60.7508ZM61.1668 73.7899V74.8459C61.1668 77.5019 62.4308 79.7899 65.1348 80.6699L66.2228 79.0219C63.8868 78.3179 62.8948 76.6059 62.8948 74.8459V73.7899H61.1668ZM76.2498 80.2699V81.9659H89.6578V80.2699H76.2498ZM81.8978 78.0459V80.9259H84.0098V78.0459H81.8978ZM77.8658 77.3739V79.0539H88.1378V77.3739H77.8658ZM77.8658 73.9499V78.4459H79.9778V75.6139H88.0578V73.9499H77.8658ZM82.9058 82.7019C79.7057 82.7019 77.7538 83.6779 77.7538 85.4219C77.7538 87.1659 79.7057 88.1419 82.9058 88.1419C86.1058 88.1419 88.0418 87.1659 88.0418 85.4219C88.0418 83.6779 86.1058 82.7019 82.9058 82.7019ZM82.9058 84.3019C84.8898 84.3019 85.8978 84.6699 85.8978 85.4219C85.8978 86.1899 84.8898 86.5259 82.9058 86.5259C80.9218 86.5259 79.9138 86.1899 79.9138 85.4219C79.9138 84.6699 80.9218 84.3019 82.9058 84.3019ZM94.9205 74.3339C92.6645 74.3339 91.0325 76.3819 91.0325 79.6139C91.0325 82.8779 92.6645 84.9259 94.9205 84.9259C97.1765 84.9259 98.8085 82.8779 98.8085 79.6139C98.8085 76.3819 97.1765 74.3339 94.9205 74.3339ZM94.9205 76.2699C96.0245 76.2699 96.7765 77.4379 96.7765 79.6139C96.7765 81.8219 96.0245 83.0059 94.9205 83.0059C93.8165 83.0059 93.0805 81.8219 93.0805 79.6139C93.0805 77.4379 93.8165 76.2699 94.9205 76.2699ZM100.425 73.3099V88.1259H102.569V73.3099H100.425ZM102.089 78.8939V80.6539H104.713V78.8939H102.089ZM115.879 73.2939V88.1579H118.007V73.2939H115.879ZM106.471 82.9739V84.7019H107.783C110.487 84.7019 112.663 84.6219 115.063 84.1899L114.855 82.4779C112.503 82.8779 110.407 82.9739 107.783 82.9739H106.471ZM106.455 74.5579V76.2539H111.271V78.6059H106.471V83.6139H108.631V80.2859H113.447V74.5579H106.455ZM130.466 78.7659V80.4779H132.898V78.7659H130.466ZM135.25 73.3099V88.1259H137.282V73.3099H135.25ZM132.226 73.5339V87.4539H134.226V73.5339H132.226ZM127.874 74.3499C125.922 74.3499 124.674 76.3819 124.674 79.7259C124.674 83.0859 125.922 85.1179 127.874 85.1179C129.842 85.1179 131.106 83.0859 131.106 79.7259C131.106 76.3819 129.842 74.3499 127.874 74.3499ZM127.874 76.3499C128.706 76.3499 129.17 77.4699 129.17 79.7259C129.17 81.9979 128.706 83.1019 127.874 83.1019C127.074 83.1019 126.61 81.9979 126.61 79.7259C126.61 77.4699 127.074 76.3499 127.874 76.3499ZM144.077 74.3819V76.0939H150.413V74.3819H144.077ZM145.901 77.8379V81.5499H148.013V77.8379H145.901ZM149.581 74.3819V75.3099C149.581 76.3339 149.581 77.6139 149.261 79.4379L151.325 79.6619C151.677 77.8219 151.677 76.3499 151.677 75.3099V74.3819H149.581ZM153.117 73.3099V84.3979H155.261V73.3099H153.117ZM154.413 77.8219V79.5659H157.021V77.8219H154.413ZM145.373 86.1739V87.8699H155.725V86.1739H145.373ZM145.373 83.4059V86.7019H147.501V83.4059H145.373ZM143.405 82.4139C145.949 82.4139 149.389 82.3499 152.445 81.7739L152.317 80.2699C149.341 80.6859 145.773 80.7339 143.213 80.7339L143.405 82.4139ZM167.676 73.3259V84.3979H169.804V73.3259H167.676ZM169.196 77.8379V79.5819H171.772V77.8379H169.196ZM158.14 74.8619V76.5259H166.86V74.8619H158.14ZM162.508 77.0539C160.364 77.0539 158.86 78.2219 158.86 79.9179C158.86 81.6139 160.364 82.7659 162.508 82.7659C164.636 82.7659 166.14 81.6139 166.14 79.9179C166.14 78.2219 164.636 77.0539 162.508 77.0539ZM162.508 78.6699C163.452 78.6699 164.108 79.1179 164.108 79.9179C164.108 80.7179 163.452 81.1499 162.508 81.1499C161.564 81.1499 160.908 80.7179 160.908 79.9179C160.908 79.1179 161.564 78.6699 162.508 78.6699ZM161.436 73.2939V75.6779H163.564V73.2939H161.436ZM160.252 86.1739V87.8699H170.332V86.1739H160.252ZM160.252 83.5659V86.9099H162.38V83.5659H160.252ZM52.16 95.3099V105.918H54.304V95.3099H52.16ZM53.696 99.4379V101.182H56.272V99.4379H53.696ZM48.032 96.4139V97.4699C48.032 99.8219 46.16 101.806 42.528 102.798L43.424 104.494C47.84 103.214 50.304 100.446 50.304 96.4139H48.032ZM43.168 96.4139V98.1259H49.184V96.4139H43.168ZM44.72 108.174V109.87H54.8V108.174H44.72ZM44.72 104.846V108.926H46.864V104.846H44.72ZM66.8948 95.3099V106.014H69.0228V95.3099H66.8948ZM68.4148 99.3419V101.086H70.9908V99.3419H68.4148ZM57.9188 101.886V103.598H59.1508C62.4468 103.598 64.1428 103.518 65.9508 103.118L65.7428 101.438C63.9668 101.822 62.3668 101.886 59.1508 101.886H57.9188ZM57.9188 96.4779V102.798H60.0308V98.1899H64.5428V96.4779H57.9188ZM59.4708 108.174V109.87H69.5508V108.174H59.4708ZM59.4708 104.894V109.038H61.5988V104.894H59.4708ZM81.6135 95.3259V106.398H83.7415V95.3259H81.6135ZM83.1335 99.8379V101.582H85.7095V99.8379H83.1335ZM72.0775 96.8619V98.5259H80.7975V96.8619H72.0775ZM76.4455 99.0539C74.3015 99.0539 72.7975 100.222 72.7975 101.918C72.7975 103.614 74.3015 104.766 76.4455 104.766C78.5735 104.766 80.0775 103.614 80.0775 101.918C80.0775 100.222 78.5735 99.0539 76.4455 99.0539ZM76.4455 100.67C77.3895 100.67 78.0455 101.118 78.0455 101.918C78.0455 102.718 77.3895 103.15 76.4455 103.15C75.5015 103.15 74.8455 102.718 74.8455 101.918C74.8455 101.118 75.5015 100.67 76.4455 100.67ZM75.3735 95.2939V97.6779H77.5015V95.2939H75.3735ZM74.1895 108.174V109.87H84.2695V108.174H74.1895ZM74.1895 105.566V108.91H76.3175V105.566H74.1895ZM98.5205 97.4699V99.1659H102.169V97.4699H98.5205ZM101.225 95.3099V102.83H103.353V95.3099H101.225ZM93.5605 103.454V105.086H101.241V105.902H93.5925V109.294H95.6885V107.438H103.353V103.454H93.5605ZM93.5925 108.318V109.966H103.769V108.318H93.5925ZM94.3445 95.7899V96.8459C94.3445 98.7339 93.3045 100.542 90.8405 101.278L91.9285 102.958C94.7605 102.062 96.0725 99.6459 96.0725 96.8459V95.7899H94.3445ZM94.7605 95.7899V96.8459C94.7605 99.5019 96.0245 101.79 98.7285 102.67L99.8165 101.022C97.4805 100.318 96.4885 98.6059 96.4885 96.8459V95.7899H94.7605ZM112.839 97.4539V99.1339H116.615V97.4539H112.839ZM112.839 100.414V102.11H116.679V100.414H112.839ZM115.943 95.3099V103.982H118.071V95.3099H115.943ZM106.279 96.3819V103.182H113.287V96.3819H106.279ZM111.191 98.0619V101.518H108.375V98.0619H111.191ZM113.047 104.366C109.911 104.366 107.975 105.438 107.975 107.246C107.975 109.07 109.911 110.126 113.047 110.126C116.183 110.126 118.119 109.07 118.119 107.246C118.119 105.438 116.183 104.366 113.047 104.366ZM113.047 105.998C114.983 105.998 116.007 106.398 116.007 107.246C116.007 108.094 114.983 108.51 113.047 108.51C111.127 108.51 110.103 108.094 110.103 107.246C110.103 106.398 111.127 105.998 113.047 105.998Z" fill="white"/>
<path d="M258.938 133.475C258.938 133.475 255.79 134.334 246.13 134.121C236.469 133.908 222.522 129.624 217.135 129.624C211.748 129.624 205.888 131.55 203.649 135.833C201.409 140.117 199.375 145.467 212.414 150.39C225.452 155.314 235.337 156.812 253.993 161.303C272.648 165.794 280.063 166.013 289.706 163.661C299.349 161.309 305.886 155.314 304.99 146.943C304.094 138.572 302.066 133.458 297.351 132.173C292.636 130.887 258.938 133.475 258.938 133.475Z" fill="#4141FD"/>
<path d="M258.938 133.475C258.938 133.475 255.79 134.334 246.13 134.121C236.469 133.908 222.522 129.624 217.135 129.624C211.748 129.624 205.888 131.55 203.649 135.833C201.409 140.117 199.375 145.467 212.414 150.39C225.452 155.314 235.337 156.812 253.993 161.303C272.648 165.794 280.063 166.013 289.706 163.661C299.349 161.309 305.886 155.314 304.99 146.943C304.094 138.572 302.066 133.458 297.351 132.173C292.636 130.887 258.938 133.475 258.938 133.475Z" stroke="#4141FD" stroke-linecap="round" stroke-linejoin="round"/>
<path d="M275.494 65.292C275.494 65.292 275.817 69.3621 274.681 71.6335C273.545 73.905 268.979 76.1937 265.071 78.3095C261.162 80.4253 272.277 86.4199 270 90C267.723 93.5801 251.234 93.2871 251.234 93.2871C251.234 93.2871 247.649 98.8274 244.72 103.71C241.791 108.593 240.16 113.644 243.907 116.394C247.654 119.143 252.209 115.091 254.653 111.205C257.098 107.319 259.375 102.903 259.375 102.903C259.375 102.903 262.494 118.025 261.652 122.112C260.81 126.2 258.885 130.091 258.885 131.913C258.885 133.735 260.349 135.009 262.632 135.493C264.915 135.977 272.727 136.646 278.1 136.312C283.473 135.977 298.779 135.009 299.43 132.887C300.082 130.766 301.056 116.117 301.056 116.117C301.056 116.117 310.661 119.374 313.595 113.517C316.53 107.659 316.685 94.492 314.57 87.9487C312.454 81.4053 307.075 78.9955 303.823 77.3698C300.572 75.744 291.613 71.5067 289.987 69.7138C288.362 67.9208 287.86 59.1003 287.86 56.1716C287.86 53.243 287.537 56.0102 284.441 58.2874C281.345 60.5646 275.494 65.292 275.494 65.292Z" fill="#A5A5FE"/>
<path d="M298.289 46.2384C299.592 43.7998 301.547 39.5625 298.941 36.6338C296.335 33.7052 294.709 35.4808 294.381 32.5637C294.052 29.6466 293.406 26.5392 290.472 26.5392C287.537 26.5392 285.427 27.6922 283.634 26.5392C281.842 25.3862 280.377 22.1404 275.817 22.1404C271.257 22.1404 272.407 28.5012 271.589 29.3141C271.186 29.6046 270.735 29.8214 270.257 29.954C269.913 29.8681 269.626 29.6335 269.473 29.3141C268.66 27.6883 268.556 27.8784 268.484 25.1908C268.412 22.5598 266.691 21.1206 264.736 22.5849C262.782 24.0493 266.852 23.8878 264.575 26.3322C262.298 28.7766 263.284 32.5637 265.376 36.1611C267.469 39.7585 269.937 37.6254 269.937 37.6254C270.421 37.3026 270.859 39.1359 275.2 39.9314C279.334 40.6867 282.159 39.3549 282.487 43.8978C282.816 48.4407 286.869 50.9831 288.01 51.6345C289.152 52.286 286.217 55.8718 286.857 57.4976C287.497 59.1233 289.624 58.9619 290.927 58.8005C292.23 58.6391 291.417 56.6847 294.185 56.3561C296.952 56.0275 297.926 55.2031 299.068 52.1246C300.209 49.046 296.986 48.6828 298.289 46.2384Z" fill="#5959FF"/>
<path d="M298.289 46.2384C299.592 43.7998 301.547 39.5625 298.941 36.6338C296.335 33.7052 294.709 35.4808 294.381 32.5637C294.052 29.6466 293.406 26.5392 290.472 26.5392C287.537 26.5392 285.427 27.6922 283.634 26.5392C281.842 25.3862 280.377 22.1404 275.817 22.1404C271.257 22.1404 272.407 28.5012 271.589 29.3141C271.186 29.6046 270.735 29.8214 270.257 29.954C269.913 29.8681 269.626 29.6335 269.473 29.3141C268.66 27.6883 268.556 27.8784 268.484 25.1908C268.412 22.5598 266.691 21.1206 264.736 22.5849C262.782 24.0493 266.852 23.8878 264.575 26.3322C262.298 28.7766 263.284 32.5637 265.376 36.1611C267.469 39.7585 269.937 37.6254 269.937 37.6254C270.421 37.3026 270.859 39.1359 275.2 39.9314C279.334 40.6867 282.159 39.3549 282.487 43.8978C282.816 48.4407 286.869 50.9831 288.01 51.6345C289.152 52.286 286.217 55.8718 286.857 57.4976C287.497 59.1233 289.624 58.9619 290.927 58.8005C292.23 58.6391 291.417 56.6847 294.185 56.3561C296.952 56.0275 297.926 55.2031 299.068 52.1246C300.209 49.046 296.986 48.6828 298.289 46.2384Z" stroke="#5959FF" stroke-linecap="round" stroke-linejoin="round"/>
<path d="M303.823 77.3409C301.286 76.0669 295.279 73.2132 291.987 71.1723C290.903 74.4238 287.721 81.8953 281.356 81.8953C275.488 81.8953 273.764 76.407 273.285 73.3342C271.337 75.0637 269.5 75.5 267.5 76V76C260.599 77.882 255.037 82.989 252.573 89.7043L251.257 93.2929C251.257 93.2929 250.046 95.1665 248.461 97.6859C255.039 97.3573 259.415 102.903 259.415 102.903C259.415 102.903 262.493 118.025 261.651 122.112C260.81 126.2 258.884 130.091 258.884 131.913C258.884 133.735 260.349 135.009 262.631 135.493C264.914 135.977 272.726 136.646 278.099 136.312C283.472 135.977 298.778 135.009 299.43 132.887C300.081 130.766 301.056 116.117 301.056 116.117L300.081 103.255C308.262 97.8473 313.981 101.635 315.855 103.255C316.258 97.7262 315.797 91.7248 314.569 87.9429C312.453 81.4111 307.08 78.9667 303.823 77.3409Z" fill="white"/>
<path d="M243.688 107.071C243.688 107.071 242.079 107.925 240.805 111.032C239.531 114.139 237.923 119.91 239.519 121.732C241.116 123.554 244.766 121.945 248.167 121.519C251.568 121.092 265.825 112.744 268.178 111.349C270.53 109.954 272.461 109.424 273.21 108.138C273.96 106.852 273.747 102.252 273.85 100.003C273.954 97.7551 273.424 87.6951 273.424 87.6951C273.424 87.6951 272.674 85.2334 271.389 85.4467C271.389 85.4467 269.89 84.5935 269.573 85.4467L268.927 87.1762C268.927 87.1762 267.538 86.7496 267.198 87.4991C266.965 88.2283 266.822 88.9836 266.771 89.7474C266.771 89.7474 265.168 90.4969 265.168 91.477C265.168 92.457 265.485 98.2221 265.485 99.8248C265.485 101.427 265.272 103.895 265.808 104.961C266.344 106.028 266.88 106.997 266.88 106.997C266.88 106.997 259.063 108.069 255.748 108.069C252.433 108.069 246.651 108.173 245.579 108.709" fill="#A5A5FE"/>
<path d="M308.764 112.26C303.627 108.945 292.921 111.511 289.497 111.297C286.072 111.084 276.548 105.838 276.548 105.838C276.548 105.838 278.474 103.912 278.578 102.736C278.682 101.56 278.578 98.3489 278.578 96.5271C278.578 94.7053 279.114 92.8893 279.223 91.5C279.333 90.1106 277.494 91.0676 277.188 91.5C276.883 91.9323 276.116 96.2043 276.116 96.2043C276.116 96.2043 275.153 93.3217 275.153 92.9989C275.153 92.676 274.94 88.7154 274.404 87.107C273.868 85.4985 272.588 87.107 272.588 87.107C272.478 86.1442 272.155 85.3775 271.406 85.3775C270.657 85.3775 270.017 88.0582 270.017 88.0582C270.017 86.4498 269.48 86.5593 268.944 87.0897C268.408 87.6201 268.414 91.1598 268.414 91.1598L267.768 90.1971C267.019 89.9837 266.615 91.1598 266.615 92.2321C266.615 93.3044 267.042 96.5098 267.042 99.1848C267.011 100.549 267.119 101.913 267.365 103.255C267.834 105.129 268.63 106.904 269.717 108.501C271.539 111.176 277.638 114.491 281.385 117.379C285.133 120.268 296.155 125.087 301.615 125.946C307.074 126.805 310.839 128.829 312.102 126.482C313.364 124.136 315.739 112.566 314.563 108.714" fill="#A5A5FE"/>
<path d="M261.56 153.192C260.384 152.652 259.3 151.931 258.349 151.053C257.069 149.768 258.349 146.556 256.619 145.288C254.89 144.02 251.482 143.559 250.854 145.507C250.226 147.456 249.782 148.718 248.496 149.145C247.211 149.572 245.717 149.572 243.359 150.644C241.002 151.716 241.007 155.567 241.007 155.567C245.527 156.171 249.971 157.247 254.267 158.778C260.476 161.13 263.255 159.845 263.255 159.845C263.255 159.845 263.491 155.527 261.56 153.192Z" fill="#A5A5FE"/>
<path d="M261.56 153.192C260.384 152.652 259.3 151.931 258.349 151.053C257.069 149.768 258.349 146.556 256.619 145.288C254.89 144.02 251.482 143.559 250.854 145.507C250.226 147.456 249.782 148.718 248.496 149.145C247.211 149.572 245.717 149.572 243.359 150.644C241.002 151.716 241.007 155.567 241.007 155.567C245.527 156.171 249.971 157.247 254.267 158.778C260.476 161.13 263.255 159.845 263.255 159.845C263.255 159.845 263.491 155.527 261.56 153.192Z" stroke="#5959FF" stroke-linecap="round" stroke-linejoin="round"/>
<path d="M277.484 159.493C280.74 158.655 283.932 157.587 287.037 156.299C291.13 154.639 295.269 153.007 299.218 151.03C305.214 148.032 307.353 143.535 305.854 137.972C304.355 132.409 301.79 128.125 290.865 130.051C279.94 131.977 276.481 138.549 271.84 143.535C266.104 149.675 261.377 152.835 259.209 152.529C256.736 152.183 256.211 156.807 259.636 158.525C265.17 161.292 271.483 160.969 277.484 159.493Z" fill="#5959FF"/>
<path d="M277.484 159.493C280.74 158.655 283.932 157.587 287.037 156.299C291.13 154.639 295.269 153.007 299.218 151.03C305.214 148.032 307.353 143.535 305.854 137.972C304.355 132.409 301.79 128.125 290.865 130.051C279.94 131.977 276.481 138.549 271.84 143.535C266.104 149.675 261.377 152.835 259.209 152.529C256.736 152.183 256.211 156.807 259.636 158.525C265.17 161.292 271.483 160.969 277.484 159.493Z" stroke="#5959FF" stroke-linecap="round" stroke-linejoin="round"/>
<path d="M261.065 152.31C261.065 152.31 266.294 151.266 271.788 144.988C277.282 138.71 278.06 137.661 278.06 137.661" stroke="#A5A5FE" stroke-linecap="round" stroke-linejoin="round"/>
<path d="M218.322 130.132C216.422 129.77 214.481 129.681 212.557 129.867C207.42 130.293 203.995 133.504 203.142 136.289C202.289 139.073 205.281 146.136 211.917 150.846C218.552 155.556 225.401 156.611 234.608 159.193C242.766 161.471 251.327 164.151 250.75 164.001C249.573 162.85 248.917 161.267 248.934 159.62C249.055 157.648 250.381 156.109 251.488 155.152C249.759 154.357 246.916 152.558 242.512 148.488C235.421 141.95 228.18 135.407 223.931 132.397" fill="#4141FD"/>
<path d="M218.322 130.132C216.422 129.77 214.481 129.681 212.557 129.867C207.42 130.293 203.995 133.504 203.142 136.289C202.289 139.073 205.281 146.136 211.917 150.846C218.552 155.556 225.401 156.611 234.608 159.193C242.766 161.471 251.327 164.151 250.75 164.001C249.573 162.85 248.917 161.267 248.934 159.62C249.055 157.648 250.381 156.109 251.488 155.152C249.759 154.357 246.916 152.558 242.512 148.488C235.421 141.95 228.18 135.407 223.931 132.397" stroke="#4141FD" stroke-linecap="round" stroke-linejoin="round"/>
<path d="M221.65 132.784C220.462 132.207 219.736 131.907 219.736 131.907" stroke="#A5A5FE" stroke-linecap="round" stroke-linejoin="round"/>
<path d="M243.797 148.649C243.797 148.649 232.55 139.754 228.105 136.617C226.697 135.624 225.237 134.708 223.729 133.873" stroke="#A5A5FE" stroke-linecap="round" stroke-linejoin="round"/>
<path d="M271.746 35.0081C271.746 35.0081 267.675 38.7496 268.004 42.8198C268.333 46.8899 267.024 49.1613 267.514 52.1015C268.004 55.0417 268.667 60.7491 269.82 62.1962C270.973 63.6432 271.123 65.292 272.264 66.1049C273.406 66.9177 277.315 66.9177 278.127 65.6148C278.94 64.3119 287.571 59.2733 288.222 57.4746C288.874 55.6759 288.712 55.1974 288.712 55.1974C288.712 55.1974 294.408 51.7787 293.595 48.8558C292.782 45.9329 290.499 44.7856 289.196 45.7657C287.894 46.7458 287.732 47.23 287.732 47.23C287.732 47.23 284.325 44.9874 284.976 42.8716C285.628 40.7559 287.663 40.0295 287.011 37.5851C286.36 35.1407 281.489 36.3629 276.306 36.7607C272.218 37.0605 273.562 33.5092 271.746 35.0081Z" fill="#A5A5FE"/>
</g>
</g>
<defs>
<filter id="filter0_d_3189_5507" x="0" y="0" width="340" height="158" filterUnits="userSpaceOnUse" color-interpolation-filters="sRGB">
<feFlood flood-opacity="0" result="BackgroundImageFix"/>
<feColorMatrix in="SourceAlpha" type="matrix" values="0 0 0 0 0 0 0 0 0 0 0 0 0 0 0 0 0 0 127 0" result="hardAlpha"/>
<feOffset dy="2"/>
<feGaussianBlur stdDeviation="5"/>
<feComposite in2="hardAlpha" operator="out"/>
<feColorMatrix type="matrix" values="0 0 0 0 0 0 0 0 0 0 0 0 0 0 0 0 0 0 1 0"/>
<feBlend mode="normal" in2="BackgroundImageFix" result="effect1_dropShadow_3189_5507"/>
<feBlend mode="normal" in="SourceGraphic" in2="effect1_dropShadow_3189_5507" result="shape"/>
</filter>
<filter id="filter1_d_3189_5507" x="-12" y="-324" width="260.308" height="494" filterUnits="userSpaceOnUse" color-interpolation-filters="sRGB">
<feFlood flood-opacity="0" result="BackgroundImageFix"/>
<feColorMatrix in="SourceAlpha" type="matrix" values="0 0 0 0 0 0 0 0 0 0 0 0 0 0 0 0 0 0 127 0" result="hardAlpha"/>
<feOffset dx="2"/>
<feGaussianBlur stdDeviation="12"/>
<feComposite in2="hardAlpha" operator="out"/>
<feColorMatrix type="matrix" values="0 0 0 0 0.34902 0 0 0 0 0.34902 0 0 0 0 1 0 0 0 0.3 0"/>
<feBlend mode="normal" in2="BackgroundImageFix" result="effect1_dropShadow_3189_5507"/>
<feBlend mode="normal" in="SourceGraphic" in2="effect1_dropShadow_3189_5507" result="shape"/>
</filter>
<clipPath id="clip0_3189_5507">
<rect x="10" y="8" width="320" height="138" rx="10" fill="white"/>
</clipPath>
</defs>
</svg>
