<svg width="340" height="158" viewBox="0 0 340 158" fill="none" xmlns="http://www.w3.org/2000/svg">
<g filter="url(#filter0_d_3558_42466)">
<g clip-path="url(#clip0_3558_42466)">
<rect x="10" y="8" width="320" height="138" rx="10" fill="#C2C2FF"/>
<g filter="url(#filter1_d_3558_42466)">
<path d="M20 146H206.289L216.587 88.8477C221.402 62.1243 223.176 35.0039 221.916 8H20C14.4772 8 10 12.4772 10 18V136C10 141.523 14.4771 146 20 146Z" fill="#5959FF"/>
</g>
<path d="M258.938 133.475C258.938 133.475 255.79 134.334 246.13 134.121C236.469 133.908 222.522 129.624 217.135 129.624C211.748 129.624 205.888 131.55 203.649 135.833C201.409 140.117 199.375 145.467 212.414 150.39C225.452 155.314 235.337 156.812 253.993 161.303C272.648 165.794 280.063 166.013 289.706 163.661C299.349 161.309 305.886 155.314 304.99 146.943C304.094 138.572 302.066 133.458 297.351 132.173C292.636 130.887 258.938 133.475 258.938 133.475Z" fill="#4141FD"/>
<path d="M258.938 133.475C258.938 133.475 255.79 134.334 246.13 134.121C236.469 133.908 222.522 129.624 217.135 129.624C211.748 129.624 205.888 131.55 203.649 135.833C201.409 140.117 199.375 145.467 212.414 150.39C225.452 155.314 235.337 156.812 253.993 161.303C272.648 165.794 280.063 166.013 289.706 163.661C299.349 161.309 305.886 155.314 304.99 146.943C304.094 138.572 302.066 133.458 297.351 132.173C292.636 130.887 258.938 133.475 258.938 133.475Z" stroke="#4141FD" stroke-linecap="round" stroke-linejoin="round"/>
<path d="M275.494 65.2919C275.494 65.2919 275.817 69.3621 274.681 71.6335C273.545 73.9049 268.979 76.1937 265.071 78.3095C261.162 80.4252 272.277 86.4199 270 90C267.723 93.5801 251.234 93.2871 251.234 93.2871C251.234 93.2871 247.649 98.8273 244.72 103.71C241.791 108.593 240.16 113.644 243.907 116.393C247.654 119.143 252.209 115.091 254.653 111.205C257.098 107.319 259.375 102.903 259.375 102.903C259.375 102.903 262.494 118.025 261.652 122.112C260.81 126.2 258.885 130.091 258.885 131.913C258.885 133.735 260.349 135.009 262.632 135.493C264.915 135.977 272.727 136.646 278.1 136.312C283.473 135.977 298.779 135.009 299.43 132.887C300.082 130.766 301.056 116.117 301.056 116.117C301.056 116.117 310.661 119.374 313.595 113.517C316.53 107.659 316.685 94.492 314.57 87.9486C312.454 81.4053 307.075 78.9955 303.823 77.3697C300.572 75.744 291.613 71.5067 289.987 69.7137C288.362 67.9208 287.86 59.1002 287.86 56.1716C287.86 53.2429 287.537 56.0102 284.441 58.2874C281.345 60.5646 275.494 65.2919 275.494 65.2919Z" fill="#A5A5FE"/>
<path d="M298.289 46.2384C299.592 43.7998 301.547 39.5625 298.941 36.6338C296.335 33.7052 294.709 35.4808 294.381 32.5637C294.052 29.6466 293.406 26.5392 290.472 26.5392C287.537 26.5392 285.427 27.6922 283.634 26.5392C281.842 25.3862 280.377 22.1404 275.817 22.1404C271.257 22.1404 272.407 28.5012 271.589 29.3141C271.186 29.6046 270.735 29.8214 270.257 29.954C269.913 29.8681 269.626 29.6335 269.473 29.3141C268.66 27.6883 268.556 27.8784 268.484 25.1908C268.412 22.5598 266.691 21.1206 264.736 22.5849C262.782 24.0493 266.852 23.8878 264.575 26.3322C262.298 28.7766 263.284 32.5637 265.376 36.1611C267.469 39.7585 269.937 37.6254 269.937 37.6254C270.421 37.3026 270.859 39.1359 275.2 39.9314C279.334 40.6867 282.159 39.3549 282.487 43.8978C282.816 48.4407 286.869 50.9831 288.01 51.6345C289.152 52.286 286.217 55.8718 286.857 57.4976C287.497 59.1233 289.624 58.9619 290.927 58.8005C292.23 58.6391 291.417 56.6847 294.185 56.3561C296.952 56.0275 297.926 55.2031 299.068 52.1246C300.209 49.046 296.986 48.6828 298.289 46.2384Z" fill="#5959FF"/>
<path d="M298.289 46.2384C299.592 43.7998 301.547 39.5625 298.941 36.6338C296.335 33.7052 294.709 35.4808 294.381 32.5637C294.052 29.6466 293.406 26.5392 290.472 26.5392C287.537 26.5392 285.427 27.6922 283.634 26.5392C281.842 25.3862 280.377 22.1404 275.817 22.1404C271.257 22.1404 272.407 28.5012 271.589 29.3141C271.186 29.6046 270.735 29.8214 270.257 29.954C269.913 29.8681 269.626 29.6335 269.473 29.3141C268.66 27.6883 268.556 27.8784 268.484 25.1908C268.412 22.5598 266.691 21.1206 264.736 22.5849C262.782 24.0493 266.852 23.8878 264.575 26.3322C262.298 28.7766 263.284 32.5637 265.376 36.1611C267.469 39.7585 269.937 37.6254 269.937 37.6254C270.421 37.3026 270.859 39.1359 275.2 39.9314C279.334 40.6867 282.159 39.3549 282.487 43.8978C282.816 48.4407 286.869 50.9831 288.01 51.6345C289.152 52.286 286.217 55.8718 286.857 57.4976C287.497 59.1233 289.624 58.9619 290.927 58.8005C292.23 58.6391 291.417 56.6847 294.185 56.3561C296.952 56.0275 297.926 55.2031 299.068 52.1246C300.209 49.046 296.986 48.6828 298.289 46.2384Z" stroke="#5959FF" stroke-linecap="round" stroke-linejoin="round"/>
<path d="M303.823 77.341C301.286 76.0669 295.279 73.2132 291.987 71.1724C290.903 74.4239 287.721 81.8954 281.356 81.8954C275.488 81.8954 273.764 76.407 273.285 73.3343C271.337 75.0638 269.5 75.5 267.5 76V76C260.599 77.8821 255.037 82.989 252.573 89.7043L251.257 93.2929C251.257 93.2929 250.046 95.1666 248.461 97.6859C255.039 97.3573 259.415 102.903 259.415 102.903C259.415 102.903 262.493 118.025 261.651 122.113C260.81 126.2 258.884 130.091 258.884 131.913C258.884 133.735 260.349 135.009 262.631 135.493C264.914 135.977 272.726 136.646 278.099 136.312C283.472 135.977 298.778 135.009 299.43 132.887C300.081 130.766 301.056 116.117 301.056 116.117L300.081 103.255C308.262 97.8473 313.981 101.635 315.855 103.255C316.258 97.7263 315.797 91.7248 314.569 87.9429C312.453 81.4111 307.08 78.9667 303.823 77.341Z" fill="white"/>
<path d="M243.688 107.071C243.688 107.071 242.079 107.925 240.805 111.032C239.531 114.139 237.923 119.91 239.519 121.732C241.116 123.554 244.766 121.945 248.167 121.519C251.568 121.092 265.825 112.744 268.178 111.349C270.53 109.954 272.461 109.424 273.21 108.138C273.96 106.852 273.747 102.252 273.85 100.004C273.954 97.7551 273.424 87.6951 273.424 87.6951C273.424 87.6951 272.674 85.2334 271.389 85.4467C271.389 85.4467 269.89 84.5935 269.573 85.4467L268.927 87.1762C268.927 87.1762 267.538 86.7496 267.198 87.4991C266.965 88.2284 266.822 88.9836 266.771 89.7475C266.771 89.7475 265.168 90.4969 265.168 91.477C265.168 92.457 265.485 98.2221 265.485 99.8248C265.485 101.427 265.272 103.895 265.808 104.961C266.344 106.028 266.88 106.997 266.88 106.997C266.88 106.997 259.063 108.069 255.748 108.069C252.433 108.069 246.651 108.173 245.579 108.709" fill="#A5A5FE"/>
<path d="M308.764 112.26C303.627 108.945 292.921 111.51 289.497 111.297C286.072 111.084 276.548 105.838 276.548 105.838C276.548 105.838 278.474 103.912 278.578 102.736C278.682 101.56 278.578 98.3488 278.578 96.5271C278.578 94.7053 279.114 92.8893 279.223 91.4999C279.333 90.1106 277.494 91.0676 277.188 91.4999C276.883 91.9323 276.116 96.2042 276.116 96.2042C276.116 96.2042 275.153 93.3217 275.153 92.9989C275.153 92.676 274.94 88.7154 274.404 87.107C273.868 85.4985 272.588 87.107 272.588 87.107C272.478 86.1442 272.155 85.3774 271.406 85.3774C270.657 85.3774 270.017 88.0582 270.017 88.0582C270.017 86.4497 269.48 86.5593 268.944 87.0897C268.408 87.6201 268.414 91.1598 268.414 91.1598L267.768 90.197C267.019 89.9837 266.615 91.1598 266.615 92.2321C266.615 93.3044 267.042 96.5098 267.042 99.1848C267.011 100.549 267.119 101.913 267.365 103.255C267.834 105.129 268.63 106.904 269.717 108.501C271.539 111.176 277.638 114.491 281.385 117.379C285.133 120.268 296.155 125.087 301.615 125.946C307.074 126.805 310.839 128.829 312.102 126.482C313.364 124.136 315.739 112.566 314.563 108.714" fill="#A5A5FE"/>
<path d="M261.56 153.192C260.384 152.652 259.3 151.931 258.349 151.053C257.069 149.768 258.349 146.556 256.619 145.288C254.89 144.02 251.482 143.559 250.854 145.507C250.226 147.456 249.782 148.718 248.496 149.145C247.211 149.572 245.717 149.572 243.359 150.644C241.002 151.716 241.007 155.567 241.007 155.567C245.527 156.171 249.971 157.247 254.267 158.778C260.476 161.13 263.255 159.845 263.255 159.845C263.255 159.845 263.491 155.527 261.56 153.192Z" fill="#A5A5FE"/>
<path d="M261.56 153.192C260.384 152.652 259.3 151.931 258.349 151.053C257.069 149.768 258.349 146.556 256.619 145.288C254.89 144.02 251.482 143.559 250.854 145.507C250.226 147.456 249.782 148.718 248.496 149.145C247.211 149.572 245.717 149.572 243.359 150.644C241.002 151.716 241.007 155.567 241.007 155.567C245.527 156.171 249.971 157.247 254.267 158.778C260.476 161.13 263.255 159.845 263.255 159.845C263.255 159.845 263.491 155.527 261.56 153.192Z" stroke="#5959FF" stroke-linecap="round" stroke-linejoin="round"/>
<path d="M277.484 159.493C280.74 158.655 283.932 157.587 287.037 156.299C291.13 154.639 295.269 153.007 299.218 151.03C305.214 148.032 307.353 143.535 305.854 137.972C304.355 132.409 301.79 128.125 290.865 130.051C279.94 131.976 276.481 138.549 271.84 143.535C266.104 149.675 261.377 152.834 259.209 152.529C256.736 152.183 256.211 156.807 259.636 158.525C265.17 161.292 271.483 160.969 277.484 159.493Z" fill="#5959FF"/>
<path d="M277.484 159.493C280.74 158.655 283.932 157.587 287.037 156.299C291.13 154.639 295.269 153.007 299.218 151.03C305.214 148.032 307.353 143.535 305.854 137.972C304.355 132.409 301.79 128.125 290.865 130.051C279.94 131.976 276.481 138.549 271.84 143.535C266.104 149.675 261.377 152.834 259.209 152.529C256.736 152.183 256.211 156.807 259.636 158.525C265.17 161.292 271.483 160.969 277.484 159.493Z" stroke="#5959FF" stroke-linecap="round" stroke-linejoin="round"/>
<path d="M261.065 152.31C261.065 152.31 266.294 151.266 271.788 144.988C277.282 138.71 278.06 137.661 278.06 137.661" stroke="#A5A5FE" stroke-linecap="round" stroke-linejoin="round"/>
<path d="M218.322 130.132C216.422 129.77 214.481 129.681 212.557 129.866C207.42 130.293 203.995 133.504 203.142 136.289C202.289 139.073 205.281 146.135 211.917 150.846C218.552 155.556 225.401 156.611 234.608 159.193C242.766 161.471 251.327 164.151 250.75 164.001C249.573 162.85 248.917 161.267 248.934 159.62C249.055 157.648 250.381 156.109 251.488 155.152C249.759 154.356 246.916 152.558 242.512 148.488C235.421 141.95 228.18 135.407 223.931 132.397" fill="#4141FD"/>
<path d="M218.322 130.132C216.422 129.77 214.481 129.681 212.557 129.866C207.42 130.293 203.995 133.504 203.142 136.289C202.289 139.073 205.281 146.135 211.917 150.846C218.552 155.556 225.401 156.611 234.608 159.193C242.766 161.471 251.327 164.151 250.75 164.001C249.573 162.85 248.917 161.267 248.934 159.62C249.055 157.648 250.381 156.109 251.488 155.152C249.759 154.356 246.916 152.558 242.512 148.488C235.421 141.95 228.18 135.407 223.931 132.397" stroke="#4141FD" stroke-linecap="round" stroke-linejoin="round"/>
<path d="M221.65 132.784C220.462 132.207 219.736 131.907 219.736 131.907" stroke="#A5A5FE" stroke-linecap="round" stroke-linejoin="round"/>
<path d="M243.797 148.649C243.797 148.649 232.55 139.754 228.105 136.617C226.697 135.624 225.237 134.708 223.729 133.873" stroke="#A5A5FE" stroke-linecap="round" stroke-linejoin="round"/>
<path d="M271.746 35.0081C271.746 35.0081 267.675 38.7496 268.004 42.8198C268.333 46.8899 267.024 49.1614 267.514 52.1015C268.004 55.0417 268.667 60.7491 269.82 62.1962C270.973 63.6432 271.123 65.292 272.264 66.1049C273.406 66.9178 277.315 66.9178 278.127 65.6149C278.94 64.312 287.571 59.2733 288.222 57.4746C288.874 55.6759 288.712 55.1974 288.712 55.1974C288.712 55.1974 294.408 51.7787 293.595 48.8558C292.782 45.9329 290.499 44.7857 289.196 45.7657C287.894 46.7458 287.732 47.2301 287.732 47.2301C287.732 47.2301 284.325 44.9874 284.976 42.8717C285.628 40.7559 287.663 40.0295 287.011 37.5851C286.36 35.1407 281.489 36.3629 276.306 36.7607C272.218 37.0605 273.562 33.5092 271.746 35.0081Z" fill="#A5A5FE"/>
<path d="M50.404 47.192H47.478V50.14C47.478 53.902 45.938 57.774 42.528 59.38L44.266 61.734C46.554 60.612 48.072 58.478 48.952 55.904C49.788 58.324 51.218 60.282 53.33 61.36L55.09 59.072C51.834 57.466 50.404 53.792 50.404 50.14V47.192ZM61.756 53.418H58.808V45.63H55.904V65.892H58.808V55.838H61.756V53.418ZM77.2203 55.926H80.1243V45.63H77.2203V48.6H73.5243V50.91H77.2203V55.926ZM75.2843 53.462C72.1163 52.494 70.7303 50.14 70.7303 47.742V46.29H67.8043V47.742C67.8043 50.316 66.3963 52.802 63.0303 53.814L64.5263 56.08C66.8363 55.354 68.4203 53.858 69.3223 51.966C70.1803 53.66 71.6763 55.002 73.8103 55.684L75.2843 53.462ZM69.6523 63.406V62.218H80.1243V56.784H66.7703V59.006H77.2643V60.128H66.7923V65.65H80.6963V63.406H69.6523Z" fill="white"/>
<path d="M50.19 79.444H47.32V78.24H45.458V79.444H42.602V80.9H50.19V79.444ZM44.996 83.672C44.996 83.028 45.556 82.706 46.396 82.706C47.222 82.706 47.796 83.028 47.796 83.672C47.796 84.33 47.222 84.652 46.396 84.652C45.556 84.652 44.996 84.33 44.996 83.672ZM49.56 83.672C49.56 82.272 48.258 81.306 46.396 81.306C44.548 81.306 43.232 82.272 43.232 83.672C43.232 85.086 44.548 86.052 46.396 86.052C48.258 86.052 49.56 85.086 49.56 83.672ZM44.156 88.404H50.904V91.218H52.752V86.92H44.156V88.404ZM54.46 81.628H52.752V78.324H50.904V86.388H52.752V83.154H54.46V81.628ZM63.7129 82.93H64.7209V86.192H66.4709V78.31H64.7209V81.446H63.7129V78.548H61.9909V85.786H63.7129V82.93ZM61.9769 84.036C60.2829 83.35 59.5829 81.964 59.5829 80.578V79.08H57.8049V80.578C57.8049 82.034 57.1049 83.63 55.2989 84.414L56.2789 85.842C57.4689 85.338 58.2669 84.414 58.7289 83.322C59.1909 84.246 59.9329 85.016 60.9969 85.436L61.9769 84.036ZM62.1029 89.818C60.4229 89.818 59.4989 89.482 59.4989 88.796C59.4989 88.11 60.4229 87.774 62.1029 87.774C63.7549 87.774 64.6789 88.11 64.6789 88.796C64.6789 89.482 63.7549 89.818 62.1029 89.818ZM62.1029 86.388C59.3869 86.388 57.6509 87.298 57.6509 88.796C57.6509 90.308 59.3869 91.204 62.1029 91.204C64.8049 91.204 66.5269 90.308 66.5269 88.796C66.5269 87.298 64.8049 86.388 62.1029 86.388ZM78.6498 81.166H71.6498V80.032H78.5518V78.562H69.8158V82.622H78.6498V81.166ZM71.5378 88.908H78.5938V85.492H69.6898V86.878H76.7738V87.606H69.7038V91.092H78.9298V89.678H71.5378V88.908ZM68.3738 83.308V84.764H80.0358V83.308H68.3738ZM90.0727 78.296V91.232H91.9207V78.296H90.0727ZM84.9907 79.206C83.0447 79.206 81.6027 80.97 81.6027 83.798C81.6027 86.64 83.0447 88.418 84.9907 88.418C86.9367 88.418 88.3787 86.64 88.3787 83.798C88.3787 80.97 86.9367 79.206 84.9907 79.206ZM84.9907 80.872C85.9427 80.872 86.6007 81.894 86.6007 83.798C86.6007 85.716 85.9427 86.738 84.9907 86.738C84.0387 86.738 83.3807 85.716 83.3807 83.798C83.3807 81.894 84.0387 80.872 84.9907 80.872ZM107.932 86.626C108.366 84.022 108.366 82.244 108.366 80.662V79.416H98.8883V80.886H106.518C106.518 82.37 106.504 84.106 106.084 86.444L107.932 86.626ZM105.202 88.166V84.092H103.396V88.166H102.024V84.092H100.204V88.166H97.7543V89.65H109.43V88.166H105.202ZM112.985 79.738H111.137V88.068H112.033C113.321 88.068 114.805 87.998 116.485 87.69L116.331 86.136C115.099 86.36 113.993 86.444 112.985 86.472V79.738ZM119.915 78.296V83.266H118.753V78.534H117.031V90.588H118.753V84.764H119.915V91.19H121.679V78.296H119.915ZM126.41 86.85C125.71 86.85 125.29 85.884 125.29 83.896C125.29 81.922 125.71 80.956 126.41 80.956C127.124 80.956 127.53 81.922 127.53 83.896C127.53 85.884 127.124 86.85 126.41 86.85ZM130.204 83.056H129.182C128.972 80.648 127.936 79.22 126.41 79.22C124.702 79.22 123.624 80.984 123.624 83.896C123.624 86.822 124.702 88.586 126.41 88.586C127.978 88.586 129.028 87.074 129.196 84.554H130.204V90.63H131.926V78.52H130.204V83.056ZM132.822 78.296V91.19H134.572V78.296H132.822ZM141.235 79.304H139.373V81.166C139.373 83.616 138.393 86.122 136.209 87.13L137.357 88.614C138.799 87.886 139.765 86.542 140.325 84.89C140.857 86.444 141.795 87.704 143.209 88.39L144.301 86.92C142.173 85.968 141.235 83.602 141.235 81.166V79.304ZM145.365 78.296V82.342H142.887V83.826H145.365V91.232H147.213V78.296H145.365ZM157.639 81.068H160.201V79.542H153.117V81.068H155.791V81.782C155.791 83.91 154.741 86.332 152.627 87.312L153.663 88.782C155.133 88.082 156.169 86.668 156.743 84.988C157.317 86.514 158.325 87.802 159.753 88.46L160.775 87.004C158.661 86.024 157.639 83.742 157.639 81.782V81.068ZM164.877 83.224H163.001V78.31H161.153V91.204H163.001V84.75H164.877V83.224ZM48.426 98.78C50.302 98.78 51.184 99.046 51.184 99.62C51.184 100.222 50.302 100.474 48.426 100.474C46.564 100.474 45.682 100.222 45.682 99.62C45.682 99.046 46.564 98.78 48.426 98.78ZM48.426 101.818C51.38 101.818 53.102 101.048 53.102 99.62C53.102 98.206 51.38 97.422 48.426 97.422C45.486 97.422 43.764 98.206 43.764 99.62C43.764 101.048 45.486 101.818 48.426 101.818ZM49.532 104.674H47.348V103.778H49.532V104.674ZM54.264 103.778V102.322H42.588V103.778H45.5V104.674H43.918V106.032H51.016V106.718H43.946V110.106H53.172V108.72H45.78V107.992H52.836V104.674H51.38V103.778H54.264ZM63.2509 103.19C61.2629 102.518 60.3669 100.964 60.3389 99.494H62.8449V98.024H55.9149V99.494H58.4489C58.4209 101.09 57.4829 102.728 55.4109 103.428L56.3489 104.884C57.8469 104.394 58.8549 103.358 59.4289 102.098C59.9749 103.246 60.9409 104.17 62.3549 104.632L63.2509 103.19ZM57.4689 107.026H64.4129V110.218H66.2609V105.556H57.4689V107.026ZM64.4129 97.324V100.39H62.5089V101.874H64.4129V104.982H66.2609V97.324H64.4129ZM74.1838 97.954C71.4818 97.954 69.3818 99.438 69.3818 101.692C69.3818 103.932 71.4818 105.416 74.1838 105.416C76.8998 105.416 78.9998 103.932 78.9998 101.692C78.9998 99.438 76.8998 97.954 74.1838 97.954ZM74.1838 99.466C75.9478 99.466 77.1938 100.292 77.1938 101.692C77.1938 103.064 75.9478 103.904 74.1838 103.904C72.4338 103.904 71.1878 103.064 71.1878 101.692C71.1878 100.292 72.4338 99.466 74.1838 99.466ZM68.3598 107.152V108.664H80.0358V107.152H68.3598ZM87.9867 107.278V105.36H91.8927V103.876H84.4167V102.434H91.5987V98.136H82.5687V99.606H89.7787V100.992H82.5827V105.36H86.1387V107.278H81.2387V108.79H92.9147V107.278H87.9867ZM102.458 103.134H99.9383V99.83H102.458V103.134ZM104.278 98.374H98.1323V104.59H104.278V98.374ZM101.436 105.794H99.5883V109.98H108.366V108.51H101.436V105.794ZM107.904 101.034V97.31H106.056V106.718H107.904V102.546H109.612V101.034H107.904ZM121.021 101.16H113.895V99.242H120.923V97.772H112.061V102.63H121.021V101.16ZM113.867 106.116H112.019V109.98H121.119V108.51H113.867V106.116ZM110.647 103.68V105.15H122.309V103.68H110.647ZM132.945 108.818C131.223 108.818 130.341 108.524 130.341 107.852C130.341 107.18 131.223 106.872 132.945 106.872C134.667 106.872 135.549 107.18 135.549 107.852C135.549 108.524 134.667 108.818 132.945 108.818ZM132.945 105.472C130.159 105.472 128.479 106.326 128.479 107.852C128.479 109.364 130.159 110.218 132.945 110.218C135.731 110.218 137.425 109.364 137.425 107.852C137.425 106.326 135.731 105.472 132.945 105.472ZM133.911 103.372V102.308H137.495V100.838H130.411V99.326H137.425V97.856H128.577V102.308H132.063V103.372H127.163V104.842H138.825V103.372H133.911ZM143.486 105.738C142.52 105.738 141.876 104.716 141.876 102.798C141.876 100.894 142.52 99.872 143.486 99.872C144.438 99.872 145.096 100.894 145.096 102.798C145.096 104.716 144.438 105.738 143.486 105.738ZM143.486 98.206C141.526 98.206 140.098 99.97 140.098 102.798C140.098 105.64 141.526 107.418 143.486 107.418C145.432 107.418 146.874 105.64 146.874 102.798C146.874 99.97 145.432 98.206 143.486 98.206ZM151.998 102.168H150.122V97.31H148.274V110.204H150.122V103.694H151.998V102.168ZM155.483 103.386H159.669V98.402H153.579V99.872H157.779V101.93H153.593V107.236H154.755C157.093 107.236 158.983 107.152 161.083 106.788L160.887 105.29C159.067 105.598 157.443 105.696 155.483 105.71V103.386ZM161.783 97.296V110.232H163.631V97.296H161.783Z" fill="white"/>
</g>
</g>
<defs>
<filter id="filter0_d_3558_42466" x="0" y="0" width="340" height="158" filterUnits="userSpaceOnUse" color-interpolation-filters="sRGB">
<feFlood flood-opacity="0" result="BackgroundImageFix"/>
<feColorMatrix in="SourceAlpha" type="matrix" values="0 0 0 0 0 0 0 0 0 0 0 0 0 0 0 0 0 0 127 0" result="hardAlpha"/>
<feOffset dy="2"/>
<feGaussianBlur stdDeviation="5"/>
<feComposite in2="hardAlpha" operator="out"/>
<feColorMatrix type="matrix" values="0 0 0 0 0 0 0 0 0 0 0 0 0 0 0 0 0 0 1 0"/>
<feBlend mode="normal" in2="BackgroundImageFix" result="effect1_dropShadow_3558_42466"/>
<feBlend mode="normal" in="SourceGraphic" in2="effect1_dropShadow_3558_42466" result="shape"/>
</filter>
<filter id="filter1_d_3558_42466" x="-12" y="-16" width="260.308" height="186" filterUnits="userSpaceOnUse" color-interpolation-filters="sRGB">
<feFlood flood-opacity="0" result="BackgroundImageFix"/>
<feColorMatrix in="SourceAlpha" type="matrix" values="0 0 0 0 0 0 0 0 0 0 0 0 0 0 0 0 0 0 127 0" result="hardAlpha"/>
<feOffset dx="2"/>
<feGaussianBlur stdDeviation="12"/>
<feComposite in2="hardAlpha" operator="out"/>
<feColorMatrix type="matrix" values="0 0 0 0 0.34902 0 0 0 0 0.34902 0 0 0 0 1 0 0 0 0.3 0"/>
<feBlend mode="normal" in2="BackgroundImageFix" result="effect1_dropShadow_3558_42466"/>
<feBlend mode="normal" in="SourceGraphic" in2="effect1_dropShadow_3558_42466" result="shape"/>
</filter>
<clipPath id="clip0_3558_42466">
<rect x="10" y="8" width="320" height="138" rx="10" fill="white"/>
</clipPath>
</defs>
</svg>
