<svg width="343" height="98" viewBox="0 0 343 98" fill="none" xmlns="http://www.w3.org/2000/svg">
<rect width="343" height="98" rx="10" fill="#8BE246"/>
<path d="M21.6562 22.4375C21.651 23.3073 21.7734 24.151 22.0234 24.9688C22.2734 25.7812 22.651 26.5104 23.1562 27.1562C23.6615 27.8021 24.2812 28.3021 25.0156 28.6562L23.8125 30.25C23.0729 29.8802 22.4401 29.3646 21.9141 28.7031C21.388 28.0365 20.974 27.2604 20.6719 26.375C20.349 27.3281 19.9089 28.1615 19.3516 28.875C18.7943 29.5833 18.125 30.1302 17.3438 30.5156L16.1094 28.9062C16.8854 28.5521 17.5391 28.0391 18.0703 27.3672C18.6016 26.6901 18.9974 25.9271 19.2578 25.0781C19.5234 24.224 19.6562 23.3438 19.6562 22.4375V20.3125H21.6562V22.4375ZM25.6406 19.2188H27.6406V24.7031H29.7344V26.3906H27.6406V33.4375H25.6406V19.2188ZM42.2344 26.4531H40.25V22.9219H37.5781V21.3438H40.25V19.2188H42.2344V26.4531ZM30.1406 24.9844C30.901 24.7604 31.5365 24.4323 32.0469 24C32.5573 23.5677 32.9349 23.0703 33.1797 22.5078C33.4297 21.9453 33.5573 21.349 33.5625 20.7188V19.6875H35.5781V20.7188C35.5729 21.3021 35.6875 21.8594 35.9219 22.3906C36.1562 22.9167 36.5156 23.3854 37 23.7969C37.4896 24.2031 38.099 24.5156 38.8281 24.7344L37.7812 26.2656C37.0365 26.0312 36.3958 25.6875 35.8594 25.2344C35.3229 24.776 34.8958 24.2344 34.5781 23.6094C34.2552 24.3125 33.8099 24.9167 33.2422 25.4219C32.6745 25.9271 31.9844 26.3073 31.1719 26.5625L30.1406 24.9844ZM32.7812 27.0469H42.2344V30.8438H34.7656V31.7188H42.6406V33.2812H32.7969V29.3906H40.2656V28.5781H32.7812V27.0469Z" fill="black"/>
<path d="M23.2109 44.8242H16.4316V43.8594H19.2246V42.6533H20.4307V43.8594H23.2109V44.8242ZM17.0537 47.4014C17.0537 46.9909 17.168 46.6312 17.3965 46.3223C17.6292 46.0091 17.9551 45.7679 18.374 45.5986C18.793 45.4251 19.2754 45.3363 19.8213 45.332C20.363 45.3363 20.8411 45.4251 21.2559 45.5986C21.6748 45.7679 21.9985 46.0091 22.2271 46.3223C22.4598 46.6312 22.5762 46.9909 22.5762 47.4014C22.5762 47.8118 22.4598 48.1737 22.2271 48.4868C21.9985 48.8 21.6748 49.0433 21.2559 49.2168C20.8411 49.3861 20.363 49.4707 19.8213 49.4707C19.2754 49.4707 18.793 49.3861 18.374 49.2168C17.9551 49.0433 17.6292 48.8 17.3965 48.4868C17.168 48.1737 17.0537 47.8118 17.0537 47.4014ZM17.8408 50.3975H25.3564V54.0791H24.1504V51.375H17.8408V50.3975ZM18.2217 47.4014C18.2174 47.7484 18.3613 48.0234 18.6533 48.2266C18.9453 48.4297 19.3346 48.5312 19.8213 48.5312C20.3079 48.5312 20.6994 48.4318 20.9956 48.2329C21.2918 48.0298 21.4421 47.7526 21.4463 47.4014C21.4421 47.0544 21.2918 46.7793 20.9956 46.5762C20.6994 46.3688 20.3079 46.263 19.8213 46.2588C19.4997 46.2588 19.2161 46.3075 18.9707 46.4048C18.7295 46.4979 18.5433 46.6312 18.4121 46.8047C18.2809 46.974 18.2174 47.1729 18.2217 47.4014ZM24.1504 42.7041H25.3564V45.7891H27.0068V46.792H25.3564V49.8135H24.1504V42.7041ZM31.1328 44.8877C31.1328 45.3066 31.2196 45.7171 31.3931 46.1191C31.5708 46.5169 31.8311 46.8766 32.1738 47.1982C32.5166 47.5156 32.9271 47.7653 33.4053 47.9473L32.7705 48.874C32.2542 48.6751 31.8078 48.3937 31.4312 48.0298C31.0588 47.6659 30.7689 47.2427 30.5615 46.7603C30.3457 47.3062 30.041 47.7928 29.6475 48.2202C29.2581 48.6434 28.7969 48.9714 28.2637 49.2041L27.6035 48.2646C28.0986 48.0488 28.5239 47.759 28.8794 47.395C29.2349 47.0269 29.5036 46.6248 29.6855 46.189C29.8717 45.7531 29.9648 45.3193 29.9648 44.8877V43.415H31.1328V44.8877ZM29.6982 51.9971C29.694 51.5697 29.8464 51.2015 30.1553 50.8926C30.4642 50.5794 30.9085 50.3403 31.4883 50.1753C32.068 50.0103 32.7536 49.9277 33.5449 49.9277C34.332 49.9277 35.0155 50.0103 35.5952 50.1753C36.1792 50.3403 36.6278 50.5794 36.9409 50.8926C37.2583 51.2015 37.417 51.5697 37.417 51.9971C37.417 52.4245 37.2583 52.7926 36.9409 53.1016C36.6278 53.4105 36.1792 53.6453 35.5952 53.8062C35.0155 53.9712 34.332 54.0537 33.5449 54.0537C32.7536 54.0537 32.068 53.9712 31.4883 53.8062C30.9085 53.6453 30.4642 53.4105 30.1553 53.1016C29.8464 52.7926 29.694 52.4245 29.6982 51.9971ZM30.8916 51.9971C30.8874 52.234 30.991 52.4393 31.2026 52.6128C31.4142 52.7821 31.7189 52.9111 32.1167 53C32.5187 53.0889 32.9948 53.1312 33.5449 53.127C34.0908 53.1312 34.5627 53.0889 34.9604 53C35.3625 52.9111 35.6714 52.7821 35.8872 52.6128C36.103 52.4435 36.2109 52.2383 36.2109 51.9971C36.2109 51.7601 36.1051 51.557 35.8936 51.3877C35.682 51.2142 35.3794 51.083 34.9858 50.9941C34.5923 50.901 34.1247 50.8545 33.583 50.8545C32.7324 50.8545 32.0701 50.9539 31.5962 51.1528C31.1222 51.3517 30.8874 51.6331 30.8916 51.9971ZM33.7607 42.9199H34.8779V45.6748H36.2109V42.7168H37.3535V49.7119H36.2109V46.665H34.8779V49.3564H33.7607V42.9199ZM49.2744 48.3281H38.8896V47.3633H49.2744V48.3281ZM40.1338 49.2295H47.9541V51.9844H41.3271V53H48.2715V53.9521H40.1465V51.0957H46.7607V50.1562H40.1338V49.2295ZM40.248 43.0342H47.9287V44.0117H41.4541V45.5732H48.043V46.5381H40.248V43.0342ZM59.5449 54.1045H58.3389V42.7041H59.5449V54.1045ZM50.5186 47.541C50.5186 46.7454 50.6434 46.0472 50.8931 45.4463C51.1427 44.8411 51.4897 44.3757 51.9341 44.0498C52.3826 43.7197 52.8926 43.5547 53.4639 43.5547C54.0267 43.5547 54.5303 43.7197 54.9746 44.0498C55.4189 44.3757 55.766 44.8411 56.0156 45.4463C56.2695 46.0472 56.3965 46.7454 56.3965 47.541C56.3965 48.3451 56.2695 49.0496 56.0156 49.6548C55.766 50.2599 55.4189 50.7254 54.9746 51.0513C54.5303 51.3771 54.0267 51.54 53.4639 51.54C52.8926 51.54 52.3826 51.3771 51.9341 51.0513C51.4897 50.7254 51.1427 50.2599 50.8931 49.6548C50.6434 49.0496 50.5186 48.3451 50.5186 47.541ZM51.6865 47.541C51.6865 48.1335 51.7606 48.6497 51.9087 49.0898C52.0568 49.5299 52.2642 49.8685 52.5308 50.1055C52.8016 50.3424 53.1126 50.4609 53.4639 50.4609C53.8109 50.4609 54.1177 50.3424 54.3843 50.1055C54.6509 49.8685 54.8582 49.5299 55.0063 49.0898C55.1545 48.6497 55.2285 48.1335 55.2285 47.541C55.2285 46.957 55.1545 46.4471 55.0063 46.0112C54.8582 45.5711 54.6509 45.2326 54.3843 44.9956C54.1177 44.7544 53.8109 44.6338 53.4639 44.6338C53.1126 44.6338 52.8016 44.7544 52.5308 44.9956C52.2642 45.2326 52.0568 45.5711 51.9087 46.0112C51.7606 46.4471 51.6865 46.957 51.6865 47.541ZM73.7764 45.0146V45.1543C73.7679 46.0938 73.7383 46.9232 73.6875 47.6426C73.641 48.3577 73.5309 49.1829 73.3574 50.1182L72.1768 49.9912C72.3376 49.166 72.4434 48.4064 72.4941 47.7124C72.5449 47.0142 72.5703 46.2736 72.5703 45.4907V45.0146V44.7734H65.6006V43.7959H73.7764V45.0146ZM64.5342 51.54H66.9844V47.8584H68.1904V51.54H69.8281V47.8584H71.0088V51.54H74.9062V52.543H64.5342V51.54ZM85.5068 54.0791H84.3516V48.252H82.8916V53.4951H81.7617V42.9326H82.8916V47.2617H84.3516V42.7041H85.5068V54.0791ZM76.3027 44.0498H77.5088V50.1245C78.7233 50.1118 79.887 49.9954 81 49.7754L81.127 50.8291C80.3864 50.9603 79.6839 51.0534 79.0195 51.1084C78.3551 51.1634 77.695 51.1888 77.0391 51.1846H76.3027V44.0498ZM96.793 54.0791H95.6377V42.7041H96.793V54.0791ZM87.1318 47.6172C87.1318 46.8047 87.2313 46.098 87.4302 45.4971C87.6333 44.8919 87.9189 44.4285 88.2871 44.1069C88.6595 43.7811 89.0911 43.6182 89.582 43.6182C90.0391 43.6182 90.4432 43.7557 90.7944 44.0308C91.1499 44.3058 91.4334 44.7036 91.645 45.2241C91.8608 45.7404 91.992 46.3519 92.0386 47.0586H93.3271V42.9199H94.4824V53.5205H93.3271V48.0361H92.0449C92.0111 48.7725 91.8883 49.4115 91.6768 49.9531C91.4652 50.4906 91.1795 50.9053 90.8198 51.1973C90.4601 51.485 90.0475 51.6289 89.582 51.6289C89.0911 51.6289 88.6595 51.4681 88.2871 51.1465C87.9189 50.8206 87.6333 50.3551 87.4302 49.75C87.2313 49.1406 87.1318 48.4297 87.1318 47.6172ZM88.249 47.6172C88.249 48.2139 88.3019 48.728 88.4077 49.1597C88.5177 49.5913 88.6722 49.9214 88.8711 50.1499C89.0742 50.3742 89.3112 50.4863 89.582 50.4863C89.8613 50.4863 90.1025 50.3742 90.3057 50.1499C90.5088 49.9214 90.6654 49.5913 90.7754 49.1597C90.8854 48.728 90.9404 48.2139 90.9404 47.6172C90.9404 47.0163 90.8854 46.5021 90.7754 46.0747C90.6654 45.6431 90.5088 45.3151 90.3057 45.0908C90.1025 44.8623 89.8613 44.748 89.582 44.748C89.3112 44.748 89.0742 44.8623 88.8711 45.0908C88.6722 45.3151 88.5177 45.6431 88.4077 46.0747C88.3019 46.5063 88.249 47.0205 88.249 47.6172ZM102.341 45.5986C102.341 46.2884 102.461 46.9655 102.703 47.6299C102.948 48.29 103.291 48.8761 103.731 49.3882C104.171 49.9002 104.677 50.2832 105.248 50.5371L104.512 51.502C103.877 51.1803 103.32 50.717 102.842 50.1118C102.364 49.5024 101.998 48.8042 101.744 48.0171C101.49 48.8507 101.12 49.5934 100.633 50.2451C100.151 50.8926 99.5859 51.3835 98.9385 51.7178L98.1768 50.7402C98.7523 50.4652 99.2622 50.0589 99.7065 49.5215C100.155 48.9798 100.502 48.3662 100.748 47.6807C100.997 46.9909 101.122 46.2969 101.122 45.5986V43.6562H102.341V45.5986ZM103.991 46.4873H106.53V42.7041H107.724V54.1045H106.53V47.4648H103.991V46.4873ZM20.3799 62.0557C20.3799 62.6523 20.5026 63.2575 20.748 63.8711C20.9935 64.4805 21.3363 65.0348 21.7764 65.5342C22.2207 66.0293 22.7243 66.4102 23.2871 66.6768L22.6016 67.6162C21.9753 67.3158 21.4167 66.8672 20.9258 66.2705C20.4349 65.6696 20.0583 64.9925 19.7959 64.2393C19.5335 65.056 19.1463 65.7923 18.6343 66.4482C18.1265 67.0999 17.5531 67.5866 16.9141 67.9082L16.2031 66.9561C16.766 66.6852 17.2738 66.2874 17.7266 65.7627C18.1836 65.2337 18.5412 64.6434 18.7993 63.9917C19.0575 63.3358 19.1865 62.6904 19.1865 62.0557V60.8496H16.6221V59.8467H22.8555V60.8496H20.3799V62.0557ZM24.0742 58.7041H25.2803V63.2109H27.1084V64.2266H25.2803V70.0791H24.0742V58.7041ZM32.834 58.8311C33.6846 58.8311 34.4124 58.9072 35.0176 59.0596C35.627 59.2077 36.0924 59.4299 36.4141 59.7261C36.7357 60.0181 36.8965 60.3714 36.8965 60.7861C36.8965 61.2093 36.7357 61.569 36.4141 61.8652C36.0924 62.1572 35.6291 62.3794 35.0239 62.5317C34.4188 62.6799 33.6888 62.7539 32.834 62.7539C31.9792 62.7539 31.2471 62.6799 30.6377 62.5317C30.0326 62.3794 29.5692 62.1572 29.2476 61.8652C28.9302 61.569 28.7715 61.2093 28.7715 60.7861C28.7715 60.3714 28.9302 60.0181 29.2476 59.7261C29.5692 59.4299 30.0347 59.2077 30.644 59.0596C31.2534 58.9072 31.9834 58.8311 32.834 58.8311ZM27.6543 63.376H38.0264V64.3408H35.2334V65.3564H36.7188V68.0225H30.0918V69.0381H37.0361V69.9648H28.9111V67.1465H35.5254V66.2578H28.8984V65.3564H30.4092V64.3408H27.6543V63.376ZM30.0283 60.7861C30.0241 61.1374 30.2611 61.4019 30.7393 61.5796C31.2217 61.7573 31.9199 61.8483 32.834 61.8525C33.7523 61.8483 34.4526 61.7573 34.9351 61.5796C35.4175 61.4019 35.6566 61.1374 35.6523 60.7861C35.6566 60.4518 35.4154 60.1937 34.9287 60.0117C34.4421 59.8298 33.7438 59.7367 32.834 59.7324C31.9326 59.7367 31.2386 59.8298 30.752 60.0117C30.2653 60.1937 30.0241 60.4518 30.0283 60.7861ZM34.0273 65.3564V64.3408H31.6025V65.3564H34.0273ZM42.9648 60.7227C42.9606 61.2008 43.0685 61.6663 43.2886 62.1191C43.5086 62.5719 43.826 62.9761 44.2407 63.3315C44.6554 63.6828 45.1442 63.9557 45.707 64.1504L45.085 65.0898C44.4587 64.874 43.9128 64.5503 43.4473 64.1187C42.9818 63.687 42.6221 63.1855 42.3682 62.6143C42.1185 63.249 41.7482 63.8055 41.2573 64.2837C40.7707 64.7576 40.193 65.111 39.5244 65.3438L38.9023 64.3916C39.4736 64.1969 39.973 63.9113 40.4004 63.5347C40.8278 63.1538 41.1558 62.7201 41.3843 62.2334C41.617 61.7467 41.7334 61.2474 41.7334 60.7354V60.418H39.2705V59.4404H45.4023V60.418H42.9648V60.7227ZM40.667 66.0801H48.373V70.0791H47.167V67.0576H40.667V66.0801ZM45.0596 61.5986H47.167V58.7041H48.373V65.5088H47.167V62.5889H45.0596V61.5986ZM55.3047 59.3896C56.096 59.3896 56.8112 59.5229 57.4502 59.7896C58.0892 60.0519 58.5907 60.4243 58.9546 60.9067C59.3228 61.3849 59.5068 61.9372 59.5068 62.5635C59.5068 63.1898 59.3228 63.7441 58.9546 64.2266C58.5907 64.709 58.0892 65.0814 57.4502 65.3438C56.8112 65.6061 56.096 65.7373 55.3047 65.7373C54.5133 65.7373 53.7982 65.6061 53.1592 65.3438C52.5244 65.0814 52.0251 64.709 51.6611 64.2266C51.2972 63.7441 51.1152 63.1898 51.1152 62.5635C51.1152 61.9414 51.2972 61.3892 51.6611 60.9067C52.0251 60.4243 52.5244 60.0519 53.1592 59.7896C53.7982 59.5229 54.5133 59.3896 55.3047 59.3896ZM50.125 67.6035H60.5352V68.6064H50.125V67.6035ZM52.2705 62.5635C52.2705 62.9993 52.3996 63.3823 52.6577 63.7124C52.9201 64.0425 53.2819 64.2985 53.7432 64.4805C54.2044 64.6582 54.7249 64.7471 55.3047 64.7471C55.8844 64.7471 56.4028 64.6582 56.8599 64.4805C57.3211 64.2985 57.6829 64.0425 57.9453 63.7124C58.2077 63.3823 58.3389 62.9993 58.3389 62.5635C58.3389 62.1318 58.2077 61.7489 57.9453 61.4146C57.6829 61.0802 57.3211 60.8221 56.8599 60.6401C56.3986 60.4582 55.8802 60.3672 55.3047 60.3672C54.7249 60.3672 54.2044 60.4582 53.7432 60.6401C53.2819 60.8221 52.9201 61.0802 52.6577 61.4146C52.3996 61.7489 52.2705 62.1318 52.2705 62.5635ZM71.7705 68.7207H61.3604V67.7051H65.9434V65.7119H62.6299V62.0938H69.3076V60.4941H62.6045V59.5039H70.501V63.0586H63.8232V64.7217H70.7676V65.7119H67.1367V67.7051H71.7705V68.7207ZM81.5332 65.0137H76.2139V59.707H81.5332V65.0137ZM80.3525 64.0615V60.6846H77.3945V64.0615H80.3525ZM77.4961 66.2324H78.7021V68.8604H85.1895V69.8379H77.4961V66.2324ZM83.501 58.6914H84.707V62.0938H86.3574V63.1094H84.707V67.0322H83.501V58.6914ZM97.3896 65.3691H87.0049V64.4043H97.3896V65.3691ZM88.2998 59.1738H96.1074V60.1387H89.5059V62.2715H96.2217V63.2617H88.2998V59.1738ZM88.3125 66.4863H89.5059V68.8477H96.2979V69.8379H88.3125V66.4863ZM111.799 65.2041H101.414V64.2393H106.022V63.0332H102.709V59.2246H110.517V60.1768H103.902V62.0684H110.593V63.0332H107.19V64.2393H111.799V65.2041ZM102.646 68.0098C102.646 67.5739 102.802 67.2015 103.115 66.8926C103.428 66.5837 103.881 66.3488 104.474 66.188C105.066 66.0229 105.773 65.9404 106.594 65.9404C107.41 65.9404 108.111 66.0229 108.695 66.188C109.283 66.3488 109.734 66.5837 110.047 66.8926C110.36 67.2015 110.517 67.5739 110.517 68.0098C110.517 68.4456 110.36 68.818 110.047 69.127C109.734 69.4359 109.283 69.6707 108.695 69.8315C108.111 69.9966 107.41 70.0791 106.594 70.0791C105.773 70.0791 105.066 69.9966 104.474 69.8315C103.881 69.6707 103.428 69.4359 103.115 69.127C102.802 68.818 102.646 68.4456 102.646 68.0098ZM103.864 68.0098C103.86 68.3737 104.095 68.653 104.569 68.8477C105.047 69.0423 105.722 69.1354 106.594 69.127C107.453 69.1354 108.119 69.0423 108.593 68.8477C109.071 68.653 109.311 68.3737 109.311 68.0098C109.311 67.6501 109.071 67.3729 108.593 67.1782C108.119 66.9793 107.453 66.8799 106.594 66.8799C105.726 66.8799 105.053 66.9793 104.575 67.1782C104.097 67.3729 103.86 67.6501 103.864 68.0098ZM115.696 59.5547C116.259 59.5547 116.761 59.7197 117.201 60.0498C117.645 60.3757 117.992 60.8411 118.242 61.4463C118.491 62.0472 118.616 62.7454 118.616 63.541C118.616 64.3451 118.491 65.0496 118.242 65.6548C117.992 66.2599 117.647 66.7254 117.207 67.0513C116.767 67.3771 116.263 67.54 115.696 67.54C115.129 67.54 114.626 67.3771 114.186 67.0513C113.745 66.7254 113.403 66.2599 113.157 65.6548C112.912 65.0496 112.789 64.3451 112.789 63.541C112.789 62.7454 112.912 62.0472 113.157 61.4463C113.403 60.8411 113.745 60.3757 114.186 60.0498C114.626 59.7197 115.129 59.5547 115.696 59.5547ZM113.944 63.541C113.944 64.1335 114.016 64.6497 114.16 65.0898C114.308 65.5299 114.516 65.8685 114.782 66.1055C115.049 66.3424 115.354 66.4609 115.696 66.4609C116.048 66.4609 116.356 66.3446 116.623 66.1118C116.89 65.8748 117.095 65.5363 117.239 65.0962C117.387 64.6519 117.461 64.1335 117.461 63.541C117.461 62.9528 117.387 62.4408 117.239 62.0049C117.095 61.5648 116.89 61.2262 116.623 60.9893C116.356 60.7523 116.048 60.6338 115.696 60.6338C115.354 60.6338 115.049 60.7544 114.782 60.9956C114.516 61.2326 114.308 61.5711 114.16 62.0112C114.016 62.4471 113.944 62.957 113.944 63.541ZM120.305 58.7041H121.511V63.1602H123.339V64.1758H121.511V70.0791H120.305V58.7041ZM133.33 70.1045H132.124V58.7041H133.33V70.1045ZM124.52 59.7324H129.852V63.8838H125.764V66.3721C126.75 66.3678 127.662 66.3361 128.5 66.2769C129.342 66.2176 130.215 66.1139 131.121 65.9658L131.235 66.9561C130.292 67.1126 129.375 67.2205 128.487 67.2798C127.598 67.339 126.602 67.3708 125.497 67.375H124.532V62.9189H128.62V60.71H124.52V59.7324Z" fill="#2A4415"/>
<path d="M284.732 67.6613C284.732 67.6613 283.228 68.0825 278.611 67.9779C273.994 67.8733 267.33 65.7729 264.755 65.7729C262.181 65.7729 259.381 66.7171 258.31 68.8175C257.24 70.9178 256.268 73.5411 262.499 75.9553C268.73 78.3694 273.453 79.1044 282.368 81.3065C291.284 83.5086 294.827 83.6161 299.435 82.4627C304.043 81.3093 307.167 78.3694 306.739 74.2648C306.311 70.1602 305.342 67.6528 303.088 67.0224C300.835 66.392 284.732 67.6613 284.732 67.6613Z" fill="#575CE0"/>
<path d="M284.732 67.6613C284.732 67.6613 283.228 68.0825 278.611 67.9779C273.994 67.8733 267.33 65.7729 264.755 65.7729C262.181 65.7729 259.381 66.7171 258.31 68.8175C257.24 70.9178 256.268 73.5411 262.499 75.9553C268.73 78.3694 273.453 79.1044 282.368 81.3065C291.284 83.5086 294.827 83.6161 299.435 82.4627C304.043 81.3093 307.167 78.3694 306.739 74.2648C306.311 70.1602 305.342 67.6528 303.088 67.0224C300.835 66.392 284.732 67.6613 284.732 67.6613Z" stroke="#575CE0" stroke-linecap="round" stroke-linejoin="round"/>
<path d="M292.643 34.228C292.643 34.228 292.797 36.2238 292.255 37.3376C291.712 38.4514 289.53 39.5736 287.662 40.6111C285.794 41.6485 291.106 44.5879 290.018 46.3434C288.93 48.0989 281.05 47.9552 281.05 47.9552C281.05 47.9552 279.337 50.6718 277.937 53.0662C276.538 55.4605 275.758 57.9369 277.549 59.2853C279.339 60.6337 281.516 58.6464 282.684 56.7411C283.852 54.8358 284.94 52.6704 284.94 52.6704C284.94 52.6704 286.431 60.0853 286.028 62.0895C285.626 64.0938 284.706 66.0019 284.706 66.8952C284.706 67.7885 285.406 68.4132 286.497 68.6507C287.588 68.8881 291.321 69.216 293.888 69.0521C296.456 68.8881 303.771 68.4132 304.082 67.3729C304.393 66.3326 304.859 59.1496 304.859 59.1496C304.859 59.1496 309.449 60.7468 310.851 57.8747C312.253 55.0026 312.328 48.5461 311.317 45.3376C310.305 42.1291 307.735 40.9475 306.181 40.1503C304.627 39.3531 300.346 37.2754 299.569 36.3962C298.792 35.5171 298.553 31.192 298.553 29.7559C298.553 28.3199 298.398 29.6768 296.919 30.7934C295.44 31.91 292.643 34.228 292.643 34.228Z" fill="#EFAFA1"/>
<path d="M303.536 24.8851C304.159 23.6894 305.093 21.6116 303.848 20.1756C302.602 18.7395 301.826 19.6102 301.668 18.1798C301.511 16.7494 301.203 15.2258 299.801 15.2258C298.398 15.2258 297.39 15.7911 296.533 15.2258C295.676 14.6604 294.977 13.0689 292.797 13.0689C290.618 13.0689 291.168 16.1878 290.777 16.5864C290.584 16.7289 290.369 16.8352 290.14 16.9002C289.976 16.8581 289.839 16.743 289.766 16.5864C289.377 15.7892 289.328 15.8824 289.293 14.5646C289.259 13.2745 288.436 12.5688 287.502 13.2868C286.568 14.0048 288.513 13.9257 287.425 15.1243C286.337 16.3229 286.808 18.1798 287.808 19.9438C288.808 21.7077 289.987 20.6618 289.987 20.6618C290.219 20.5035 290.428 21.4024 292.503 21.7925C294.478 22.1629 295.828 21.5099 295.985 23.7374C296.142 25.965 298.079 27.2116 298.624 27.5311C299.17 27.8505 297.767 29.6088 298.073 30.406C298.379 31.2031 299.396 31.124 300.018 31.0448C300.641 30.9657 300.252 30.0074 301.575 29.8462C302.897 29.6851 303.363 29.2809 303.908 27.7713C304.454 26.2618 302.914 26.0837 303.536 24.8851Z" fill="#5959FF"/>
<path d="M303.536 24.8851C304.159 23.6894 305.093 21.6116 303.848 20.1756C302.602 18.7395 301.826 19.6102 301.668 18.1798C301.511 16.7494 301.203 15.2258 299.801 15.2258C298.398 15.2258 297.39 15.7911 296.533 15.2258C295.676 14.6604 294.977 13.0689 292.797 13.0689C290.618 13.0689 291.168 16.1878 290.777 16.5864C290.584 16.7289 290.369 16.8352 290.14 16.9002C289.976 16.8581 289.839 16.743 289.766 16.5864C289.377 15.7892 289.328 15.8824 289.293 14.5646C289.259 13.2745 288.436 12.5688 287.502 13.2868C286.568 14.0048 288.513 13.9257 287.425 15.1243C286.337 16.3229 286.808 18.1798 287.808 19.9438C288.808 21.7077 289.987 20.6618 289.987 20.6618C290.219 20.5035 290.428 21.4024 292.503 21.7925C294.478 22.1629 295.828 21.5099 295.985 23.7374C296.142 25.965 298.079 27.2116 298.624 27.5311C299.17 27.8505 297.767 29.6088 298.073 30.406C298.379 31.2031 299.396 31.124 300.018 31.0448C300.641 30.9657 300.252 30.0074 301.575 29.8462C302.897 29.6851 303.363 29.2809 303.908 27.7713C304.454 26.2618 302.914 26.0837 303.536 24.8851Z" stroke="#5959FF" stroke-linecap="round" stroke-linejoin="round"/>
<path d="M306.181 40.1361C304.969 39.5113 302.098 38.112 300.525 37.1113C300.007 38.7057 298.486 42.3693 295.445 42.3693C292.64 42.3693 291.816 39.6781 291.588 38.1714C290.656 39.0195 289.779 39.2334 288.823 39.4785C285.526 40.4012 282.881 42.8657 281.729 46.0896L281.061 47.958C281.061 47.958 280.482 48.8767 279.725 50.112C282.868 49.9509 284.959 52.6703 284.959 52.6703C284.959 52.6703 286.43 60.0852 286.028 62.0894C285.626 64.0937 284.706 66.0018 284.706 66.8951C284.706 67.7884 285.405 68.4131 286.496 68.6506C287.587 68.888 291.32 69.2159 293.888 69.052C296.456 68.888 303.77 68.4131 304.081 67.3728C304.393 66.3325 304.858 59.1495 304.858 59.1495L304.393 52.8428C308.302 50.1912 311.035 52.0484 311.93 52.8428C312.123 50.1318 311.903 47.1891 311.316 45.3347C310.305 42.1318 307.737 40.9332 306.181 40.1361Z" fill="white"/>
<path d="M277.444 54.7143C277.444 54.7143 276.675 55.1327 276.066 56.6563C275.457 58.18 274.689 61.0097 275.452 61.903C276.215 62.7963 277.959 62.0076 279.584 61.7984C281.21 61.5892 288.023 57.4959 289.147 56.8118C290.271 56.1277 291.194 55.8676 291.552 55.2373C291.91 54.6069 291.808 52.351 291.858 51.2486C291.907 50.1461 291.654 45.2132 291.654 45.2132C291.654 45.2132 291.296 44.0062 290.681 44.1107C290.681 44.1107 289.965 43.6924 289.813 44.1107L289.505 44.9588C289.505 44.9588 288.841 44.7496 288.678 45.1171C288.567 45.4747 288.499 45.845 288.475 46.2196C288.475 46.2196 287.709 46.5871 287.709 47.0676C287.709 47.5482 287.86 50.3751 287.86 51.1609C287.86 51.9468 287.758 53.1567 288.014 53.6797C288.271 54.2026 288.527 54.6775 288.527 54.6775C288.527 54.6775 284.791 55.2033 283.207 55.2033C281.623 55.2033 278.86 55.2542 278.347 55.5171" fill="#EFAFA1"/>
<path d="M308.542 57.2583C306.087 55.6328 300.971 56.8908 299.335 56.7862C297.698 56.6816 293.147 54.1092 293.147 54.1092C293.147 54.1092 294.067 53.165 294.117 52.5883C294.167 52.0116 294.117 50.4371 294.117 49.5438C294.117 48.6505 294.373 47.7601 294.426 47.0788C294.478 46.3975 293.599 46.8668 293.453 47.0788C293.307 47.2908 292.941 49.3855 292.941 49.3855C292.941 49.3855 292.481 47.9721 292.481 47.8138C292.481 47.6555 292.379 45.7134 292.122 44.9247C291.866 44.136 291.255 44.9247 291.255 44.9247C291.202 44.4526 291.048 44.0767 290.69 44.0767C290.332 44.0767 290.026 45.3911 290.026 45.3911C290.026 44.6025 289.77 44.6562 289.513 44.9162C289.257 45.1763 289.26 46.912 289.26 46.912L288.951 46.4399C288.593 46.3353 288.4 46.912 288.4 47.4378C288.4 47.9636 288.604 49.5353 288.604 50.847C288.589 51.5158 288.641 52.1846 288.759 52.8427C288.983 53.7615 289.363 54.6321 289.883 55.4152C290.753 56.7268 293.668 58.3523 295.459 59.7685C297.249 61.1848 302.517 63.548 305.126 63.9692C307.735 64.3904 309.534 65.3827 310.137 64.2321C310.741 63.0816 311.876 57.4081 311.314 55.5198" fill="#EFAFA1"/>
<path d="M285.985 77.3288C285.423 77.0642 284.905 76.7103 284.45 76.28C283.838 75.6497 284.45 74.0751 283.624 73.4532C282.797 72.8313 281.169 72.6051 280.869 73.5606C280.568 74.5161 280.356 75.1352 279.742 75.3444C279.127 75.5535 278.414 75.5535 277.287 76.0793C276.16 76.6051 276.163 78.4935 276.163 78.4935C278.323 78.7894 280.447 79.3169 282.5 80.068C285.467 81.2214 286.795 80.591 286.795 80.591C286.795 80.591 286.908 78.4737 285.985 77.3288Z" fill="#EFAFA1"/>
<path d="M285.985 77.3288C285.423 77.0642 284.905 76.7103 284.45 76.28C283.838 75.6497 284.45 74.0751 283.624 73.4532C282.797 72.8313 281.169 72.6051 280.869 73.5606C280.568 74.5161 280.356 75.1352 279.742 75.3444C279.127 75.5535 278.414 75.5535 277.287 76.0793C276.16 76.6051 276.163 78.4935 276.163 78.4935C278.323 78.7894 280.447 79.3169 282.5 80.068C285.467 81.2214 286.795 80.591 286.795 80.591C286.795 80.591 286.908 78.4737 285.985 77.3288Z" stroke="#5959FF" stroke-linecap="round" stroke-linejoin="round"/>
<path d="M293.595 80.4188C295.15 80.0077 296.676 79.4842 298.16 78.8527C300.116 78.0385 302.094 77.2385 303.981 76.2689C306.846 74.799 307.868 72.594 307.152 69.8661C306.436 67.1382 305.21 65.0378 299.989 65.982C294.768 66.9262 293.115 70.1488 290.897 72.594C288.156 75.6046 285.897 77.1537 284.861 77.0039C283.679 76.8343 283.429 79.1014 285.065 79.9438C287.71 81.3007 290.727 81.1424 293.595 80.4188Z" fill="#5959FF"/>
<path d="M293.595 80.4188C295.15 80.0077 296.676 79.4842 298.16 78.8527C300.116 78.0385 302.094 77.2385 303.981 76.2689C306.846 74.799 307.868 72.594 307.152 69.8661C306.436 67.1382 305.21 65.0378 299.989 65.982C294.768 66.9262 293.115 70.1488 290.897 72.594C288.156 75.6046 285.897 77.1537 284.861 77.0039C283.679 76.8343 283.429 79.1014 285.065 79.9438C287.71 81.3007 290.727 81.1424 293.595 80.4188Z" stroke="#5959FF" stroke-linecap="round" stroke-linejoin="round"/>
<path d="M285.748 76.8964C285.748 76.8964 288.247 76.3848 290.872 73.3063C293.498 70.2279 293.87 69.7134 293.87 69.7134" stroke="#EFAFA1" stroke-linecap="round" stroke-linejoin="round"/>
<path d="M265.322 66.0215C264.414 65.8439 263.486 65.8004 262.567 65.8914C260.112 66.1006 258.476 67.6752 258.068 69.0405C257.66 70.4059 259.09 73.8688 262.261 76.1783C265.432 78.4879 268.705 79.0052 273.105 80.2716C277.003 81.3882 281.094 82.7027 280.819 82.6292C280.256 82.0644 279.943 81.2885 279.951 80.4808C280.009 79.514 280.642 78.7593 281.171 78.29C280.345 77.8999 278.987 77.0179 276.882 75.0222C273.493 71.8165 270.033 68.608 268.002 67.1324" fill="#575CE0"/>
<path d="M265.322 66.0215C264.414 65.8439 263.486 65.8004 262.567 65.8914C260.112 66.1006 258.476 67.6752 258.068 69.0405C257.66 70.4059 259.09 73.8688 262.261 76.1783C265.432 78.4879 268.705 79.0052 273.105 80.2716C277.003 81.3882 281.094 82.7027 280.819 82.6292C280.256 82.0644 279.943 81.2885 279.951 80.4808C280.009 79.514 280.642 78.7593 281.171 78.29C280.345 77.8999 278.987 77.0179 276.882 75.0222C273.493 71.8165 270.033 68.608 268.002 67.1324" stroke="#575CE0" stroke-linecap="round" stroke-linejoin="round"/>
<path d="M266.913 67.3218C266.345 67.0391 265.998 66.8921 265.998 66.8921" stroke="#EFAFA1" stroke-linecap="round" stroke-linejoin="round"/>
<path d="M277.496 75.1012C277.496 75.1012 272.121 70.7393 269.997 69.2015C269.325 68.7145 268.627 68.2653 267.906 67.856" stroke="#EFAFA1" stroke-linecap="round" stroke-linejoin="round"/>
<path d="M293.454 79.9437C292.123 79.6271 292.021 79.9437 288.85 79.8363C285.679 79.7289 282.202 78.5784 282.202 78.5784C282.202 78.5784 281.905 78.6236 281.172 78.2759C280.643 78.7451 280.009 79.4999 279.951 80.4667C279.943 81.2743 280.257 82.0503 280.819 82.6151C281.37 82.7649 281.902 82.8978 282.406 82.9854C284.657 83.4066 287.417 84.4554 288.85 85.0858C290.005 85.6345 291.261 85.9237 292.533 85.9338C293.657 85.9338 293.219 86.1063 294.04 85.8943C294.861 85.6822 294.578 85.0943 294.578 85.0943C294.927 85.0762 295.273 85.0055 295.602 84.8851C296.214 84.6731 296.01 83.8335 296.01 83.8335C296.412 83.8482 296.812 83.782 297.189 83.6384C297.815 83.302 297.815 82.5953 297.545 81.9423C297.137 80.9529 294.784 80.2575 293.454 79.9437Z" fill="#EFAFA1"/>
<path d="M290.853 19.3785C290.853 19.3785 288.908 21.2132 289.065 23.2089C289.222 25.2047 288.596 26.3185 288.83 27.7602C289.065 29.2018 289.381 32.0004 289.932 32.71C290.483 33.4195 290.555 34.228 291.101 34.6266C291.646 35.0252 293.514 35.0252 293.902 34.3863C294.291 33.7474 298.415 31.2768 298.726 30.3948C299.038 29.5128 298.961 29.2782 298.961 29.2782C298.961 29.2782 301.682 27.6018 301.294 26.1686C300.906 24.7354 299.815 24.1729 299.192 24.6534C298.569 25.134 298.492 25.3715 298.492 25.3715C298.492 25.3715 296.864 24.2718 297.175 23.2344C297.487 22.1969 298.459 21.8407 298.148 20.6421C297.837 19.4435 295.509 20.0428 293.032 20.2379C291.079 20.3849 291.72 18.6435 290.853 19.3785Z" fill="#EFAFA1"/>
</svg>
