<svg width="340" height="158" viewBox="0 0 340 158" fill="none" xmlns="http://www.w3.org/2000/svg">
<g filter="url(#filter0_d_4747_6146)">
<g clip-path="url(#clip0_4747_6146)">
<rect x="10" y="8" width="320" height="138" rx="10" fill="#C2C2FF"/>
<g filter="url(#filter1_d_4747_6146)">
<path d="M20 146H206.289L216.587 88.8477C221.402 62.1243 223.176 35.0039 221.916 8H20C14.4772 8 10 12.4772 10 18V136C10 141.523 14.4771 146 20 146Z" fill="#5959FF"/>
</g>
<path d="M258.938 133.475C258.938 133.475 255.79 134.334 246.13 134.121C236.469 133.908 222.522 129.624 217.135 129.624C211.748 129.624 205.888 131.55 203.649 135.833C201.409 140.117 199.375 145.467 212.414 150.39C225.452 155.314 235.337 156.812 253.993 161.303C272.648 165.794 280.063 166.014 289.706 163.661C299.349 161.309 305.886 155.314 304.99 146.943C304.094 138.572 302.066 133.458 297.351 132.173C292.636 130.887 258.938 133.475 258.938 133.475Z" fill="#4141FD"/>
<path d="M258.938 133.475C258.938 133.475 255.79 134.334 246.13 134.121C236.469 133.908 222.522 129.624 217.135 129.624C211.748 129.624 205.888 131.55 203.649 135.833C201.409 140.117 199.375 145.467 212.414 150.39C225.452 155.314 235.337 156.812 253.993 161.303C272.648 165.794 280.063 166.013 289.706 163.661C299.349 161.309 305.886 155.314 304.99 146.943C304.094 138.572 302.066 133.458 297.351 132.173C292.636 130.887 258.938 133.475 258.938 133.475Z" stroke="#4141FD" stroke-linecap="round" stroke-linejoin="round"/>
<path d="M275.494 65.2919C275.494 65.2919 275.817 69.3621 274.681 71.6335C273.545 73.9049 268.979 76.1937 265.071 78.3095C261.162 80.4252 272.277 86.4199 270 90C267.723 93.5801 251.234 93.2871 251.234 93.2871C251.234 93.2871 247.649 98.8273 244.72 103.71C241.791 108.593 240.16 113.644 243.907 116.393C247.654 119.143 252.209 115.091 254.653 111.205C257.098 107.319 259.375 102.903 259.375 102.903C259.375 102.903 262.494 118.025 261.652 122.112C260.81 126.2 258.885 130.091 258.885 131.913C258.885 133.735 260.349 135.009 262.632 135.493C264.915 135.977 272.727 136.646 278.1 136.312C283.473 135.977 298.779 135.009 299.43 132.887C300.082 130.766 301.056 116.117 301.056 116.117C301.056 116.117 310.661 119.374 313.595 113.517C316.53 107.659 316.685 94.492 314.57 87.9486C312.454 81.4053 307.075 78.9955 303.823 77.3697C300.572 75.744 291.613 71.5067 289.987 69.7137C288.362 67.9208 287.86 59.1002 287.86 56.1716C287.86 53.2429 287.537 56.0102 284.441 58.2874C281.345 60.5646 275.494 65.2919 275.494 65.2919Z" fill="#A5A5FE"/>
<path d="M298.289 46.2384C299.592 43.7998 301.547 39.5625 298.941 36.6338C296.335 33.7052 294.709 35.4808 294.381 32.5637C294.052 29.6466 293.406 26.5392 290.472 26.5392C287.537 26.5392 285.427 27.6922 283.634 26.5392C281.842 25.3862 280.377 22.1404 275.817 22.1404C271.257 22.1404 272.407 28.5012 271.589 29.3141C271.186 29.6046 270.735 29.8214 270.257 29.954C269.913 29.8681 269.626 29.6335 269.473 29.3141C268.66 27.6883 268.556 27.8784 268.484 25.1908C268.412 22.5598 266.691 21.1206 264.736 22.5849C262.782 24.0493 266.852 23.8878 264.575 26.3322C262.298 28.7766 263.284 32.5637 265.376 36.1611C267.469 39.7585 269.937 37.6254 269.937 37.6254C270.421 37.3026 270.859 39.1359 275.2 39.9314C279.334 40.6867 282.159 39.3549 282.487 43.8978C282.816 48.4407 286.869 50.9831 288.01 51.6345C289.152 52.286 286.217 55.8718 286.857 57.4976C287.497 59.1233 289.624 58.9619 290.927 58.8005C292.23 58.6391 291.417 56.6847 294.185 56.3561C296.952 56.0275 297.926 55.2031 299.068 52.1246C300.209 49.046 296.986 48.6828 298.289 46.2384Z" fill="#5959FF"/>
<path d="M298.289 46.2384C299.592 43.7998 301.547 39.5625 298.941 36.6338C296.335 33.7052 294.709 35.4808 294.381 32.5637C294.052 29.6466 293.406 26.5392 290.472 26.5392C287.537 26.5392 285.427 27.6922 283.634 26.5392C281.842 25.3862 280.377 22.1404 275.817 22.1404C271.257 22.1404 272.407 28.5012 271.589 29.3141C271.186 29.6046 270.735 29.8214 270.257 29.954C269.913 29.8681 269.626 29.6335 269.473 29.3141C268.66 27.6883 268.556 27.8784 268.484 25.1908C268.412 22.5598 266.691 21.1206 264.736 22.5849C262.782 24.0493 266.852 23.8878 264.575 26.3322C262.298 28.7766 263.284 32.5637 265.376 36.1611C267.469 39.7585 269.937 37.6254 269.937 37.6254C270.421 37.3026 270.859 39.1359 275.2 39.9314C279.334 40.6867 282.159 39.3549 282.487 43.8978C282.816 48.4407 286.869 50.9831 288.01 51.6345C289.152 52.286 286.217 55.8718 286.857 57.4976C287.497 59.1233 289.624 58.9619 290.927 58.8005C292.23 58.6391 291.417 56.6847 294.185 56.3561C296.952 56.0275 297.926 55.2031 299.068 52.1246C300.209 49.046 296.986 48.6828 298.289 46.2384Z" stroke="#5959FF" stroke-linecap="round" stroke-linejoin="round"/>
<path d="M303.823 77.341C301.286 76.0669 295.279 73.2132 291.987 71.1724C290.903 74.4239 287.721 81.8954 281.356 81.8954C275.488 81.8954 273.764 76.407 273.285 73.3343C271.337 75.0638 269.5 75.5 267.5 76C260.599 77.8821 255.037 82.989 252.573 89.7043L251.257 93.2929C251.257 93.2929 250.046 95.1666 248.461 97.6859C255.039 97.3573 259.415 102.903 259.415 102.903C259.415 102.903 262.493 118.025 261.651 122.113C260.81 126.2 258.884 130.091 258.884 131.913C258.884 133.735 260.349 135.009 262.631 135.493C264.914 135.978 272.726 136.646 278.099 136.312C283.472 135.978 298.778 135.009 299.43 132.887C300.081 130.766 301.056 116.117 301.056 116.117L300.081 103.255C308.262 97.8473 313.981 101.635 315.855 103.255C316.258 97.7263 315.797 91.7248 314.569 87.9429C312.453 81.4111 307.08 78.9667 303.823 77.341Z" fill="white"/>
<path d="M243.688 107.071C243.688 107.071 242.079 107.925 240.805 111.032C239.531 114.139 237.923 119.91 239.519 121.732C241.116 123.554 244.766 121.945 248.167 121.519C251.568 121.092 265.825 112.744 268.178 111.349C270.53 109.954 272.461 109.424 273.21 108.138C273.96 106.852 273.747 102.252 273.85 100.004C273.954 97.7551 273.424 87.6951 273.424 87.6951C273.424 87.6951 272.674 85.2334 271.389 85.4467C271.389 85.4467 269.89 84.5935 269.573 85.4467L268.927 87.1762C268.927 87.1762 267.538 86.7496 267.198 87.4991C266.965 88.2284 266.822 88.9836 266.771 89.7475C266.771 89.7475 265.168 90.4969 265.168 91.477C265.168 92.457 265.485 98.2221 265.485 99.8248C265.485 101.427 265.272 103.895 265.808 104.961C266.344 106.028 266.88 106.997 266.88 106.997C266.88 106.997 259.063 108.069 255.748 108.069C252.433 108.069 246.651 108.173 245.579 108.709" fill="#A5A5FE"/>
<path d="M308.764 112.26C303.627 108.945 292.921 111.51 289.497 111.297C286.072 111.084 276.548 105.838 276.548 105.838C276.548 105.838 278.474 103.912 278.578 102.736C278.682 101.56 278.578 98.3488 278.578 96.5271C278.578 94.7053 279.114 92.8893 279.223 91.4999C279.333 90.1106 277.494 91.0676 277.188 91.4999C276.883 91.9323 276.116 96.2042 276.116 96.2042C276.116 96.2042 275.153 93.3217 275.153 92.9989C275.153 92.676 274.94 88.7154 274.404 87.107C273.868 85.4985 272.588 87.107 272.588 87.107C272.478 86.1442 272.155 85.3774 271.406 85.3774C270.657 85.3774 270.017 88.0582 270.017 88.0582C270.017 86.4497 269.48 86.5593 268.944 87.0897C268.408 87.6201 268.414 91.1598 268.414 91.1598L267.768 90.197C267.019 89.9837 266.615 91.1598 266.615 92.2321C266.615 93.3044 267.042 96.5098 267.042 99.1848C267.011 100.549 267.119 101.913 267.365 103.255C267.834 105.129 268.63 106.904 269.717 108.501C271.539 111.176 277.638 114.491 281.385 117.379C285.133 120.268 296.155 125.087 301.615 125.946C307.074 126.805 310.839 128.829 312.102 126.482C313.364 124.136 315.739 112.566 314.563 108.714" fill="#A5A5FE"/>
<path d="M261.56 153.192C260.384 152.652 259.3 151.931 258.349 151.053C257.069 149.768 258.349 146.556 256.619 145.288C254.89 144.02 251.482 143.559 250.854 145.507C250.226 147.456 249.782 148.718 248.496 149.145C247.211 149.572 245.717 149.572 243.359 150.644C241.002 151.716 241.007 155.567 241.007 155.567C245.527 156.171 249.971 157.247 254.267 158.778C260.476 161.13 263.255 159.845 263.255 159.845C263.255 159.845 263.491 155.527 261.56 153.192Z" fill="#A5A5FE"/>
<path d="M261.56 153.192C260.384 152.652 259.3 151.931 258.349 151.053C257.069 149.768 258.349 146.556 256.619 145.288C254.89 144.02 251.482 143.559 250.854 145.507C250.226 147.456 249.782 148.718 248.496 149.145C247.211 149.572 245.717 149.572 243.359 150.644C241.002 151.716 241.007 155.567 241.007 155.567C245.527 156.171 249.971 157.247 254.267 158.778C260.476 161.13 263.255 159.845 263.255 159.845C263.255 159.845 263.491 155.527 261.56 153.192Z" stroke="#5959FF" stroke-linecap="round" stroke-linejoin="round"/>
<path d="M277.484 159.493C280.74 158.655 283.932 157.587 287.037 156.299C291.13 154.639 295.269 153.007 299.218 151.03C305.214 148.032 307.353 143.535 305.854 137.972C304.355 132.409 301.79 128.125 290.865 130.051C279.94 131.976 276.481 138.549 271.84 143.535C266.104 149.675 261.377 152.834 259.209 152.529C256.736 152.183 256.211 156.807 259.636 158.525C265.17 161.292 271.483 160.969 277.484 159.493Z" fill="#5959FF"/>
<path d="M277.484 159.493C280.74 158.655 283.932 157.587 287.037 156.299C291.13 154.639 295.269 153.007 299.218 151.03C305.214 148.032 307.353 143.535 305.854 137.972C304.355 132.409 301.79 128.125 290.865 130.051C279.94 131.976 276.481 138.549 271.84 143.535C266.104 149.675 261.377 152.834 259.209 152.529C256.736 152.183 256.211 156.807 259.636 158.525C265.17 161.292 271.483 160.969 277.484 159.493Z" stroke="#5959FF" stroke-linecap="round" stroke-linejoin="round"/>
<path d="M261.065 152.31C261.065 152.31 266.294 151.266 271.788 144.988C277.282 138.71 278.06 137.661 278.06 137.661" stroke="#A5A5FE" stroke-linecap="round" stroke-linejoin="round"/>
<path d="M218.322 130.132C216.422 129.77 214.481 129.681 212.557 129.866C207.42 130.293 203.995 133.504 203.142 136.289C202.289 139.073 205.281 146.135 211.917 150.846C218.552 155.556 225.401 156.611 234.608 159.193C242.766 161.471 251.327 164.151 250.75 164.001C249.573 162.85 248.917 161.267 248.934 159.62C249.055 157.648 250.381 156.109 251.488 155.152C249.759 154.356 246.916 152.558 242.512 148.488C235.421 141.95 228.18 135.407 223.931 132.397" fill="#4141FD"/>
<path d="M218.322 130.132C216.422 129.77 214.481 129.681 212.557 129.866C207.42 130.293 203.995 133.504 203.142 136.289C202.289 139.073 205.281 146.135 211.917 150.846C218.552 155.556 225.401 156.611 234.608 159.193C242.766 161.471 251.327 164.151 250.75 164.001C249.573 162.85 248.917 161.267 248.934 159.62C249.055 157.648 250.381 156.109 251.488 155.152C249.759 154.356 246.916 152.558 242.512 148.488C235.421 141.95 228.18 135.407 223.931 132.397" stroke="#4141FD" stroke-linecap="round" stroke-linejoin="round"/>
<path d="M221.65 132.784C220.462 132.207 219.736 131.907 219.736 131.907" stroke="#A5A5FE" stroke-linecap="round" stroke-linejoin="round"/>
<path d="M243.797 148.649C243.797 148.649 232.55 139.754 228.105 136.617C226.697 135.624 225.237 134.708 223.729 133.873" stroke="#A5A5FE" stroke-linecap="round" stroke-linejoin="round"/>
<path d="M271.746 35.0081C271.746 35.0081 267.675 38.7496 268.004 42.8198C268.333 46.8899 267.024 49.1614 267.514 52.1015C268.004 55.0417 268.667 60.7491 269.82 62.1962C270.973 63.6432 271.123 65.292 272.264 66.1049C273.406 66.9178 277.315 66.9178 278.127 65.6149C278.94 64.312 287.571 59.2733 288.222 57.4746C288.874 55.6759 288.712 55.1974 288.712 55.1974C288.712 55.1974 294.408 51.7787 293.595 48.8558C292.782 45.9329 290.499 44.7857 289.196 45.7657C287.894 46.7458 287.732 47.2301 287.732 47.2301C287.732 47.2301 284.325 44.9874 284.976 42.8717C285.628 40.7559 287.663 40.0295 287.011 37.5851C286.36 35.1407 281.489 36.3629 276.306 36.7607C272.218 37.0605 273.562 33.5092 271.746 35.0081Z" fill="#A5A5FE"/>
<path d="M51.168 46.664H47.976V49.88C47.976 53.984 46.296 58.208 42.576 59.96L44.472 62.528C46.968 61.304 48.624 58.976 49.584 56.168C50.496 58.808 52.056 60.944 54.36 62.12L56.28 59.624C52.728 57.872 51.168 53.864 51.168 49.88V46.664ZM63.552 53.456H60.336V44.96H57.168V67.064H60.336V56.096H63.552V53.456ZM80.4221 56.192H83.5901V44.96H80.4221V48.2H76.3901V50.72H80.4221V56.192ZM78.3101 53.504C74.8541 52.448 73.3421 49.88 73.3421 47.264V45.68H70.1501V47.264C70.1501 50.072 68.6141 52.784 64.9421 53.888L66.5741 56.36C69.0941 55.568 70.8221 53.936 71.8061 51.872C72.7421 53.72 74.3741 55.184 76.7021 55.928L78.3101 53.504ZM72.1661 64.352V63.056H83.5901V57.128H69.0221V59.552H80.4701V60.776H69.0461V66.8H84.2141V64.352H72.1661Z" fill="white"/>
<path d="M50.775 78.69H47.7V77.4H45.705V78.69H42.645V80.25H50.775V78.69ZM45.21 83.22C45.21 82.53 45.81 82.185 46.71 82.185C47.595 82.185 48.21 82.53 48.21 83.22C48.21 83.925 47.595 84.27 46.71 84.27C45.81 84.27 45.21 83.925 45.21 83.22ZM50.1 83.22C50.1 81.72 48.705 80.685 46.71 80.685C44.73 80.685 43.32 81.72 43.32 83.22C43.32 84.735 44.73 85.77 46.71 85.77C48.705 85.77 50.1 84.735 50.1 83.22ZM44.31 88.29H51.54V91.305H53.52V86.7H44.31V88.29ZM55.35 81.03H53.52V77.49H51.54V86.13H53.52V82.665H55.35V81.03ZM65.2638 82.425H66.3438V85.92H68.2188V77.475H66.3438V80.835H65.2638V77.73H63.4188V85.485H65.2638V82.425ZM63.4038 83.61C61.5888 82.875 60.8388 81.39 60.8388 79.905V78.3H58.9338V79.905C58.9338 81.465 58.1838 83.175 56.2488 84.015L57.2988 85.545C58.5738 85.005 59.4288 84.015 59.9238 82.845C60.4188 83.835 61.2138 84.66 62.3538 85.11L63.4038 83.61ZM63.5388 89.805C61.7388 89.805 60.7488 89.445 60.7488 88.71C60.7488 87.975 61.7388 87.615 63.5388 87.615C65.3088 87.615 66.2988 87.975 66.2988 88.71C66.2988 89.445 65.3088 89.805 63.5388 89.805ZM63.5388 86.13C60.6288 86.13 58.7688 87.105 58.7688 88.71C58.7688 90.33 60.6288 91.29 63.5388 91.29C66.4338 91.29 68.2788 90.33 68.2788 88.71C68.2788 87.105 66.4338 86.13 63.5388 86.13ZM81.2677 80.535H73.7677V79.32H81.1627V77.745H71.8027V82.095H81.2677V80.535ZM73.6477 88.83H81.2077V85.17H71.6677V86.655H79.2577V87.435H71.6827V91.17H81.5677V89.655H73.6477V88.83ZM70.2577 82.83V84.39H82.7527V82.83H70.2577ZM93.5065 77.46V91.32H95.4865V77.46H93.5065ZM88.0615 78.435C85.9765 78.435 84.4315 80.325 84.4315 83.355C84.4315 86.4 85.9765 88.305 88.0615 88.305C90.1465 88.305 91.6915 86.4 91.6915 83.355C91.6915 80.325 90.1465 78.435 88.0615 78.435ZM88.0615 80.22C89.0815 80.22 89.7865 81.315 89.7865 83.355C89.7865 85.41 89.0815 86.505 88.0615 86.505C87.0415 86.505 86.3365 85.41 86.3365 83.355C86.3365 81.315 87.0415 80.22 88.0615 80.22ZM112.642 86.385C113.107 83.595 113.107 81.69 113.107 79.995V78.66H102.952V80.235H111.127C111.127 81.825 111.112 83.685 110.662 86.19L112.642 86.385ZM109.717 88.035V83.67H107.782V88.035H106.312V83.67H104.362V88.035H101.737V89.625H114.247V88.035H109.717ZM118.056 79.005H116.076V87.93H117.036C118.416 87.93 120.006 87.855 121.806 87.525L121.641 85.86C120.321 86.1 119.136 86.19 118.056 86.22V79.005ZM125.481 77.46V82.785H124.236V77.715H122.391V90.63H124.236V84.39H125.481V91.275H127.371V77.46H125.481ZM132.439 86.625C131.689 86.625 131.239 85.59 131.239 83.46C131.239 81.345 131.689 80.31 132.439 80.31C133.204 80.31 133.639 81.345 133.639 83.46C133.639 85.59 133.204 86.625 132.439 86.625ZM136.504 82.56H135.409C135.184 79.98 134.074 78.45 132.439 78.45C130.609 78.45 129.454 80.34 129.454 83.46C129.454 86.595 130.609 88.485 132.439 88.485C134.119 88.485 135.244 86.865 135.424 84.165H136.504V90.675H138.349V77.7H136.504V82.56ZM139.309 77.46V91.275H141.184V77.46H139.309ZM148.323 78.54H146.328V80.535C146.328 83.16 145.278 85.845 142.938 86.925L144.168 88.515C145.713 87.735 146.748 86.295 147.348 84.525C147.918 86.19 148.923 87.54 150.438 88.275L151.608 86.7C149.328 85.68 148.323 83.145 148.323 80.535V78.54ZM152.748 77.46V81.795H150.093V83.385H152.748V91.32H154.728V77.46H152.748ZM47.715 100.43H50.46V98.795H42.87V100.43H45.735V101.195C45.735 103.475 44.61 106.07 42.345 107.12L43.455 108.695C45.03 107.945 46.14 106.43 46.755 104.63C47.37 106.265 48.45 107.645 49.98 108.35L51.075 106.79C48.81 105.74 47.715 103.295 47.715 101.195V100.43ZM55.47 102.74H53.46V97.475H51.48V111.29H53.46V104.375H55.47V102.74ZM62.6838 99.05C64.6938 99.05 65.6388 99.335 65.6388 99.95C65.6388 100.595 64.6938 100.865 62.6838 100.865C60.6888 100.865 59.7438 100.595 59.7438 99.95C59.7438 99.335 60.6888 99.05 62.6838 99.05ZM62.6838 102.305C65.8488 102.305 67.6938 101.48 67.6938 99.95C67.6938 98.435 65.8488 97.595 62.6838 97.595C59.5338 97.595 57.6888 98.435 57.6888 99.95C57.6888 101.48 59.5338 102.305 62.6838 102.305ZM63.8688 105.365H61.5288V104.405H63.8688V105.365ZM68.9388 104.405V102.845H56.4288V104.405H59.5488V105.365H57.8538V106.82H65.4588V107.555H57.8838V111.185H67.7688V109.7H59.8488V108.92H67.4088V105.365H65.8488V104.405H68.9388ZM78.5677 103.775C76.4377 103.055 75.4777 101.39 75.4477 99.815H78.1327V98.24H70.7077V99.815H73.4227C73.3927 101.525 72.3877 103.28 70.1677 104.03L71.1727 105.59C72.7777 105.065 73.8577 103.955 74.4727 102.605C75.0577 103.835 76.0927 104.825 77.6077 105.32L78.5677 103.775ZM72.3727 107.885H79.8127V111.305H81.7927V106.31H72.3727V107.885ZM79.8127 97.49V100.775H77.7727V102.365H79.8127V105.695H81.7927V97.49H79.8127ZM90.2815 98.165C87.3865 98.165 85.1365 99.755 85.1365 102.17C85.1365 104.57 87.3865 106.16 90.2815 106.16C93.1915 106.16 95.4415 104.57 95.4415 102.17C95.4415 99.755 93.1915 98.165 90.2815 98.165ZM90.2815 99.785C92.1715 99.785 93.5065 100.67 93.5065 102.17C93.5065 103.64 92.1715 104.54 90.2815 104.54C88.4065 104.54 87.0715 103.64 87.0715 102.17C87.0715 100.67 88.4065 99.785 90.2815 99.785ZM84.0415 108.02V109.64H96.5515V108.02H84.0415ZM105.07 108.155V106.1H109.255V104.51H101.245V102.965H108.94V98.36H99.2653V99.935H106.99V101.42H99.2803V106.1H103.09V108.155H97.8403V109.775H110.35V108.155H105.07ZM120.576 103.715H117.876V100.175H120.576V103.715ZM122.526 98.615H115.941V105.275H122.526V98.615ZM119.481 106.565H117.501V111.05H126.906V109.475H119.481V106.565ZM126.411 101.465V97.475H124.431V107.555H126.411V103.085H128.241V101.465H126.411ZM140.464 101.6H132.829V99.545H140.359V97.97H130.864V103.175H140.464V101.6ZM132.799 106.91H130.819V111.05H140.569V109.475H132.799V106.91ZM129.349 104.3V105.875H141.844V104.3H129.349ZM153.24 109.805C151.395 109.805 150.45 109.49 150.45 108.77C150.45 108.05 151.395 107.72 153.24 107.72C155.085 107.72 156.03 108.05 156.03 108.77C156.03 109.49 155.085 109.805 153.24 109.805ZM153.24 106.22C150.255 106.22 148.455 107.135 148.455 108.77C148.455 110.39 150.255 111.305 153.24 111.305C156.225 111.305 158.04 110.39 158.04 108.77C158.04 107.135 156.225 106.22 153.24 106.22ZM154.275 103.97V102.83H158.115V101.255H150.525V99.635H158.04V98.06H148.56V102.83H152.295V103.97H147.045V105.545H159.54V103.97H154.275ZM164.534 106.505C163.499 106.505 162.809 105.41 162.809 103.355C162.809 101.315 163.499 100.22 164.534 100.22C165.554 100.22 166.259 101.315 166.259 103.355C166.259 105.41 165.554 106.505 164.534 106.505ZM164.534 98.435C162.434 98.435 160.904 100.325 160.904 103.355C160.904 106.4 162.434 108.305 164.534 108.305C166.619 108.305 168.164 106.4 168.164 103.355C168.164 100.325 166.619 98.435 164.534 98.435ZM173.654 102.68H171.644V97.475H169.664V111.29H171.644V104.315H173.654V102.68ZM177.387 103.985H181.872V98.645H175.347V100.22H179.847V102.425H175.362V108.11H176.607C179.112 108.11 181.137 108.02 183.387 107.63L183.177 106.025C181.227 106.355 179.487 106.46 177.387 106.475V103.985ZM184.137 97.46V111.32H186.117V97.46H184.137Z" fill="white"/>
</g>
</g>
<defs>
<filter id="filter0_d_4747_6146" x="0" y="0" width="340" height="158" filterUnits="userSpaceOnUse" color-interpolation-filters="sRGB">
<feFlood flood-opacity="0" result="BackgroundImageFix"/>
<feColorMatrix in="SourceAlpha" type="matrix" values="0 0 0 0 0 0 0 0 0 0 0 0 0 0 0 0 0 0 127 0" result="hardAlpha"/>
<feOffset dy="2"/>
<feGaussianBlur stdDeviation="5"/>
<feComposite in2="hardAlpha" operator="out"/>
<feColorMatrix type="matrix" values="0 0 0 0 0 0 0 0 0 0 0 0 0 0 0 0 0 0 1 0"/>
<feBlend mode="normal" in2="BackgroundImageFix" result="effect1_dropShadow_4747_6146"/>
<feBlend mode="normal" in="SourceGraphic" in2="effect1_dropShadow_4747_6146" result="shape"/>
</filter>
<filter id="filter1_d_4747_6146" x="-12" y="-16" width="260.308" height="186" filterUnits="userSpaceOnUse" color-interpolation-filters="sRGB">
<feFlood flood-opacity="0" result="BackgroundImageFix"/>
<feColorMatrix in="SourceAlpha" type="matrix" values="0 0 0 0 0 0 0 0 0 0 0 0 0 0 0 0 0 0 127 0" result="hardAlpha"/>
<feOffset dx="2"/>
<feGaussianBlur stdDeviation="12"/>
<feComposite in2="hardAlpha" operator="out"/>
<feColorMatrix type="matrix" values="0 0 0 0 0.34902 0 0 0 0 0.34902 0 0 0 0 1 0 0 0 0.3 0"/>
<feBlend mode="normal" in2="BackgroundImageFix" result="effect1_dropShadow_4747_6146"/>
<feBlend mode="normal" in="SourceGraphic" in2="effect1_dropShadow_4747_6146" result="shape"/>
</filter>
<clipPath id="clip0_4747_6146">
<rect x="10" y="8" width="320" height="138" rx="10" fill="white"/>
</clipPath>
</defs>
</svg>
