<svg width="145" height="145" viewBox="0 0 145 145" fill="none" xmlns="http://www.w3.org/2000/svg">
<path fill-rule="evenodd" clip-rule="evenodd" d="M145 132.931V62.4813H89.7225V86.5683H113.597C111.6 99.006 104.55 106.105 92.4479 107.866C87.3882 103.375 80.2621 98.8294 70.1044 94.4819C68.7259 90.8192 66.7114 87.2245 64.1282 86.162C63.1533 85.761 62.0697 86.2321 61.8148 87.243C61.5974 88.1051 61.4864 89.3784 61.6263 91.1629C59.9706 90.5688 58.2502 89.9799 56.4624 89.3969C54.3945 83.7867 53.3606 76.9277 53.3606 68.82C53.3606 55.6597 56.0541 45.5781 61.441 38.5754C66.828 31.4519 74.5411 27.8902 84.5804 27.8902C98.4151 27.8902 106.802 34.3496 109.74 47.2685H142.98C141.633 34.2289 136.185 23.4229 126.635 14.8506C115.617 4.95021 101.782 0 85.1314 0C66.7668 0 51.5241 5.55389 39.4035 16.6617C33.186 22.3629 28.3534 28.9506 24.9056 36.4248C24.7256 36.5001 24.5525 36.5651 24.3877 36.6172C20.517 37.8405 17.2423 38.4286 14.6955 38.6584C11.1372 38.9794 7.84422 37.3943 5.04853 35.1999C4.65148 34.8882 4.27338 34.5525 3.89534 34.2169C3.36669 33.7475 2.83792 33.278 2.25787 32.8747C0.498806 31.6518 -1.1213 32.002 1.02714 39.3659C1.62715 41.541 3.38716 44.813 4.86127 47.5534C5.39106 48.5383 5.88404 49.4548 6.27283 50.2267C7.08115 51.8317 8.04607 57.262 9.00137 62.638C9.65891 66.3384 10.312 70.0138 10.9062 72.3975C11.8594 77.6411 15.984 88.0523 19.4774 96.3046C21.311 100.636 23.7283 104.674 26.6198 108.361C26.4618 108.321 26.3027 108.282 26.1425 108.242C11.5241 104.651 13.5077 107.956 17.5778 111.022C18.9708 112.071 20.1672 113.366 21.3503 114.646C21.443 114.746 21.5356 114.846 21.6283 114.946C23.6997 117.183 26.734 119.113 29.2744 120.444C31.2196 121.462 33.4858 121.549 35.6446 121.118C35.8045 121.086 35.9626 121.055 36.1186 121.025C40.7828 126.293 47.411 132.1 56.7468 137.765C75.2847 149.015 96.5583 144.82 105.055 140.649C105.338 140.51 105.445 140.219 105.376 139.965C105.553 139.956 105.722 139.945 105.883 139.932C107.013 139.842 107.446 138.682 107.069 137.628C106.53 136.126 106.174 134.349 105.775 132.358C105.703 131.999 105.629 131.632 105.553 131.259C111.586 128.373 116.777 124.222 121.126 118.805V120.073V120.978V132.931H145ZM22.1885 43.3543C22.9708 40.9655 23.8765 38.6557 24.9056 36.4248C25.5327 36.1625 26.2434 35.7755 26.9768 35.3761C28.3632 34.6211 29.8304 33.822 30.967 33.7383C35.3255 33.4171 28.2384 38.8943 24.6843 41.403C23.7849 42.0379 22.9545 42.6904 22.1885 43.3543ZM18.468 68.3154C22.3874 72.6554 28.1591 76.6304 34.1337 79.9469C35.3602 77.7292 33.3185 72.7121 31.735 69.8121C37.2779 67.965 40.4304 74.0007 43.655 80.1743C44.7228 82.2187 45.7985 84.2783 46.9716 86.0717C49.0041 86.8989 50.8929 87.6015 52.5492 88.1637C53.8882 88.5716 55.1923 88.9828 56.4624 89.3969C61.1075 102 70.9699 108.301 86.0496 108.301C88.3197 108.301 90.4525 108.156 92.4479 107.866C102.124 116.453 104.242 124.841 105.553 131.259C98.6768 134.547 90.7065 136.191 81.6421 136.191C61.441 136.191 45.4638 129.128 33.7105 115.002C23.5487 102.687 18.4679 87.172 18.4679 68.4578C18.4679 68.4103 18.4679 68.3628 18.468 68.3154ZM18.468 68.3154C15.9872 65.5685 14.2485 62.6753 13.6699 59.7104C13.6041 56.2682 15.2784 49.3434 22.1885 43.3543C19.7209 50.889 18.4807 59.2093 18.468 68.3154Z" fill="url(#paint0_linear_1821_2028)"/>
<defs>
<linearGradient id="paint0_linear_1821_2028" x1="23.0689" y1="122.383" x2="200.938" y2="1.7324" gradientUnits="userSpaceOnUse">
<stop stop-color="white"/>
<stop offset="1" stop-color="white"/>
</linearGradient>
</defs>
</svg>
